<svg width="30" height="30" viewBox="0 0 30 30" fill="none" xmlns="http://www.w3.org/2000/svg">
<path d="M17.912 20.0601C15.8015 22.3037 12.0298 21.4131 11.1393 18.4608C10.2491 15.5099 12.8989 12.6914 15.8985 13.3968C19.306 10.4823 24.5998 5.97345 27.666 3.47636C28.7353 2.60507 29.6516 3.58892 28.8186 4.62902C26.3873 7.6671 21.8349 12.9995 18.8947 16.4191C19.1779 17.6497 18.8958 19.0144 17.912 20.0601ZM25.3563 14.9984C25.3563 14.1143 24.3927 13.5588 23.626 14.0008C22.8593 14.4428 22.8593 15.5539 23.626 15.9959C24.3927 16.4379 25.3563 15.8824 25.3563 14.9984ZM8.06654 10.3878C8.06654 9.50372 7.10296 8.9482 6.33626 9.39023C5.56956 9.83226 5.56956 10.9433 6.33626 11.3853C7.10296 11.8274 8.06654 11.2718 8.06654 10.3878ZM6.91394 14.9984C6.91394 14.1143 5.95036 13.5588 5.18367 14.0008C4.41691 14.4428 4.41691 15.5539 5.18367 15.9959C5.95042 16.4379 6.91394 15.8824 6.91394 14.9984ZM11.5245 6.92982C11.5245 6.04581 10.5609 5.49029 9.79423 5.93226C9.02753 6.37429 9.02753 7.48535 9.79423 7.92738C10.5609 8.36935 11.5245 7.81382 11.5245 6.92982ZM20.7456 6.92982C20.7456 6.04581 19.7821 5.49029 19.0154 5.93226C18.2487 6.37429 18.2487 7.48535 19.0154 7.92738C19.7821 8.36935 20.7456 7.81382 20.7456 6.92982ZM16.1351 5.77716C16.1351 4.89316 15.1715 4.33763 14.4048 4.77966C13.6381 5.22169 13.6381 6.33269 14.4048 6.77472C15.1715 7.21675 16.1351 6.66122 16.1351 5.77716ZM26.0825 11.9317C27.4432 16.9681 25.3492 22.7589 20.0623 25.3518C12.1253 29.2444 2.89476 23.0392 3.48732 14.2092C4.07958 5.38031 14.0525 0.488255 21.3967 5.42273L24.2614 3.23314C15.2388 -3.90481 1.81798 1.43273 0.162004 12.8177C-1.49409 24.2027 9.84556 33.1737 20.5243 28.9267C28.9024 25.5946 31.9879 16.0696 28.5715 8.67286L26.0825 11.9317Z" fill="white"/>
</svg>
