<svg width="30" height="30" viewBox="0 0 30 30" fill="#bbb" stroke="#bbb" xmlns="http://www.w3.org/2000/svg">
<path d="M15 1.25L26.875 8.125V21.875L15 28.75L3.125 21.875V8.125L15 1.25ZM15 4.13875L5.625 9.56625V20.4338L15 25.8612L24.375 20.4338V9.56625L15 4.13875ZM15 20C13.6739 20 12.4021 19.4732 11.4645 18.5355C10.5268 17.5979 10 16.3261 10 15C10 13.6739 10.5268 12.4021 11.4645 11.4645C12.4021 10.5268 13.6739 10 15 10C16.3261 10 17.5979 10.5268 18.5355 11.4645C19.4732 12.4021 20 13.6739 20 15C20 16.3261 19.4732 17.5979 18.5355 18.5355C17.5979 19.4732 16.3261 20 15 20ZM15 17.5C15.663 17.5 16.2989 17.2366 16.7678 16.7678C17.2366 16.2989 17.5 15.663 17.5 15C17.5 14.337 17.2366 13.7011 16.7678 13.2322C16.2989 12.7634 15.663 12.5 15 12.5C14.337 12.5 13.7011 12.7634 13.2322 13.2322C12.7634 13.7011 12.5 14.337 12.5 15C12.5 15.663 12.7634 16.2989 13.2322 16.7678C13.7011 17.2366 14.337 17.5 15 17.5Z" fill="white"/>
</svg>
