<svg width="23" height="25" viewBox="0 0 23 25" fill="#bbb" stroke="#bbb" xmlns="http://www.w3.org/2000/svg">
<path fill-rule="evenodd" clip-rule="evenodd" d="M5.10417 6.19792C5.10417 5.38399 5.26448 4.57804 5.57595 3.82608C5.88743 3.07411 6.34396 2.39086 6.91949 1.81533C7.49502 1.2398 8.17828 0.783263 8.93024 0.471788C9.68221 0.160314 10.4882 0 11.3021 0C12.116 0 12.922 0.160314 13.6739 0.471788C14.4259 0.783263 15.1091 1.2398 15.6847 1.81533C16.2602 2.39086 16.7167 3.07411 17.0282 3.82608C17.3397 4.57804 17.5 5.38399 17.5 6.19792C17.5 7.84171 16.847 9.41817 15.6847 10.5805C14.5223 11.7428 12.9459 12.3958 11.3021 12.3958C9.65829 12.3958 8.08183 11.7428 6.91949 10.5805C5.75716 9.41817 5.10417 7.84171 5.10417 6.19792ZM11.3021 2.1875C10.2385 2.1875 9.21839 2.61002 8.46629 3.36212C7.71419 4.11422 7.29167 5.13429 7.29167 6.19792C7.29167 7.26154 7.71419 8.28161 8.46629 9.03371C9.21839 9.78581 10.2385 10.2083 11.3021 10.2083C12.3657 10.2083 13.3858 9.78581 14.1379 9.03371C14.89 8.28161 15.3125 7.26154 15.3125 6.19792C15.3125 5.13429 14.89 4.11422 14.1379 3.36212C13.3858 2.61002 12.3657 2.1875 11.3021 2.1875ZM5.46875 16.7708C4.59851 16.7708 3.76391 17.1165 3.14856 17.7319C2.5332 18.3472 2.1875 19.1818 2.1875 20.0521V21.7846C2.1875 21.8108 2.20646 21.8342 2.23271 21.8385C8.23958 22.8185 14.366 22.8185 20.3715 21.8385C20.3842 21.8364 20.3958 21.8299 20.4041 21.82C20.4124 21.81 20.4168 21.7975 20.4167 21.7846V20.0521C20.4167 19.1818 20.071 18.3472 19.4556 17.7319C18.8403 17.1165 18.0057 16.7708 17.1354 16.7708H16.6396C16.6005 16.7705 16.5616 16.7764 16.5244 16.7883L15.2629 17.201C12.6892 18.0413 9.91496 18.0413 7.34125 17.201L6.07833 16.7883C6.04204 16.7767 6.00415 16.7708 5.96604 16.7708H5.46875ZM0 20.0521C0 18.6017 0.57617 17.2107 1.60176 16.1851C2.62735 15.1595 4.01835 14.5833 5.46875 14.5833H5.96458C6.23438 14.5833 6.50271 14.6271 6.75792 14.7087L8.02083 15.1215C10.153 15.8174 12.4512 15.8174 14.5833 15.1215L15.8462 14.7087C16.1015 14.6256 16.3698 14.5833 16.6381 14.5833H17.1354C18.5858 14.5833 19.9768 15.1595 21.0024 16.1851C22.028 17.2107 22.6042 18.6017 22.6042 20.0521V21.7846C22.6042 22.8842 21.8079 23.8204 20.7229 23.9969C14.4837 25.0154 8.12051 25.0154 1.88125 23.9969C1.35614 23.9114 0.87856 23.6419 0.533909 23.2366C0.189258 22.8313 8.10026e-06 22.3166 0 21.7846V20.0521Z" fill="white"/>
</svg>
