<svg width="30" height="22" viewBox="0 0 30 22" fill="none" xmlns="http://www.w3.org/2000/svg">
<path d="M0 5.00065H13L14 7.00065H1L0 5.00065ZM1.33333 9.00065H14.3333L15.3333 11.0007H2.33333L1.33333 9.00065ZM23 19.6673C24.1067 19.6673 25 18.774 25 17.6673C25 16.5607 24.1067 15.6673 23 15.6673C21.8933 15.6673 21 16.5607 21 17.6673C21 18.774 21.8933 19.6673 23 19.6673ZM25 7.66732H21.6667V11.0007H27.6133L25 7.66732ZM9.66667 19.6673C10.7733 19.6673 11.6667 18.774 11.6667 17.6673C11.6667 16.5607 10.7733 15.6673 9.66667 15.6673C8.56 15.6673 7.66667 16.5607 7.66667 17.6673C7.66667 18.774 8.56 19.6673 9.66667 19.6673ZM25.6667 5.66732L29.6667 11.0007V17.6673H27C27 19.8807 25.2133 21.6673 23 21.6673C20.7867 21.6673 19 19.8807 19 17.6673H13.6667C13.6667 19.8807 11.8667 21.6673 9.66667 21.6673C7.45333 21.6673 5.66667 19.8807 5.66667 17.6673H3V13.0007H5.66667V15.0007H6.68C7.41333 14.1873 8.48 13.6673 9.66667 13.6673C10.8533 13.6673 11.92 14.1873 12.6533 15.0007H19V3.00065H3C3 1.52065 4.18667 0.333984 5.66667 0.333984H21.6667V5.66732H25.6667Z" fill="white"/>
</svg>
