<svg width="27" height="31" viewBox="0 0 27 31" fill="#bbb" stroke="#bbb" xmlns="http://www.w3.org/2000/svg">
<path d="M13.8038 1.79166C14.0227 1.47771 14.3041 1.21226 14.6302 1.01187C14.9563 0.811481 15.3202 0.680449 15.6992 0.626952C16.0783 0.573454 16.4642 0.598639 16.8331 0.700935C17.2019 0.803231 17.5457 0.980443 17.843 1.22151L23.9159 6.15223C24.4585 6.59255 24.8158 7.22073 24.917 7.91216C25.0181 8.6036 24.8557 9.3078 24.4619 9.88509H22.1962L22.9205 8.84694C23.0553 8.65465 23.1122 8.41841 23.0798 8.18581C23.0475 7.9532 22.9281 7.74151 22.7459 7.59337L19.6185 5.05651L16.283 9.88509H14.0229L18.1718 3.8828L16.6712 2.66451C16.5721 2.58413 16.4576 2.52501 16.3346 2.49087C16.2117 2.45672 16.0831 2.44827 15.9567 2.46604C15.8304 2.48382 15.7091 2.52744 15.6003 2.59417C15.4916 2.66091 15.3978 2.74934 15.3248 2.85394L10.42 9.88323H8.15433L13.8038 1.79166ZM20.3 21.0279C20.0538 21.0279 19.8176 21.1258 19.6434 21.2999C19.4693 21.4741 19.3715 21.7102 19.3715 21.9565C19.3715 22.2028 19.4693 22.439 19.6434 22.6131C19.8176 22.7873 20.0538 22.8851 20.3 22.8851H22.1572C22.4035 22.8851 22.6397 22.7873 22.8138 22.6131C22.9879 22.439 23.0858 22.2028 23.0858 21.9565C23.0858 21.7102 22.9879 21.4741 22.8138 21.2999C22.6397 21.1258 22.4035 21.0279 22.1572 21.0279H20.3ZM3.58576 8.02794H7.61391L6.31391 9.88509H3.58576C3.33949 9.88509 3.10331 9.98292 2.92916 10.1571C2.75502 10.3312 2.65719 10.5674 2.65719 10.8137C2.65719 11.0599 2.75502 11.2961 2.92916 11.4703C3.10331 11.6444 3.33949 11.7422 3.58576 11.7422H23.0858C24.0709 11.7422 25.0156 12.1336 25.7122 12.8301C26.4087 13.5267 26.8 14.4714 26.8 15.4565V26.5994C26.8 27.5845 26.4087 28.5292 25.7122 29.2258C25.0156 29.9223 24.0709 30.3137 23.0858 30.3137H5.44291C4.21154 30.3137 3.03061 29.8245 2.15991 28.9538C1.28921 28.0831 0.800049 26.9022 0.800049 25.6708V10.8137C0.800049 10.0748 1.09354 9.36628 1.61597 8.84386C2.13839 8.32144 2.84695 8.02794 3.58576 8.02794ZM2.65719 25.6708C2.65719 26.4096 2.95069 27.1182 3.47311 27.6406C3.99553 28.163 4.70409 28.4565 5.44291 28.4565H23.0858C23.5783 28.4565 24.0507 28.2609 24.399 27.9126C24.7472 27.5643 24.9429 27.0919 24.9429 26.5994V15.4565C24.9429 14.964 24.7472 14.4916 24.399 14.1433C24.0507 13.795 23.5783 13.5994 23.0858 13.5994H3.58576C3.25891 13.5981 2.94938 13.5455 2.65719 13.4415V25.6708Z" fill="white"/>
</svg>
