<svg width="34" height="34" viewBox="0 0 34 34" fill="none" xmlns="http://www.w3.org/2000/svg">
<g clip-path="url(#clip0_418_216)">
<path d="M12.5773 33.5746V22.5828H9.1696V17.5319H12.5773V15.3555C12.5773 9.72883 15.1228 7.12139 20.6462 7.12139C21.1985 7.12139 21.9616 7.17924 22.6682 7.26326C23.1973 7.31898 23.7223 7.40869 24.2399 7.53186V12.1117C23.9407 12.0843 23.6407 12.0678 23.3404 12.0622C23.0039 12.0535 22.6673 12.0493 22.3308 12.0498C21.3569 12.0498 20.5966 12.182 20.0236 12.4754C19.639 12.6695 19.3153 12.9659 19.0883 13.3321C18.733 13.9106 18.5732 14.7027 18.5732 15.7454V17.5319H23.9713L23.4396 20.4286L23.0443 22.5828H18.5732V33.9396C26.7578 32.9506 33.0994 25.9823 33.0994 17.5319C33.0994 8.40376 25.6985 1.00293 16.5704 1.00293C7.44233 1.00293 0.0415039 8.40376 0.0415039 17.5319C0.0415039 25.2839 5.37759 31.7881 12.5773 33.5746Z" fill="#F79D1D"/>
</g>
<defs>
<clipPath id="clip0_418_216">
<rect width="33.0578" height="33.0578" fill="white" transform="translate(0.0415039 0.942383)"/>
</clipPath>
</defs>
</svg>
