<svg width="34" height="34" viewBox="0 0 34 34" fill="none" xmlns="http://www.w3.org/2000/svg">
<path d="M17.4296 12.6571C14.7643 12.6571 12.6156 14.8265 12.6156 17.4711C12.6156 20.1157 14.785 22.2852 17.4296 22.2852C20.0742 22.2852 22.2437 20.1157 22.2437 17.4711C22.2437 14.8265 20.0742 12.6571 17.4296 12.6571ZM31.8924 17.4711C31.8924 15.467 31.8924 13.5042 31.7891 11.5C31.6858 9.18599 31.1486 7.11987 29.4544 5.44632C27.7602 3.7521 25.7147 3.21491 23.4007 3.11161C21.3965 3.0083 19.4337 3.0083 17.4296 3.0083C15.4255 3.0083 13.4627 3.0083 11.4585 3.11161C9.14448 3.21491 7.07837 3.7521 5.40481 5.44632C3.7106 7.14053 3.17341 9.18599 3.0701 11.5C2.9668 13.5042 2.9668 15.467 2.9668 17.4711C2.9668 19.4752 2.9668 21.4381 3.0701 23.4422C3.17341 25.7562 3.7106 27.8223 5.40481 29.4959C7.09903 31.1901 9.14448 31.7273 11.4585 31.8306C13.4627 31.9339 15.4255 31.9339 17.4296 31.9339C19.4337 31.9339 21.3965 31.9339 23.4007 31.8306C25.7147 31.7273 27.7808 31.1901 29.4544 29.4959C31.1486 27.8017 31.6858 25.7562 31.7891 23.4422C31.9131 21.4587 31.8924 19.4752 31.8924 17.4711ZM17.4296 24.8885C13.318 24.8885 10.0123 21.5827 10.0123 17.4711C10.0123 13.3595 13.318 10.0538 17.4296 10.0538C21.5412 10.0538 24.847 13.3595 24.847 17.4711C24.847 21.5827 21.5412 24.8885 17.4296 24.8885ZM25.1569 11.4794C24.2065 11.4794 23.4213 10.7149 23.4213 9.74384C23.4213 8.77276 24.1858 8.0083 25.1569 8.0083C26.128 8.0083 26.8924 8.77276 26.8924 9.74384C26.8976 9.97015 26.8563 10.1951 26.771 10.4048C26.6857 10.6145 26.5583 10.8044 26.3965 10.9628C26.2381 11.1246 26.0482 11.252 25.8385 11.3373C25.6288 11.4226 25.4039 11.4639 25.1775 11.4587L25.1569 11.4794Z" fill="#F79D1D"/>
</svg>
