<svg width="34" height="34" viewBox="0 0 34 34" fill="none" xmlns="http://www.w3.org/2000/svg">
<g clip-path="url(#clip0_418_220)">
<path d="M0.404785 3.31015C0.404785 2.0023 1.49156 0.942383 2.83247 0.942383H31.0349C32.3759 0.942383 33.4626 2.0023 33.4626 3.31015V31.6325C33.4626 32.9403 32.3759 34.0002 31.0349 34.0002H2.83247C1.49156 34.0002 0.404785 32.9403 0.404785 31.6325V3.31015ZM10.6176 28.6159V13.6883H5.65685V28.6159H10.6176ZM8.13826 11.649C9.86759 11.649 10.944 10.5044 10.944 9.07048C10.913 7.60561 9.86966 6.49197 8.17131 6.49197C6.47297 6.49197 5.36346 7.60767 5.36346 9.07048C5.36346 10.5044 6.43991 11.649 8.1052 11.649H8.13826ZM18.2788 28.6159V20.2792C18.2788 19.8329 18.3118 19.3866 18.444 19.0684C18.8015 18.1779 19.6176 17.2544 20.9895 17.2544C22.785 17.2544 23.5019 18.6221 23.5019 20.6304V28.6159H28.4626V20.054C28.4626 15.4672 26.0164 13.3349 22.7519 13.3349C20.1197 13.3349 18.9399 14.7812 18.2788 15.7998V15.8515H18.2457L18.2788 15.7998V13.6883H13.3201C13.3821 15.0891 13.3201 28.6159 13.3201 28.6159H18.2788Z" fill="#F79D1D"/>
</g>
<defs>
<clipPath id="clip0_418_220">
<rect width="33.0578" height="33.0578" fill="white" transform="translate(0.404785 0.942383)"/>
</clipPath>
</defs>
</svg>
