<svg width="24" height="24" viewBox="0 0 24 24" fill="none" xmlns="http://www.w3.org/2000/svg">
<path fill-rule="evenodd" clip-rule="evenodd" d="M17.986 5.4236C14.0078 4.97897 9.99232 4.97897 6.01404 5.4236C5.95305 5.43059 5.89505 5.45383 5.8461 5.49088C5.79715 5.52792 5.75904 5.57743 5.73575 5.63423C5.71246 5.69103 5.70484 5.75304 5.71368 5.81379C5.72253 5.87454 5.74751 5.9318 5.78604 5.9796L9.30304 10.3276C10.5628 11.885 11.2501 13.8275 11.25 15.8306V18.7196L12.75 19.8196V15.8296C12.7502 13.8268 13.4375 11.8847 14.697 10.3276L18.214 5.9796C18.2526 5.9318 18.2775 5.87454 18.2864 5.81379C18.2952 5.75304 18.2876 5.69103 18.2643 5.63423C18.241 5.57743 18.2029 5.52792 18.154 5.49088C18.105 5.45383 18.047 5.43059 17.986 5.4236ZM5.84804 3.9326C9.93697 3.47559 14.0641 3.47559 18.153 3.9326C19.599 4.0946 20.296 5.7906 19.381 6.9226L15.864 11.2706C14.8199 12.561 14.2501 14.1707 14.25 15.8306V21.2996C14.2501 21.4383 14.2118 21.5743 14.1392 21.6925C14.0667 21.8107 13.9627 21.9065 13.839 21.9692C13.7153 22.0319 13.5766 22.059 13.4384 22.0476C13.3002 22.0362 13.1678 21.9867 13.056 21.9046L10.056 19.7046C9.96111 19.6349 9.88393 19.5438 9.83077 19.4387C9.77761 19.3335 9.74995 19.2174 9.75004 19.0996V15.8296C9.75004 14.1696 9.18004 12.5606 8.13704 11.2696L4.62004 6.9236C3.70404 5.7916 4.40004 4.0946 5.84804 3.9326Z" fill="white"/>
</svg>
