<svg width="32" height="32" viewBox="0 0 32 32" fill="none" xmlns="http://www.w3.org/2000/svg">
<path d="M6.66665 25.334H8.13065L22.3946 11.07L20.9306 9.60601L6.66665 23.87V25.334ZM5.33331 26.6673V23.3073L22.9066 5.71801C23.0435 5.59623 23.1946 5.50201 23.36 5.43534C23.5253 5.36867 23.6973 5.33489 23.876 5.334C24.0546 5.33312 24.228 5.36112 24.396 5.41801C24.564 5.47489 24.7195 5.57712 24.8626 5.72467L26.284 7.154C26.4315 7.29623 26.532 7.45178 26.5853 7.62067C26.6386 7.78956 26.6658 7.95934 26.6666 8.13001C26.6666 8.31045 26.636 8.48334 26.5746 8.64867C26.5133 8.81401 26.4164 8.96467 26.284 9.10067L8.69331 26.6673H5.33331ZM21.6493 10.35L20.9306 9.60601L22.3946 11.07L21.6493 10.35Z" fill="#233E83"/>
</svg>
