<svg width="28" height="28" viewBox="0 0 28 28" fill="none" xmlns="http://www.w3.org/2000/svg">
<path d="M21 22.1667C21 23.0949 20.6312 23.9852 19.9749 24.6415C19.3185 25.2979 18.4282 25.6667 17.5 25.6667H9.33332C8.40507 25.6667 7.51483 25.2979 6.85845 24.6415C6.20207 23.9852 5.83332 23.0949 5.83332 22.1667V8.16667H4.66666V4.66667H9.91666L11.0833 3.5H15.75L16.9167 4.66667H22.1667V8.16667H21V22.1667ZM6.99999 8.16667V22.1667C6.99999 22.7855 7.24582 23.379 7.68341 23.8166C8.12099 24.2542 8.71448 24.5 9.33332 24.5H17.5C18.1188 24.5 18.7123 24.2542 19.1499 23.8166C19.5875 23.379 19.8333 22.7855 19.8333 22.1667V8.16667H6.99999ZM21 7V5.83333H16.3333L15.1667 4.66667H11.6667L10.5 5.83333H5.83332V7H21ZM9.33332 10.5H10.5V22.1667H9.33332V10.5ZM16.3333 10.5H17.5V22.1667H16.3333V10.5Z" fill="#FA150A"/>
</svg>
