<svg width="28" height="29" viewBox="0 0 28 29" fill="none" xmlns="http://www.w3.org/2000/svg">
<path d="M22.3594 6.73471H19.2645L17.737 4.4418C17.678 4.35337 17.5981 4.2809 17.5043 4.23082C17.4105 4.18075 17.3058 4.15463 17.1995 4.15479H10.3197C10.2134 4.15463 10.1087 4.18075 10.0149 4.23082C9.92117 4.2809 9.84123 4.35337 9.78223 4.4418L8.25362 6.73471H5.15986C4.53264 6.73471 3.93111 6.98388 3.48759 7.42739C3.04408 7.8709 2.79492 8.47243 2.79492 9.09965V21.1393C2.79492 21.7665 3.04408 22.3681 3.48759 22.8116C3.93111 23.2551 4.53264 23.5042 5.15986 23.5042H22.3594C22.9866 23.5042 23.5881 23.2551 24.0316 22.8116C24.4751 22.3681 24.7243 21.7665 24.7243 21.1393V9.09965C24.7243 8.47243 24.4751 7.8709 24.0316 7.42739C23.5881 6.98388 22.9866 6.73471 22.3594 6.73471ZM23.4343 21.1393C23.4343 21.4244 23.3211 21.6978 23.1195 21.8994C22.9179 22.101 22.6445 22.2143 22.3594 22.2143H5.15986C4.87476 22.2143 4.60133 22.101 4.39974 21.8994C4.19814 21.6978 4.08489 21.4244 4.08489 21.1393V9.09965C4.08489 8.81455 4.19814 8.54112 4.39974 8.33953C4.60133 8.13793 4.87476 8.02468 5.15986 8.02468H8.59976C8.70606 8.02484 8.81076 7.99871 8.90453 7.94864C8.9983 7.89857 9.07825 7.82609 9.13724 7.73766L10.6648 5.44475H16.8534L18.382 7.73766C18.441 7.82609 18.5209 7.89857 18.6147 7.94864C18.7085 7.99871 18.8132 8.02484 18.9195 8.02468H22.3594C22.6445 8.02468 22.9179 8.13793 23.1195 8.33953C23.3211 8.54112 23.4343 8.81455 23.4343 9.09965V21.1393ZM13.7596 10.1746C12.8667 10.1746 11.9938 10.4394 11.2513 10.9355C10.5088 11.4316 9.93014 12.1367 9.58842 12.9617C9.2467 13.7867 9.15729 14.6945 9.33149 15.5703C9.5057 16.4461 9.9357 17.2506 10.5671 17.882C11.1985 18.5134 12.003 18.9434 12.8788 19.1176C13.7546 19.2918 14.6624 19.2024 15.4874 18.8607C16.3124 18.519 17.0175 17.9403 17.5136 17.1978C18.0097 16.4554 18.2745 15.5824 18.2745 14.6895C18.2745 13.4921 17.7988 12.3437 16.9521 11.497C16.1054 10.6503 14.957 10.1746 13.7596 10.1746ZM13.7596 17.9144C13.1218 17.9144 12.4983 17.7253 11.968 17.3709C11.4376 17.0165 11.0243 16.5129 10.7802 15.9236C10.5361 15.3343 10.4722 14.6859 10.5967 14.0603C10.7211 13.4348 11.0282 12.8601 11.4793 12.4091C11.9303 11.9581 12.5049 11.651 13.1305 11.5265C13.756 11.4021 14.4045 11.466 14.9937 11.7101C15.583 11.9541 16.0867 12.3675 16.441 12.8978C16.7954 13.4282 16.9845 14.0517 16.9845 14.6895C16.9845 15.5448 16.6448 16.3651 16.04 16.9698C15.4352 17.5746 14.6149 17.9144 13.7596 17.9144Z" fill="black"/>
</svg>
