<svg width="23" height="23" viewBox="0 0 23 23" fill="none" xmlns="http://www.w3.org/2000/svg">
<path d="M11.25 15C12.2446 15 13.1984 14.6049 13.9017 13.9017C14.6049 13.1984 15 12.2446 15 11.25C15 10.2554 14.6049 9.30161 13.9017 8.59835C13.1984 7.89509 12.2446 7.5 11.25 7.5C10.2554 7.5 9.30161 7.89509 8.59835 8.59835C7.89509 9.30161 7.5 10.2554 7.5 11.25C7.5 12.2446 7.89509 13.1984 8.59835 13.9017C9.30161 14.6049 10.2554 15 11.25 15Z" fill="#233E83"/>
<path fill-rule="evenodd" clip-rule="evenodd" d="M11.25 0C11.5815 0 11.8995 0.131696 12.1339 0.366116C12.3683 0.600537 12.5 0.918479 12.5 1.25V2.5875C14.3699 2.85779 16.1023 3.72574 17.4383 5.06173C18.7743 6.39772 19.6422 8.13006 19.9125 10H21.25C21.5815 10 21.8995 10.1317 22.1339 10.3661C22.3683 10.6005 22.5 10.9185 22.5 11.25C22.5 11.5815 22.3683 11.8995 22.1339 12.1339C21.8995 12.3683 21.5815 12.5 21.25 12.5H19.9125C19.6422 14.3699 18.7743 16.1023 17.4383 17.4383C16.1023 18.7743 14.3699 19.6422 12.5 19.9125V21.25C12.5 21.5815 12.3683 21.8995 12.1339 22.1339C11.8995 22.3683 11.5815 22.5 11.25 22.5C10.9185 22.5 10.6005 22.3683 10.3661 22.1339C10.1317 21.8995 10 21.5815 10 21.25V19.9125C8.13006 19.6422 6.39772 18.7743 5.06173 17.4383C3.72574 16.1023 2.85779 14.3699 2.5875 12.5H1.25C0.918479 12.5 0.600537 12.3683 0.366116 12.1339C0.131696 11.8995 0 11.5815 0 11.25C0 10.9185 0.131696 10.6005 0.366116 10.3661C0.600537 10.1317 0.918479 10 1.25 10H2.5875C2.85798 8.13013 3.726 6.39791 5.06195 5.06195C6.39791 3.726 8.13013 2.85798 10 2.5875V1.25C10 0.918479 10.1317 0.600537 10.3661 0.366116C10.6005 0.131696 10.9185 0 11.25 0ZM5 11.25C5 9.5924 5.65848 8.00268 6.83058 6.83058C8.00268 5.65848 9.5924 5 11.25 5C12.9076 5 14.4973 5.65848 15.6694 6.83058C16.8415 8.00268 17.5 9.5924 17.5 11.25C17.5 12.9076 16.8415 14.4973 15.6694 15.6694C14.4973 16.8415 12.9076 17.5 11.25 17.5C9.5924 17.5 8.00268 16.8415 6.83058 15.6694C5.65848 14.4973 5 12.9076 5 11.25Z" fill="#233E83"/>
</svg>
