<svg width="13" height="15" viewBox="0 0 13 15" fill="none" xmlns="http://www.w3.org/2000/svg">
<path d="M6.50186 0.601759C6.61135 0.443276 6.75201 0.309274 6.91507 0.208115C7.07813 0.106955 7.26009 0.0408089 7.4496 0.0138028C7.6391 -0.0132034 7.83209 -0.00048973 8.01651 0.0511505C8.20094 0.102791 8.37284 0.192249 8.5215 0.313945L11.5579 2.80303C11.8292 3.02531 12.0079 3.34242 12.0585 3.69146C12.109 4.04051 12.0278 4.396 11.8309 4.68742H10.6981L11.0602 4.16335C11.1276 4.06628 11.1561 3.94702 11.1399 3.8296C11.1237 3.71218 11.064 3.60532 10.9729 3.53053L9.40921 2.2499L7.7415 4.68742H6.61143L8.68586 1.65739L7.93557 1.04239C7.88604 1.00181 7.82875 0.971967 7.76729 0.954729C7.70583 0.937491 7.64151 0.933226 7.57834 0.942198C7.51517 0.951171 7.45451 0.973189 7.40015 1.00688C7.34578 1.04057 7.29888 1.08521 7.26236 1.13801L4.81 4.68648H3.67714L6.50186 0.601759ZM9.75 10.3125C9.62686 10.3125 9.50877 10.3618 9.4217 10.4498C9.33463 10.5377 9.28571 10.6569 9.28571 10.7812C9.28571 10.9055 9.33463 11.0248 9.4217 11.1127C9.50877 11.2006 9.62686 11.25 9.75 11.25H10.6786C10.8017 11.25 10.9198 11.2006 11.0069 11.1127C11.0939 11.0248 11.1429 10.9055 11.1429 10.7812C11.1429 10.6569 11.0939 10.5377 11.0069 10.4498C10.9198 10.3618 10.8017 10.3125 10.6786 10.3125H9.75ZM1.39286 3.74991H3.40693L2.75693 4.68742H1.39286C1.26972 4.68742 1.15163 4.7368 1.06456 4.82471C0.977487 4.91262 0.928571 5.03185 0.928571 5.15617C0.928571 5.28049 0.977487 5.39972 1.06456 5.48763C1.15163 5.57554 1.26972 5.62492 1.39286 5.62492H11.1429C11.6354 5.62492 12.1078 5.82247 12.4561 6.1741C12.8043 6.52574 13 7.00265 13 7.49994V13.125C13 13.6223 12.8043 14.0992 12.4561 14.4508C12.1078 14.8025 11.6354 15 11.1429 15H2.32143C1.70575 15 1.11528 14.7531 0.679931 14.3135C0.244578 13.874 0 13.2778 0 12.6562V5.15617C0 4.78321 0.146747 4.42552 0.407958 4.16179C0.66917 3.89807 1.02345 3.74991 1.39286 3.74991ZM0.928571 12.6562C0.928571 13.0292 1.07532 13.3869 1.33653 13.6506C1.59774 13.9143 1.95202 14.0625 2.32143 14.0625H11.1429C11.3891 14.0625 11.6253 13.9637 11.7995 13.7879C11.9736 13.6121 12.0714 13.3736 12.0714 13.125V7.49994C12.0714 7.2513 11.9736 7.01284 11.7995 6.83702C11.6253 6.66121 11.3891 6.56243 11.1429 6.56243H1.39286C1.22943 6.56181 1.07467 6.53524 0.928571 6.48274V12.6562Z" fill="#CC841D"/>
</svg>
