<svg width="74" height="75" viewBox="0 0 74 75" fill="none" xmlns="http://www.w3.org/2000/svg">
<path d="M17.0333 6.09161C17.102 5.21097 17.3514 4.35394 17.7661 3.57399C18.1807 2.79404 18.7516 2.10791 19.4432 1.55841C20.1348 1.0089 20.9322 0.607818 21.7857 0.380181C22.6392 0.152545 23.5304 0.10324 24.4038 0.235342L42.2509 2.94695C43.8452 3.18875 45.2905 4.02095 46.3 5.27848C47.3095 6.53601 47.8095 8.12702 47.7009 9.73596L43.1928 12.3845L43.4203 9.47227C43.4638 8.93206 43.3009 8.39545 42.9646 7.9705C42.6282 7.54556 42.1433 7.26385 41.6076 7.1821L32.4194 5.79041L31.4274 19.2969L26.9304 21.939L28.1688 5.14625L23.759 4.47637C23.4679 4.43223 23.1708 4.44854 22.8863 4.52429C22.6018 4.60005 22.336 4.73362 22.1054 4.91666C21.8748 5.09971 21.6844 5.32831 21.5461 5.58821C21.4077 5.8481 21.3245 6.13371 21.3014 6.42722L19.7596 26.1469L15.2515 28.7955L17.0333 6.09161ZM52.4458 36.7721C51.9558 37.06 51.6002 37.5307 51.4573 38.0808C51.3144 38.6309 51.3958 39.2152 51.6837 39.7052C51.9716 40.1952 52.4424 40.5508 52.9924 40.6937C53.5425 40.8366 54.1268 40.7552 54.6168 40.4673L58.312 38.2963C58.802 38.0084 59.1576 37.5377 59.3005 36.9876C59.4434 36.4375 59.362 35.8532 59.0741 35.3632C58.7862 34.8732 58.3154 34.5176 57.7654 34.3747C57.2153 34.2318 56.631 34.3132 56.141 34.6011L52.4458 36.7721ZM3.99257 30.4446L12.0074 25.7358L11.5917 30.9507L6.16354 34.1398C5.67353 34.4277 5.31795 34.8984 5.17503 35.4485C5.03211 35.9986 5.11355 36.5829 5.40144 37.0729C5.68933 37.5629 6.16008 37.9185 6.71014 38.0614C7.2602 38.2043 7.8445 38.1229 8.33451 37.835L47.1337 15.0398C49.0938 13.8883 51.431 13.5625 53.6312 14.1342C55.8314 14.7059 57.7145 16.1282 58.866 18.0882L71.8918 40.2592C73.0434 42.2193 73.3691 44.5565 72.7974 46.7567C72.2258 48.9569 70.8035 50.8399 68.8434 51.9915L33.7393 72.6157C31.2893 74.0551 28.3678 74.4623 25.6175 73.7477C22.8672 73.0331 20.5135 71.2552 19.074 68.8052L1.70628 39.2438C0.842611 37.7738 0.598287 36.0209 1.02705 34.3707C1.45581 32.7206 2.52255 31.3083 3.99257 30.4446ZM22.7692 66.6342C23.6328 68.1042 25.0451 69.171 26.6953 69.5997C28.3454 70.0285 30.0984 69.7842 31.5684 68.9205L66.6725 48.2963C67.6525 47.7205 68.3636 46.779 68.6495 45.6789C68.9353 44.5788 68.7724 43.4102 68.1966 42.4302L55.1708 20.2592C54.5951 19.2792 53.6536 18.568 52.5535 18.2822C51.4533 17.9963 50.2847 18.1592 49.3047 18.735L10.5055 41.5301C9.85368 41.9098 9.17631 42.1669 8.47336 42.3015L22.7692 66.6342Z" fill="#233E83" fill-opacity="0.35"/>
</svg>
