<svg width="33" height="33" viewBox="0 0 33 33" fill="none" xmlns="http://www.w3.org/2000/svg">
<path d="M4.125 6.875V6.1875C3.94266 6.1875 3.7678 6.25993 3.63886 6.38886C3.50993 6.5178 3.4375 6.69266 3.4375 6.875H4.125ZM28.875 6.875H29.5625C29.5625 6.69266 29.4901 6.5178 29.3611 6.38886C29.2322 6.25993 29.0573 6.1875 28.875 6.1875V6.875ZM4.125 7.5625H28.875V6.1875H4.125V7.5625ZM28.1875 6.875V23.375H29.5625V6.875H28.1875ZM26.125 25.4375H6.875V26.8125H26.125V25.4375ZM4.8125 23.375V6.875H3.4375V23.375H4.8125ZM6.875 25.4375C6.32799 25.4375 5.80339 25.2202 5.41659 24.8334C5.0298 24.4466 4.8125 23.922 4.8125 23.375H3.4375C3.4375 24.2867 3.79966 25.161 4.44432 25.8057C5.08898 26.4503 5.96332 26.8125 6.875 26.8125V25.4375ZM28.1875 23.375C28.1875 23.922 27.9702 24.4466 27.5834 24.8334C27.1966 25.2202 26.672 25.4375 26.125 25.4375V26.8125C27.0367 26.8125 27.911 26.4503 28.5557 25.8057C29.2003 25.161 29.5625 24.2867 29.5625 23.375H28.1875Z" fill="#1E1E1E"/>
<path d="M4.125 6.875L16.5 19.25L28.875 6.875" stroke="#1E1E1E" stroke-linecap="round" stroke-linejoin="round"/>
</svg>
