<svg width="549" height="341" viewBox="0 0 549 341" fill="none" xmlns="http://www.w3.org/2000/svg">
<path d="M497.499 300.601C522.352 294.027 542.584 279.592 547.297 252.626C553.49 217.187 536.82 191.814 515.879 165.87C501.993 148.668 498.533 132.069 501.999 111.135C507.039 80.6954 514.339 52.3244 491.63 26.6267C476.593 9.61173 453.487 0.771989 430.932 1.59304C398.427 2.77642 377.758 24.7522 350.022 37.8764C323.914 50.2296 291.616 59.1189 262.962 51.356C227.771 41.8218 203.206 10.3415 165.151 8.30974C149.22 7.45922 132.278 12.5063 120.328 23.4374C107.733 34.958 102.208 52.7732 84.5434 58.4715C76.3817 61.1042 67.549 60.0629 59.0471 61.1298C24.4689 65.4691 11.4913 99.8109 16.1246 130.627C22.7623 174.776 35.0138 218.205 52.0063 259.474C56.8818 271.314 62.2429 283.126 70.1889 293.167C88.888 316.797 114.383 316.053 142.04 316.366C176.58 316.756 211.085 314.808 245.595 313.723C295.118 312.165 344.631 310.172 394.119 307.733C426.929 306.117 465.448 309.079 497.499 300.601Z" fill="#CED4E2"/>
<mask id="mask0_30_2769" style="mask-type:luminance" maskUnits="userSpaceOnUse" x="236" y="0" width="288" height="253">
<path d="M523.006 0H236.61V252.702H523.006V0Z" fill="white"/>
</mask>
<g mask="url(#mask0_30_2769)">
<path d="M337.912 42.911C337.961 40.2956 340.08 38.1434 342.678 38.1434H440.876C443.509 38.1434 446.095 40.408 446.095 43.059V280.008C446.095 281.284 445.365 282.507 444.468 283.407C443.571 284.308 442.243 284.812 440.976 284.808L338.305 284.526C337.027 284.523 335.776 284.003 334.883 283.084C333.989 282.164 333.485 280.894 333.509 279.607L337.912 42.911Z" fill="#BDD0FB"/>
<g opacity="0.5">
<path d="M410.229 66.0648L438.204 66.0272L438.426 51.5891H410.424L410.229 66.0648Z" fill="white"/>
<path d="M378.873 66.0578L406.819 66.0199L407.011 51.5891H379.037L378.873 66.0578Z" fill="white"/>
<path d="M347.548 66.0503L375.467 66.0127L375.628 51.5891H347.682L347.548 66.0503Z" fill="white"/>
<path d="M409.88 91.9807L437.806 91.9988L438.027 77.655L410.074 77.6434L409.88 91.9807Z" fill="white"/>
<path d="M378.578 91.9606L406.476 91.9785L406.667 77.6419L378.742 77.6303L378.578 91.9606Z" fill="white"/>
<path d="M347.308 91.9403L375.178 91.9582L375.338 77.6288L347.441 77.6172L347.308 91.9403Z" fill="white"/>
<path d="M409.531 117.718L437.408 117.748L437.629 103.454L409.725 103.431L409.531 117.718Z" fill="white"/>
<path d="M378.284 117.685L406.133 117.715L406.324 103.428L378.447 103.405L378.284 117.685Z" fill="white"/>
<path d="M347.068 117.652L374.89 117.682L375.049 103.402L347.201 103.379L347.068 117.652Z" fill="white"/>
<path d="M409.184 143.367L437.012 143.408L437.232 129.163L409.376 129.129L409.184 143.367Z" fill="white"/>
<path d="M377.991 143.321L405.792 143.362L405.981 129.124L378.153 129.09L377.991 143.321Z" fill="white"/>
<path d="M346.829 143.275L374.602 143.316L374.761 129.086L346.962 129.051L346.829 143.275Z" fill="white"/>
<path d="M408.838 168.927L436.618 168.979L436.837 154.784L409.03 154.738L408.838 168.927Z" fill="white"/>
<path d="M377.699 168.868L405.452 168.921L405.641 154.732L377.861 154.686L377.699 168.868Z" fill="white"/>
<path d="M346.591 168.81L374.316 168.862L374.475 154.681L346.723 154.635L346.591 168.81Z" fill="white"/>
<path d="M408.493 194.399L436.225 194.462L436.444 180.316L408.685 180.258L408.493 194.399Z" fill="white"/>
<path d="M377.409 194.327L405.113 194.391L405.302 180.252L377.57 180.195L377.409 194.327Z" fill="white"/>
<path d="M346.354 194.256L374.031 194.32L374.19 180.188L346.486 180.13L346.354 194.256Z" fill="white"/>
<path d="M408.149 219.783L435.834 219.857L436.051 205.76L408.34 205.691L408.149 219.783Z" fill="white"/>
<path d="M377.118 219.699L404.775 219.774L404.963 205.683L377.279 205.615L377.118 219.699Z" fill="white"/>
<path d="M346.118 219.616L373.747 219.69L373.905 205.606L346.249 205.538L346.118 219.616Z" fill="white"/>
<path d="M407.808 245.079L435.444 245.165L435.661 231.116L407.998 231.036L407.808 245.079Z" fill="white"/>
<path d="M376.83 244.983L404.439 245.069L404.626 231.027L376.99 230.947L376.83 244.983Z" fill="white"/>
<path d="M345.882 244.887L373.464 244.973L373.621 230.938L346.013 230.858L345.882 244.887Z" fill="white"/>
</g>
<path d="M424.767 118.102C424.81 116.638 426.671 115.433 428.951 115.433H515.143C517.454 115.433 519.723 116.7 519.723 118.184V250.792C519.723 251.506 519.083 252.19 518.296 252.695C517.508 253.198 516.342 253.481 515.23 253.479L425.112 253.321C423.991 253.319 422.893 253.028 422.108 252.513C421.324 251.999 420.882 251.288 420.903 250.568L424.767 118.102Z" fill="#91B3FA"/>
<g opacity="0.5">
<path d="M488.244 131.06L512.798 131.039L512.993 122.958H488.415L488.244 131.06Z" fill="white"/>
<path d="M460.722 131.056L485.251 131.034L485.419 122.958H460.866L460.722 131.056Z" fill="white"/>
<path d="M433.227 131.052L457.731 131.03L457.873 122.958H433.344L433.227 131.052Z" fill="white"/>
<path d="M487.937 145.563L512.448 145.573L512.642 137.546L488.107 137.54L487.937 145.563Z" fill="white"/>
<path d="M460.463 145.552L484.95 145.562L485.117 137.539L460.607 137.532L460.463 145.552Z" fill="white"/>
<path d="M433.016 145.541L457.478 145.551L457.619 137.531L433.133 137.525L433.016 145.541Z" fill="white"/>
<path d="M487.631 159.967L512.1 159.984L512.293 151.984L487.801 151.971L487.631 159.967Z" fill="white"/>
<path d="M460.204 159.949L484.648 159.965L484.815 151.97L460.347 151.957L460.204 159.949Z" fill="white"/>
<path d="M432.805 159.93L457.224 159.947L457.365 151.955L432.921 151.942L432.805 159.93Z" fill="white"/>
<path d="M487.326 174.322L511.752 174.344L511.945 166.373L487.495 166.353L487.326 174.322Z" fill="white"/>
<path d="M459.947 174.296L484.349 174.319L484.515 166.351L460.09 166.332L459.947 174.296Z" fill="white"/>
<path d="M432.596 174.27L456.973 174.293L457.113 166.329L432.712 166.31L432.596 174.27Z" fill="white"/>
<path d="M487.023 188.626L511.407 188.655L511.599 180.711L487.192 180.685L487.023 188.626Z" fill="white"/>
<path d="M459.691 188.593L484.051 188.623L484.217 180.682L459.834 180.656L459.691 188.593Z" fill="white"/>
<path d="M432.387 188.561L456.722 188.59L456.861 180.653L432.503 180.628L432.387 188.561Z" fill="white"/>
<path d="M486.72 202.881L511.061 202.917L511.253 195L486.888 194.968L486.72 202.881Z" fill="white"/>
<path d="M459.435 202.842L483.752 202.877L483.917 194.964L459.576 194.932L459.435 202.842Z" fill="white"/>
<path d="M432.178 202.802L456.471 202.837L456.61 194.928L432.293 194.896L432.178 202.802Z" fill="white"/>
<path d="M486.418 217.088L510.718 217.129L510.908 209.239L486.586 209.201L486.418 217.088Z" fill="white"/>
<path d="M459.181 217.041L483.456 217.082L483.621 209.196L459.322 209.158L459.181 217.041Z" fill="white"/>
<path d="M431.971 216.994L456.222 217.036L456.361 209.154L432.086 209.115L431.971 216.994Z" fill="white"/>
<path d="M486.117 231.245L510.375 231.293L510.565 223.43L486.284 223.386L486.117 231.245Z" fill="white"/>
<path d="M458.927 231.191L483.16 231.239L483.324 223.38L459.068 223.336L458.927 231.191Z" fill="white"/>
<path d="M431.764 231.137L455.973 231.185L456.111 223.33L431.879 223.286L431.764 231.137Z" fill="white"/>
<path d="M485.818 245.353L510.034 245.408L510.224 237.572L485.985 237.521L485.818 245.353Z" fill="white"/>
<path d="M458.675 245.293L482.867 245.347L483.03 237.515L458.815 237.464L458.675 245.293Z" fill="white"/>
<path d="M431.558 245.232L455.726 245.286L455.863 237.458L431.672 237.408L431.558 245.232Z" fill="white"/>
</g>
<path d="M250.029 132.76C250.057 131.93 251.307 131.262 252.839 131.262H345.757C347.31 131.262 348.959 131.951 348.959 132.792V250.331C348.959 250.96 348.303 251.562 347.482 252.005C346.662 252.449 345.452 252.697 344.293 252.696L250.357 252.557C249.188 252.555 248.045 252.299 247.227 251.846C246.409 251.393 245.949 250.78 245.971 250.147L250.029 132.76Z" fill="#91B3FA"/>
<g opacity="0.51">
<path d="M303.39 139.592L333.786 139.535L333.775 137.473L303.413 137.525L303.39 139.592Z" fill="white"/>
<path d="M303.307 147.184L333.827 147.109L333.816 145.031L303.33 145.101L303.307 147.184Z" fill="white"/>
<path d="M303.223 154.84L333.87 154.746L333.858 152.65L303.246 152.739L303.223 154.84Z" fill="white"/>
<path d="M303.138 162.559L333.912 162.445L333.9 160.333L303.161 160.441L303.138 162.559Z" fill="white"/>
<path d="M303.053 170.342L333.955 170.209L333.943 168.079L303.076 168.206L303.053 170.342Z" fill="white"/>
<path d="M302.88 186.105L334.041 185.932L334.029 183.766L302.904 183.933L302.88 186.105Z" fill="white"/>
<path d="M302.615 210.252L334.174 210.017L334.161 207.796L302.639 208.025L302.615 210.252Z" fill="white"/>
<path d="M302.967 178.191L333.998 178.038L333.986 175.89L302.99 176.037L302.967 178.191Z" fill="white"/>
<path d="M302.792 194.086L334.085 193.893L334.073 191.709L302.816 191.896L302.792 194.086Z" fill="white"/>
<path d="M302.704 202.135L334.129 201.921L334.117 199.718L302.728 199.926L302.704 202.135Z" fill="white"/>
<path d="M302.525 218.439L334.218 218.183L334.206 215.942L302.55 216.192L302.525 218.439Z" fill="white"/>
<path d="M302.434 226.696L334.263 226.418L334.251 224.158L302.459 224.43L302.434 226.696Z" fill="white"/>
<path d="M302.343 235.024L334.309 234.724L334.297 232.445L302.368 232.738L302.343 235.024Z" fill="white"/>
<path d="M302.25 243.424L334.355 243.102L334.343 240.803L302.276 241.119L302.25 243.424Z" fill="white"/>
<path d="M263.539 139.666L294.125 139.609L294.158 137.541L263.606 137.594L263.539 139.666Z" fill="white"/>
<path d="M263.291 147.283L294.004 147.207L294.037 145.122L263.359 145.193L263.291 147.283Z" fill="white"/>
<path d="M263.041 154.963L293.882 154.869L293.915 152.766L263.11 152.856L263.041 154.963Z" fill="white"/>
<path d="M262.789 162.708L293.758 162.594L293.792 160.474L262.858 160.583L262.789 162.708Z" fill="white"/>
<path d="M262.534 170.516L293.633 170.383L293.667 168.245L262.604 168.373L262.534 170.516Z" fill="white"/>
<path d="M262.019 186.331L293.381 186.158L293.416 183.984L262.09 184.152L262.019 186.331Z" fill="white"/>
<path d="M261.23 210.56L292.994 210.324L293.03 208.094L261.303 208.325L261.23 210.56Z" fill="white"/>
<path d="M262.278 178.391L293.508 178.237L293.542 176.082L262.348 176.23L262.278 178.391Z" fill="white"/>
<path d="M261.758 194.339L293.253 194.145L293.288 191.953L261.83 192.142L261.758 194.339Z" fill="white"/>
<path d="M261.495 202.415L293.124 202.2L293.16 199.99L261.567 200.199L261.495 202.415Z" fill="white"/>
<path d="M260.962 218.775L292.863 218.517L292.899 216.268L261.036 216.52L260.962 218.775Z" fill="white"/>
<path d="M260.692 227.06L292.731 226.78L292.767 224.512L260.766 224.786L260.692 227.06Z" fill="white"/>
<path d="M260.42 235.417L292.598 235.115L292.635 232.828L260.495 233.124L260.42 235.417Z" fill="white"/>
<path d="M260.146 243.847L292.463 243.522L292.5 241.215L260.221 241.533L260.146 243.847Z" fill="white"/>
</g>
</g>
<path d="M166.433 197.65C160.416 175.054 147.588 156.65 131.897 145.428C117.87 135.396 108.13 120.37 105.057 103.418C104.734 101.636 104.335 99.8458 103.857 98.0517C96.621 70.8767 74.1041 53.2808 53.5646 58.7501C33.0249 64.2194 22.2406 90.6828 29.4769 117.858C30.9567 123.415 33.0756 128.569 35.6861 133.208C44.0171 148.012 46.7337 165.408 42.6395 181.901C38.9807 196.641 38.9986 213.442 43.5094 230.382C50.2375 255.647 65.4813 275.674 83.7215 286.278C90.6208 290.289 96.7662 295.528 101.767 301.738C110.078 312.059 122.226 317.318 133.757 314.247C146.197 310.934 154.438 298.856 155.67 284.35C156.368 276.141 158.672 268.175 162.17 260.709C170.427 243.085 172.516 220.495 166.433 197.65Z" fill="#BDD0FB"/>
<path d="M68.4546 85.7439C75.9204 102.989 82.826 120.461 89.549 138.004C91.2317 142.389 92.8436 146.801 94.4697 151.207L96.908 157.817L99.291 164.447C100.863 168.874 102.495 173.278 104.017 177.723L108.582 191.055C111.512 199.982 114.517 208.884 117.281 217.865C118.669 222.353 120.144 226.814 121.441 231.331L125.394 244.86C130.482 262.951 135.117 281.179 138.821 299.605L138.029 299.773L134.733 286.092L133.916 282.671L133.014 279.271L131.198 272.473L129.395 265.674C128.798 263.407 128.117 261.162 127.482 258.904C126.182 254.398 124.918 249.882 123.588 245.385C118.155 227.428 112.483 209.543 106.443 191.778C103.356 182.918 100.344 174.033 97.1942 165.195L94.8504 158.559L92.4508 151.944C90.8536 147.532 89.2565 143.121 87.6146 138.726C84.4063 129.907 81.1349 121.111 77.7915 112.342C74.4943 103.556 71.1132 94.7979 67.7065 86.0548L68.4546 85.7439Z" fill="#4F52FF"/>
<path d="M103.433 242.538C93.9984 232.574 82.2342 226.672 71.0115 225.272C60.9789 224.02 51.7517 218.997 45.415 211.119C44.749 210.291 44.0413 209.479 43.2922 208.688C31.9449 196.705 15.4217 193.926 6.38656 202.481C-2.6486 211.037 -0.774364 227.687 10.573 239.67C12.8931 242.121 15.4297 244.185 18.0742 245.847C26.5145 251.149 32.7923 259.355 35.3126 268.998C37.5647 277.616 42.2869 286.269 49.3606 293.74C59.9105 304.881 73.3729 310.944 85.7341 311.314C90.4096 311.454 95.0415 312.438 99.3574 314.242C106.529 317.239 114.256 316.556 119.328 311.753C124.8 306.571 125.653 298.045 122.217 290.225C120.273 285.8 119.225 281.051 118.93 276.226C118.234 264.837 112.973 252.612 103.433 242.538Z" fill="#BDD0FB"/>
<path d="M21.6216 212.233C30.3014 219.035 38.7561 226.111 47.1371 233.274C49.2331 235.064 51.3003 236.887 53.3731 238.703L56.4822 241.429L59.5686 244.18C61.6189 246.023 63.6948 247.836 65.7244 249.702L71.8138 255.298C75.8258 259.08 79.8696 262.828 83.8114 266.684C85.7849 268.61 87.7953 270.496 89.7297 272.462L95.5594 278.33C103.253 286.232 110.751 294.331 117.827 302.793L117.466 303.101L111.932 296.971L110.552 295.436L109.134 293.935L106.292 290.939L103.457 287.939C102.514 286.938 101.534 285.971 100.574 284.985C98.6405 283.025 96.723 281.051 94.7773 279.105C86.9441 271.368 79.008 263.735 70.9161 256.267C66.8418 252.564 62.7994 248.826 58.699 245.151L55.6314 242.386L52.5407 239.647C50.4812 237.819 48.4217 235.992 46.3441 234.186C42.2193 230.537 38.0681 226.918 33.8878 223.333C29.726 219.725 25.5295 216.157 21.3237 212.602L21.6216 212.233Z" fill="#7D97F4"/>
<path d="M141.735 142.838C141.445 142.285 140.627 142.372 140.46 142.974C139.841 145.2 138.345 149.084 135.204 150.463C135.045 150.533 134.896 150.603 134.751 150.674C134.608 150.247 134.606 149.751 134.947 149.229C135.924 147.737 134.161 145.699 134.161 145.699C134.161 145.699 134.044 147.494 132.68 148.624C131.505 149.598 130.94 151.764 131.743 153.541C133.443 160.144 135.989 168.877 126.073 175.257C116.158 181.637 102.194 163.217 102.194 163.217L109.125 185.187C109.125 185.187 119.822 193.082 132.265 181.981C144.708 170.881 136.46 154.729 136.46 154.729C136.46 154.729 145.951 150.9 141.735 142.838Z" fill="#A22B25"/>
<path d="M100.458 130.935C100.458 130.935 103.331 118.049 88.5705 121.46C88.5705 121.46 81.4057 120.29 81.0412 127.052C81.0412 127.052 76.4229 130.095 79.8044 135.948C79.8044 135.948 66.079 130.646 60.0988 142.677C54.1186 154.707 59.6154 161.327 65.3782 163.051C65.3782 163.051 60.7094 165.396 62.9194 170.689C65.1294 175.981 76.321 179.713 82.9323 173.276C82.9323 173.276 101.744 175.762 101.368 162.474C101.368 162.474 110.117 156.824 100.927 145.843C91.7371 134.862 100.458 130.935 100.458 130.935Z" fill="#1E1E1E"/>
<path d="M101.269 160.803C98.3027 159.914 89.6665 158.272 81.4522 165.853C80.0589 167.138 79.4895 169.092 79.9864 170.921C82.1928 179.044 88.0141 203.042 82.9097 213.426C82.9097 213.426 91.9046 223.341 101.718 215.349C101.718 215.349 106.12 196.16 111.887 187.736C115.869 181.92 105.538 165.897 102.925 162.026C102.529 161.44 101.946 161.006 101.269 160.803Z" fill="#4F52FF"/>
<path d="M93.0794 144.665C93.0794 144.665 88.6928 157.073 88.3628 162.547C88.3628 162.547 93.2108 164.751 97.7791 161.03C97.7791 161.03 98.2584 148.637 98.9512 146.418L93.0794 144.665Z" fill="#A22B25"/>
<path d="M99.1721 127.748C99.1721 127.748 110.645 143.804 103.787 148.468C96.9288 153.131 88.7613 141.721 88.7613 141.721C88.7613 141.721 86.0991 132.933 88.8828 129.952C91.6665 126.97 99.1721 127.748 99.1721 127.748Z" fill="#A22B25"/>
<path d="M93.8617 123.911C93.8617 123.911 99.1325 125.16 99.8711 127.544C100.61 129.929 92.3967 132.141 90.0954 132.249L88.2412 141.873C88.2412 141.873 82.7598 132.82 84.9311 127.591C87.1025 122.363 93.8617 123.911 93.8617 123.911Z" fill="#1E1E1E"/>
<path d="M90.9855 140.539C90.9855 140.539 86.5196 135.367 84.7434 138.739C82.9673 142.111 88.7632 144.642 90.7695 142.987L90.9855 140.539Z" fill="#A22B25"/>
<path d="M113.173 255.639C113.139 256.51 114.669 263.42 115.501 267.106C115.836 268.588 115.603 270.14 114.848 271.46L86.0202 319.978C85.6714 320.565 85.4178 321.201 85.2635 321.866C84.7352 324.143 83.6395 329.723 84.2115 334.799L85.7028 337.896L79.2533 336.432L77.8501 319.111L79.676 317.998C81.2534 317.036 82.4817 315.598 83.1849 313.89C85.7915 307.558 92.2647 291.441 93.9331 283.586C95.8293 274.659 105.743 267.408 105.743 267.408L104.001 263.29L113.173 255.639Z" fill="#A22B25"/>
<path d="M72.0854 330.472C72.0854 330.472 75.5684 324.95 75.9781 322.8C76.3878 320.651 77.5287 316.855 79.6759 317.998C79.6759 317.998 80.6877 328.439 80.3389 332.519C79.9901 336.599 84.951 336.468 84.951 336.468C84.951 336.468 86.3182 336.66 87.3194 337.661C88.0107 338.352 87.5165 339.552 86.5409 339.614C84.9176 339.719 82.3388 339.746 79.6312 339.223C78.6848 339.04 77.9833 338.235 77.926 337.273L77.2113 325.256L72.8178 330.804L72.0854 330.472Z" fill="#1E1E1E"/>
<path d="M95.9521 263.368C95.9521 263.368 94.9354 306.767 94.7977 312.931C94.66 319.094 95.7709 332.754 101.95 336.837L99.2612 338.828C99.2612 338.828 95.9011 335.972 92.6184 330.475C88.9308 324.301 87.8155 323.172 87.8155 323.172L89.0393 320.667C89.575 319.569 89.7325 318.328 89.4857 317.133C88.1523 310.67 83.6977 289.174 82.4827 284.545C81.0484 279.081 80.9462 271.783 85.9365 265.675C90.9265 259.566 95.9521 263.368 95.9521 263.368Z" fill="#A22B25"/>
<path d="M90.2463 340.783C90.0547 340.785 89.8917 340.648 89.8646 340.458C89.6588 339.011 88.803 333.211 88.1024 331.709C87.3 329.988 84.6789 322.748 88.1039 322.134C88.1039 322.134 96.6185 334.574 98.2529 336.251C99.8872 337.928 101.95 336.837 101.95 336.837C101.95 336.837 103.543 337.307 104.744 338.842C105.315 339.572 104.783 340.645 103.855 340.654L98.1203 340.708C96.4547 340.724 94.9566 339.712 94.3375 338.166C93.328 335.645 91.5939 331.946 89.5728 330.305L90.6231 340.361C90.6463 340.585 90.4716 340.781 90.2463 340.783Z" fill="#1E1E1E"/>
<path d="M103.075 210.67C103.075 210.67 101.783 214.79 103.768 221.574L116.084 264.584C116.278 265.26 115.913 265.967 115.252 266.205C111.568 267.527 99.4567 271.264 82.9244 270.124C82.092 270.067 81.3942 269.477 81.213 268.663C80.1238 263.76 76.407 247.03 75.6417 243.593C72.7259 230.495 69.47 216.37 83.793 207.829C90.394 210.657 96.5508 212.323 103.075 210.67Z" fill="#4F52FF"/>
<path d="M80.2766 167.473C80.2766 167.473 66.2632 179.119 62.7855 195.033C59.3078 210.946 83.2624 212.638 83.2624 212.638C83.2624 212.638 86.5145 209.006 90.3751 210.301C94.2358 211.596 90.6741 203.964 86.1568 203.984C81.6397 204.004 83.732 207.576 77.3421 204.681C71.1172 201.861 67.2697 193.141 83.152 179.922C84.0726 179.156 84.8072 178.179 85.2495 177.066C88.3354 169.299 85.8882 164.208 80.2766 167.473Z" fill="#A22B25"/>
<path d="M157.372 140.968C179.531 153.572 198.029 152.786 218.947 141.793C220.301 141.081 221.123 139.653 221.05 138.126L221.008 137.241C220.88 134.536 218.115 132.771 215.607 133.792C197.443 141.194 183.783 145.253 161.039 134.03C158.535 132.795 155.58 134.505 155.393 137.291C155.292 138.795 156.062 140.223 157.372 140.968Z" fill="#4F52FF"/>
<path d="M161.571 151.182L149.338 133.846C148.966 133.318 149.292 132.583 149.933 132.505L170.195 130.026C170.948 129.933 171.521 130.689 171.229 131.39C166.601 137.811 163.994 144.361 163.053 151.018C162.796 151.637 161.958 151.73 161.571 151.182Z" fill="#4F52FF"/>
<path d="M216.594 30.717C193.547 16.4807 173.873 16.6038 151.236 27.4731C149.771 28.1766 148.843 29.6612 148.861 31.2861L148.872 32.2275C148.905 35.1046 151.773 37.0861 154.475 36.0974C174.049 28.9358 188.711 25.1508 212.433 37.9441C215.044 39.3524 218.249 37.6492 218.554 34.6986C218.719 33.1055 217.956 31.5588 216.594 30.717Z" fill="#4F52FF"/>
<path d="M212.528 19.7093L224.851 38.59C225.226 39.1651 224.852 39.9326 224.168 39.9913L202.556 41.8445C201.752 41.9133 201.172 41.0891 201.509 40.3558C206.672 33.7149 209.692 26.8591 210.947 19.8259C211.244 19.1788 212.138 19.1129 212.528 19.7093Z" fill="#4F52FF"/>
<path d="M162.626 44.857L152.187 116.14L185.423 121.007L195.862 49.7245L162.626 44.857Z" fill="#7D97F4"/>
<path opacity="0.5" d="M169.058 49.8067L188.076 52.5916C187.852 54.1223 189.064 55.6137 190.759 55.8618C190.812 55.8698 190.941 55.8864 190.942 55.8838L182.516 113.423C182.517 113.421 182.388 113.399 182.334 113.391C180.639 113.143 179.071 114.181 178.843 115.738C178.84 115.761 178.825 115.787 178.825 115.787L160.235 113.065C160.619 110.441 158.913 109.941 157.218 109.693C157.164 109.685 157.151 109.706 157.15 109.709L165.576 52.1691C165.576 52.1718 165.586 52.1754 165.64 52.1834C167.335 52.4319 168.834 51.3374 169.058 49.8067Z" fill="white"/>
<path d="M173.943 93.4416C179.779 93.4416 184.511 88.7101 184.511 82.8735C184.511 77.0369 179.779 72.3054 173.943 72.3054C168.106 72.3054 163.375 77.0369 163.375 82.8735C163.375 88.7101 168.106 93.4416 173.943 93.4416Z" fill="url(#paint0_linear_30_2769)"/>
<path d="M180.841 84.9634L179.736 84.8016C179.521 85.9475 179.082 87.0478 178.609 87.8056C178.44 88.0761 178.094 88.1761 177.801 88.0483L176.813 87.6167C176.45 87.4582 176.315 87.0188 176.519 86.6799C176.973 85.926 177.385 84.9733 177.542 83.9037C177.704 82.7935 177.449 81.9104 176.678 81.7974C175.981 81.6954 175.474 82.2744 174.834 83.7569C173.91 85.8702 172.718 87.3104 170.78 87.0266C169.03 86.7703 167.881 85.2951 167.849 83.0223L166.743 82.8605C166.387 82.8083 166.141 82.4776 166.193 82.1218L166.289 81.4722C166.341 81.1164 166.672 80.8703 167.027 80.9224L168.02 81.0679C168.219 80.0074 168.515 79.2579 168.822 78.6733C168.979 78.3738 169.344 78.2513 169.654 78.3861L170.569 78.784C170.921 78.9373 171.065 79.3593 170.878 79.6956C170.581 80.2316 170.24 81.0007 170.087 82.0433C169.895 83.3605 170.385 83.8165 170.874 83.8883C171.477 83.9764 172.006 83.2467 172.784 81.6116C173.876 79.2729 175.041 78.4057 176.866 78.6728C178.541 78.918 179.864 80.3804 179.888 82.844L181.126 83.0252C181.481 83.0774 181.727 83.4081 181.676 83.7639L181.58 84.4137C181.528 84.7695 181.197 85.0156 180.841 84.9634Z" fill="white"/>
<path d="M160.771 115.653C160.763 115.653 160.755 115.653 160.747 115.651L154.515 114.739C154.425 114.726 154.363 114.642 154.376 114.553L156.954 96.9497C156.967 96.8601 157.049 96.7944 157.14 96.8111C157.23 96.8241 157.292 96.9074 157.279 96.9971L154.725 114.438L160.794 115.327C160.884 115.34 160.946 115.423 160.933 115.513C160.921 115.594 160.851 115.653 160.771 115.653Z" fill="url(#paint1_linear_30_2769)"/>
<path d="M191.158 69.0654C191.15 69.0654 191.142 69.0649 191.133 69.0635C191.044 69.0504 190.982 68.9671 190.995 68.8775L193.517 51.6553L187.01 50.7026C186.92 50.6895 186.858 50.6062 186.871 50.5166C186.884 50.4269 186.967 50.362 187.057 50.3782L193.727 51.3545C193.77 51.3608 193.809 51.3838 193.834 51.4188C193.861 51.4538 193.872 51.4975 193.865 51.5405L191.32 68.9248C191.308 69.0065 191.238 69.0654 191.158 69.0654Z" fill="white"/>
<path d="M160.355 42.0672L149.915 113.35L183.37 118.25L193.809 46.9668L160.355 42.0672Z" fill="#91B3FA"/>
<path opacity="0.5" d="M166.852 47.0269L185.87 49.8118C185.646 51.3425 186.935 52.836 188.63 53.0841C188.684 53.0921 188.672 53.0788 188.891 53.108L180.466 110.648C180.247 110.613 180.261 110.612 180.207 110.605C178.512 110.356 176.904 111.398 176.677 112.954C176.673 112.977 176.619 113.008 176.619 113.008L158.029 110.285C158.413 107.661 156.676 107.147 154.981 106.899C154.927 106.891 154.882 106.899 154.881 106.902L163.307 49.362C163.307 49.3646 163.348 49.3823 163.402 49.39C165.097 49.6381 166.628 48.5574 166.852 47.0269Z" fill="white"/>
<path d="M171.739 90.6437C177.576 90.6437 182.308 85.9122 182.308 80.0756C182.308 74.239 177.576 69.5075 171.739 69.5075C165.903 69.5075 161.171 74.239 161.171 80.0756C161.171 85.9122 165.903 90.6437 171.739 90.6437Z" fill="url(#paint2_linear_30_2769)"/>
<path d="M178.638 82.1655L177.533 82.0036C177.318 83.1496 176.879 84.2496 176.406 85.0076C176.237 85.2782 175.891 85.3782 175.599 85.2504L174.61 84.8187C174.247 84.6603 174.112 84.2209 174.316 83.882C174.771 83.1281 175.182 82.1754 175.339 81.1058C175.501 79.9956 175.246 79.1124 174.475 78.9996C173.778 78.8977 173.271 79.4767 172.631 80.9591C171.706 83.0725 170.515 84.5127 168.577 84.2288C166.827 83.9725 165.678 82.4974 165.646 80.2246L164.54 80.0625C164.184 80.0103 163.938 79.6796 163.99 79.324L164.086 78.6745C164.138 78.3187 164.468 78.0725 164.824 78.1247L165.817 78.2701C166.016 77.2097 166.312 76.4602 166.619 75.8756C166.776 75.5761 167.141 75.4536 167.451 75.5884L168.366 75.9862C168.719 76.1396 168.863 76.5616 168.676 76.8979C168.378 77.4336 168.037 78.203 167.885 79.2455C167.692 80.5627 168.182 81.0188 168.672 81.0905C169.274 81.1787 169.803 80.449 170.581 78.8139C171.673 76.4751 172.838 75.6079 174.664 75.8751C176.338 76.1203 177.662 77.5827 177.685 80.0463L178.923 80.2275C179.278 80.2796 179.525 80.6103 179.472 80.9661L179.377 81.6159C179.325 81.9713 178.994 82.2176 178.638 82.1655Z" fill="white"/>
<path d="M158.75 112.677C158.742 112.677 158.734 112.676 158.726 112.675L152.275 111.73C152.232 111.724 152.193 111.701 152.167 111.666C152.141 111.631 152.13 111.587 152.136 111.544L154.682 94.1602C154.695 94.0706 154.778 94.0049 154.868 94.0216C154.958 94.0346 155.02 94.118 155.007 94.2076L152.485 111.43L158.773 112.351C158.863 112.364 158.925 112.447 158.912 112.537C158.9 112.618 158.83 112.677 158.75 112.677Z" fill="url(#paint3_linear_30_2769)"/>
<path d="M188.886 66.276C188.878 66.276 188.87 66.2755 188.862 66.2741C188.772 66.261 188.71 66.1777 188.723 66.0881L191.245 48.8661L184.957 47.945C184.867 47.932 184.805 47.8487 184.818 47.759C184.831 47.6694 184.914 47.6037 185.004 47.6204L191.455 48.5651C191.545 48.5782 191.607 48.6615 191.594 48.7511L189.048 66.1354C189.036 66.2171 188.966 66.276 188.886 66.276Z" fill="white"/>
<path d="M170.513 37.8542L139.065 102.674L169.487 117.434L200.935 52.6136L170.513 37.8542Z" fill="#7D97F4"/>
<path opacity="0.5" d="M175.236 44.5642L192.529 52.9539C191.854 54.3458 192.611 56.1661 194.152 56.9138C194.201 56.9374 194.172 56.929 194.372 57.0229L168.988 109.344C168.791 109.245 168.819 109.256 168.77 109.232C167.228 108.484 165.396 108.981 164.709 110.397C164.699 110.417 164.653 110.419 164.653 110.419L147.749 102.218C148.907 99.8315 147.383 98.8252 145.842 98.0776C145.793 98.0539 145.725 98.0549 145.724 98.0573L171.108 45.7362C171.106 45.7387 171.163 45.7604 171.212 45.7841C172.753 46.5324 174.56 45.9561 175.236 44.5642Z" fill="white"/>
<path d="M174.529 68.0698C179.78 70.6175 181.972 76.9395 179.424 82.1909C176.877 87.4421 170.555 89.634 165.303 87.0863C160.052 84.5386 157.86 78.2163 160.408 72.9651C162.956 67.714 169.278 65.5223 174.529 68.0698Z" fill="#7D97F4"/>
<path d="M175.864 81.6505L174.859 81.1628C174.309 82.1907 173.558 83.1071 172.879 83.6871C172.636 83.8941 172.276 83.8849 172.036 83.6752L171.223 82.9656C170.925 82.7052 170.929 82.2452 171.226 81.9836C171.886 81.4017 172.566 80.6174 173.038 79.6449C173.528 78.6354 173.551 77.7165 172.849 77.3762C172.216 77.0692 171.557 77.4682 170.5 78.6886C168.982 80.4249 167.411 81.4387 165.649 80.5838C164.058 79.8118 163.408 78.0588 164.062 75.8822L163.056 75.3942C162.733 75.2372 162.598 74.8478 162.755 74.5241L163.041 73.9335C163.198 73.6099 163.588 73.4751 163.912 73.6318L164.814 74.0698C165.324 73.1188 165.832 72.4934 166.3 72.0284C166.541 71.7902 166.926 71.7835 167.181 72.0054L167.933 72.6605C168.223 72.9132 168.233 73.3589 167.953 73.6231C167.508 74.0444 166.951 74.6751 166.491 75.623C165.91 76.8206 166.24 77.4035 166.685 77.6194C167.233 77.8852 167.958 77.3491 169.192 76.0245C170.939 74.1239 172.311 73.6483 173.971 74.4534C175.493 75.1921 176.314 76.9854 175.594 79.3415L176.719 79.8874C177.043 80.0444 177.178 80.4338 177.021 80.7575L176.735 81.3483C176.577 81.6725 176.188 81.8075 175.864 81.6505Z" fill="#4F52FF"/>
<path d="M147.638 104.908C147.614 104.908 147.59 104.903 147.567 104.892L141.701 102.046C141.619 102.006 141.585 101.908 141.625 101.827L149.39 85.8202C149.43 85.7386 149.528 85.705 149.609 85.7442C149.691 85.7838 149.725 85.8818 149.685 85.9633L141.992 101.822L147.71 104.596C147.791 104.636 147.825 104.734 147.786 104.815C147.758 104.874 147.699 104.908 147.638 104.908Z" fill="#BDD0FB"/>
<path d="M190.46 69.5541C190.435 69.5541 190.411 69.5488 190.388 69.5377C190.306 69.4981 190.272 69.4 190.312 69.3186L197.909 53.6585L192.191 50.8845C192.109 50.8449 192.075 50.7468 192.115 50.6654C192.155 50.5835 192.253 50.55 192.334 50.5893L198.2 53.4349C198.239 53.4539 198.269 53.4875 198.283 53.5288C198.297 53.5699 198.295 53.6151 198.276 53.6542L190.607 69.4619C190.579 69.5203 190.52 69.5541 190.46 69.5541Z" fill="#BDD0FB"/>
<path d="M162.681 94.7315C164.169 95.453 164.789 97.2439 164.068 98.7314C163.346 100.219 161.555 100.84 160.068 100.118C158.58 99.3964 157.96 97.6055 158.681 96.118C159.403 94.6308 161.194 94.01 162.681 94.7315Z" fill="#7D97F4"/>
<path d="M182.34 54.2095C183.828 54.931 184.449 56.7219 183.727 58.2094C183.005 59.6969 181.215 60.3177 179.727 59.5962C178.24 58.8747 177.619 57.0838 178.34 55.5963C179.062 54.1088 180.853 53.4877 182.34 54.2095Z" fill="#7D97F4"/>
<path d="M174.971 113.174C179.944 113.174 183.976 109.142 183.976 104.169C183.976 99.1949 179.944 95.1629 174.971 95.1629C169.997 95.1629 165.965 99.1949 165.965 104.169C165.965 109.142 169.997 113.174 174.971 113.174Z" fill="#4F52FF"/>
<path d="M174.971 112.875C179.779 112.875 183.677 108.977 183.677 104.169C183.677 99.3601 179.779 95.4622 174.971 95.4622C170.162 95.4622 166.264 99.3601 166.264 104.169C166.264 108.977 170.162 112.875 174.971 112.875Z" fill="#4F52FF"/>
<path opacity="0.68" d="M167.07 104.595C167.031 104.616 166.987 104.628 166.94 104.629C166.779 104.632 166.646 104.505 166.643 104.344C166.579 101.18 168.274 98.2939 171.068 96.8117C171.514 96.5753 171.981 96.3786 172.458 96.2272C172.611 96.1784 172.775 96.2632 172.824 96.4163C172.872 96.5697 172.789 96.734 172.634 96.782C172.191 96.9231 171.756 97.1062 171.341 97.3263C168.742 98.7046 167.165 101.389 167.225 104.332C167.227 104.446 167.164 104.545 167.07 104.595Z" fill="white"/>
<path opacity="0.68" d="M177.904 111.107C181.697 109.632 183.575 105.361 182.1 101.568C180.625 97.7753 176.354 95.8965 172.561 97.3717C168.768 98.847 166.889 103.118 168.365 106.911C169.84 110.704 174.111 112.583 177.904 111.107Z" fill="white"/>
<path d="M177.155 109.426L176.78 108.717C176.026 109.079 175.203 109.292 174.564 109.341C174.336 109.358 174.131 109.2 174.081 108.977L173.911 108.222C173.848 107.945 174.045 107.68 174.328 107.654C174.957 107.597 175.682 107.431 176.368 107.067C177.079 106.69 177.481 106.168 177.219 105.673C176.982 105.228 176.432 105.18 175.303 105.439C173.688 105.801 172.349 105.724 171.691 104.482C171.096 103.361 171.462 102.071 172.763 101.088L172.387 100.379C172.266 100.151 172.353 99.8686 172.581 99.7476L172.997 99.5268C173.225 99.4058 173.508 99.4928 173.629 99.7206L173.966 100.357C174.664 100.022 175.223 99.8744 175.691 99.8039C175.931 99.7677 176.157 99.9268 176.211 100.164L176.369 100.861C176.43 101.131 176.247 101.393 175.973 101.428C175.537 101.483 174.947 101.612 174.28 101.967C173.436 102.414 173.38 102.892 173.547 103.205C173.751 103.591 174.398 103.588 175.674 103.343C177.49 102.982 178.486 103.288 179.107 104.457C179.676 105.529 179.392 106.916 177.977 107.975L178.397 108.768C178.518 108.996 178.431 109.278 178.204 109.399L177.787 109.62C177.559 109.74 177.276 109.653 177.155 109.426Z" fill="#4F52FF"/>
<path d="M192.611 98.3981C201.269 98.3981 208.289 91.379 208.289 82.7206C208.289 74.0622 201.269 67.0432 192.611 67.0432C183.953 67.0432 176.934 74.0622 176.934 82.7206C176.934 91.379 183.953 98.3981 192.611 98.3981Z" fill="#4F52FF"/>
<path d="M192.611 97.8768C200.982 97.8768 207.767 91.0912 207.767 82.7206C207.767 74.3501 200.982 67.5645 192.611 67.5645C184.241 67.5645 177.455 74.3501 177.455 82.7206C177.455 91.0912 184.241 97.8768 192.611 97.8768Z" fill="#4F52FF"/>
<path opacity="0.68" d="M178.757 83.273C178.718 83.2936 178.674 83.3059 178.627 83.3069C178.466 83.3102 178.333 83.1825 178.33 83.0218C178.22 77.5953 181.127 72.6455 185.918 70.1039C186.683 69.6983 187.485 69.3609 188.303 69.1017C188.456 69.0529 188.62 69.1377 188.669 69.2911C188.717 69.4442 188.633 69.6094 188.479 69.6565C187.695 69.9056 186.925 70.2293 186.191 70.6184C181.596 73.0564 178.806 77.8047 178.912 83.01C178.914 83.1233 178.851 83.223 178.757 83.273Z" fill="white"/>
<path opacity="0.68" d="M200.564 93.263C206.308 89.1164 207.603 81.0983 203.456 75.3541C199.31 69.6099 191.291 68.3148 185.547 72.4614C179.803 76.608 178.508 84.6261 182.655 90.3704C186.801 96.1146 194.819 97.4097 200.564 93.263Z" fill="white"/>
<path d="M196.415 91.8719L195.761 90.639C194.448 91.2692 193.016 91.6405 191.904 91.7241C191.506 91.7541 191.15 91.4794 191.063 91.0907L190.767 89.7762C190.658 89.294 191.001 88.8329 191.493 88.7882C192.588 88.6885 193.851 88.3988 195.044 87.7664C196.282 87.1097 196.982 86.2002 196.526 85.34C196.114 84.5637 195.156 84.4806 193.19 84.9318C190.379 85.5625 188.049 85.4275 186.903 83.2665C185.868 81.3152 186.504 79.0685 188.769 77.3566L188.115 76.1237C187.904 75.7271 188.055 75.2348 188.452 75.0244L189.176 74.6401C189.573 74.4297 190.065 74.5806 190.276 74.9773L190.863 76.0843C192.078 75.501 193.051 75.2452 193.866 75.1222C194.284 75.0592 194.677 75.3362 194.77 75.7481L195.046 76.9629C195.152 77.4312 194.833 77.8878 194.357 77.9484C193.597 78.0448 192.571 78.2702 191.409 78.8868C189.94 79.6659 189.843 80.4971 190.132 81.0425C190.488 81.7138 191.615 81.708 193.836 81.2826C196.997 80.6538 198.731 81.1857 199.811 83.2211C200.802 85.0886 200.307 87.5015 197.844 89.346L198.576 90.7257C198.787 91.1226 198.636 91.6147 198.239 91.8253L197.515 92.2096C197.117 92.4195 196.625 92.2686 196.415 91.8719Z" fill="#4F52FF"/>
<path d="M218.573 124.719C227.482 124.719 234.705 117.497 234.705 108.587C234.705 99.6776 227.482 92.455 218.573 92.455C209.663 92.455 202.441 99.6776 202.441 108.587C202.441 117.497 209.663 124.719 218.573 124.719Z" fill="#4F52FF"/>
<path d="M218.573 124.183C227.186 124.183 234.169 117.2 234.169 108.587C234.169 99.974 227.186 92.9916 218.573 92.9916C209.96 92.9916 202.978 99.974 202.978 108.587C202.978 117.2 209.96 124.183 218.573 124.183Z" fill="#4F52FF"/>
<path opacity="0.68" d="M204.313 109.148C204.274 109.169 204.229 109.181 204.182 109.182C204.021 109.185 203.889 109.058 203.885 108.897C203.772 103.317 206.763 98.2263 211.69 95.6125C212.476 95.1953 213.301 94.8484 214.142 94.5817C214.295 94.5329 214.459 94.6177 214.508 94.7711C214.556 94.9243 214.473 95.0883 214.318 95.1366C213.51 95.3931 212.718 95.7265 211.963 96.1272C207.231 98.6375 204.359 103.526 204.467 108.885C204.47 108.999 204.407 109.098 204.313 109.148Z" fill="white"/>
<path opacity="0.68" d="M222.489 121.462C229.523 119.549 233.674 112.295 231.761 105.261C229.847 98.2268 222.593 94.0758 215.559 95.9894C208.525 97.903 204.374 105.157 206.288 112.191C208.201 119.225 215.455 123.376 222.489 121.462Z" fill="white"/>
<path d="M222.487 118.004L221.814 116.735C220.463 117.384 218.989 117.766 217.845 117.852C217.436 117.882 217.069 117.6 216.979 117.2L216.674 115.847C216.563 115.351 216.915 114.876 217.422 114.83C218.548 114.728 219.849 114.43 221.076 113.779C222.349 113.103 223.07 112.167 222.601 111.282C222.177 110.483 221.191 110.398 219.169 110.862C216.276 111.511 213.878 111.372 212.699 109.148C211.633 107.14 212.289 104.829 214.619 103.067L213.946 101.799C213.729 101.39 213.885 100.884 214.293 100.667L215.038 100.272C215.446 100.055 215.953 100.211 216.169 100.619L216.774 101.758C218.024 101.158 219.025 100.895 219.864 100.768C220.294 100.703 220.699 100.988 220.795 101.412L221.078 102.662C221.187 103.145 220.859 103.614 220.369 103.677C219.588 103.776 218.532 104.007 217.335 104.642C215.824 105.444 215.724 106.299 216.022 106.86C216.389 107.551 217.547 107.545 219.833 107.107C223.086 106.46 224.87 107.008 225.981 109.102C227.001 111.024 226.492 113.507 223.958 115.405L224.711 116.824C224.928 117.232 224.772 117.739 224.364 117.955L223.618 118.351C223.21 118.567 222.703 118.412 222.487 118.004Z" fill="#4F52FF"/>
<path d="M226.557 91.2961C233.085 91.2961 238.376 86.0041 238.376 79.4762C238.376 72.9483 233.085 67.6564 226.557 67.6564C220.029 67.6564 214.737 72.9483 214.737 79.4762C214.737 86.0041 220.029 91.2961 226.557 91.2961Z" fill="#4F52FF"/>
<path d="M226.557 90.9031C232.868 90.9031 237.984 85.7871 237.984 79.4762C237.984 73.1654 232.868 68.0494 226.557 68.0494C220.246 68.0494 215.13 73.1654 215.13 79.4762C215.13 85.7871 220.246 90.9031 226.557 90.9031Z" fill="#4F52FF"/>
<path opacity="0.68" d="M216.145 79.956C216.106 79.9765 216.062 79.9888 216.014 79.9898C215.854 79.9929 215.721 79.8654 215.718 79.7048C215.634 75.5865 217.841 71.8298 221.477 69.901C222.057 69.5935 222.665 69.3374 223.287 69.1401C223.44 69.0913 223.604 69.1761 223.652 69.3292C223.701 69.4824 223.618 69.6476 223.463 69.6949C222.875 69.8819 222.299 70.1242 221.75 70.4155C218.309 72.2407 216.221 75.7959 216.3 79.6929C216.302 79.8062 216.239 79.906 216.145 79.956Z" fill="white"/>
<path opacity="0.68" d="M236.563 79.7222C236.645 74.3814 232.381 69.9855 227.041 69.9038C221.7 69.8221 217.304 74.0855 217.222 79.4263C217.14 84.7671 221.404 89.163 226.745 89.2447C232.086 89.3264 236.481 85.0631 236.563 79.7222Z" fill="white"/>
<path d="M229.424 86.3756L228.931 85.4461C227.941 85.9213 226.862 86.2012 226.023 86.2643C225.723 86.2867 225.455 86.0797 225.389 85.7867L225.166 84.7956C225.084 84.4321 225.342 84.0845 225.713 84.0506C226.539 83.9755 227.491 83.7572 228.39 83.2803C229.323 82.7851 229.851 82.0996 229.508 81.451C229.197 80.8657 228.475 80.8032 226.993 81.1433C224.874 81.6189 223.117 81.517 222.253 79.8877C221.472 78.4163 221.952 76.7228 223.659 75.4322L223.166 74.5024C223.007 74.2034 223.121 73.8321 223.42 73.6734L223.966 73.3838C224.265 73.2251 224.637 73.3388 224.795 73.6381L225.238 74.4727C226.154 74.0331 226.888 73.8401 227.502 73.7473C227.817 73.6997 228.114 73.9087 228.184 74.2193L228.392 75.1353C228.472 75.4885 228.232 75.8327 227.872 75.8783C227.3 75.951 226.526 76.1208 225.649 76.5858C224.542 77.1733 224.469 77.7997 224.687 78.211C224.956 78.7173 225.805 78.7127 227.479 78.3922C229.863 77.9183 231.17 78.3192 231.984 79.8536C232.731 81.2614 232.358 83.0808 230.502 84.4714L231.053 85.5116C231.212 85.8106 231.098 86.1819 230.799 86.3404L230.253 86.63C229.954 86.7887 229.583 86.6747 229.424 86.3756Z" fill="#4F52FF"/>
<path d="M502.968 201.608C501.343 198.224 500.181 194.681 499.91 190.824C499.227 181.104 504.877 172.154 509.028 163.786C512.843 156.094 515.678 144.634 502.806 145.654C492.551 146.466 480.494 156.686 479.119 167.344C477.491 179.957 483.631 195.862 476.351 207.32C466.167 223.348 458.82 219.675 458.82 246.723C458.82 258.28 465.222 264.655 472.554 268.166C484.128 273.708 497.928 271.469 507.149 262.545C515.295 254.662 520.139 243.328 518.501 231.95C516.846 220.458 507.833 211.744 502.968 201.608Z" fill="#BDD0FB"/>
<path d="M494.363 288.804C494.097 288.804 493.856 288.624 493.788 288.355C487.404 262.873 483.929 239.771 483.46 219.692C483.083 203.604 484.625 189.403 488.041 177.485C493.887 157.089 503.088 150.518 503.476 150.248C503.746 150.062 504.114 150.128 504.301 150.397C504.487 150.665 504.421 151.034 504.152 151.221C504.129 151.237 501.81 152.88 498.815 156.978C496.048 160.765 492.122 167.48 489.135 177.969C485.773 189.775 484.264 203.85 484.647 219.804C485.128 239.763 488.59 262.73 494.938 288.067C495.017 288.385 494.824 288.707 494.507 288.786C494.458 288.798 494.41 288.804 494.363 288.804Z" fill="#7D97F4"/>
<path d="M513.187 173.094C512.691 172.96 512.146 172.918 511.566 172.985C508.358 173.353 507.041 176.737 506.098 179.382C505.291 181.647 504.34 184.396 504.816 186.85C505.332 189.504 508.149 191.668 510.194 188.974C512.518 185.912 516.005 181.211 516.026 177.153C516.037 175.136 514.904 173.56 513.187 173.094Z" fill="#BDD0FB"/>
<path d="M544.864 235.437C546.176 226.792 543.034 216.867 541.466 207.726C540.637 202.892 540.253 198.096 541.03 193.226C541.802 188.385 544.076 183.148 541.979 178.325C537.752 168.607 527.705 173.029 521.95 180.345C515.271 188.835 513.445 202.707 510.909 213.389C509.379 219.829 507.076 226.434 506.269 232.997C504.933 243.868 507.391 251.415 512.591 256.512C517.579 261.401 525.175 262.414 531.277 259.016C536.789 255.946 542.747 249.382 544.864 235.437Z" fill="#91B3FA"/>
<path d="M521.878 275.806C521.594 275.806 521.343 275.602 521.295 275.312C521.273 275.181 519.085 261.978 519.027 243.765C518.975 226.946 520.779 202.281 529.672 180.29C529.795 179.986 530.14 179.84 530.444 179.963C530.747 180.085 530.894 180.431 530.771 180.734C521.952 202.54 520.161 227.032 520.212 243.738C520.268 261.86 522.441 274.985 522.463 275.116C522.518 275.438 522.3 275.744 521.977 275.798C521.944 275.804 521.911 275.806 521.878 275.806Z" fill="#7D97F4"/>
<path d="M149.945 319.698V263.184C149.945 255.759 155.912 249.717 163.337 249.636C185.62 249.394 231.578 249.382 269.182 252.551C274.313 252.983 278.305 257.189 278.491 262.335L282.005 316.972C282.266 324.199 276.553 330.237 269.322 330.374L162.888 332.397C155.78 332.532 149.945 326.807 149.945 319.698Z" fill="#F79D1D"/>
<path d="M162.851 269.299C162.756 274.107 162.899 281.737 163.016 286.667C163.077 289.231 165.329 291.186 167.876 290.887L186.215 288.738C188.658 288.451 190.379 286.2 190.014 283.767L187.763 268.751C187.443 266.619 185.612 265.042 183.457 265.042H167.205C164.837 265.042 162.898 266.931 162.851 269.299Z" fill="white"/>
<path opacity="0.37" d="M210.775 297.756L226.073 299.407C228.213 299.638 230.04 297.872 229.882 295.725L226.538 250.22C220.125 250.016 213.8 249.868 207.696 249.764V294.327C207.697 296.089 209.024 297.567 210.775 297.756Z" fill="white"/>
<path d="M217.045 289.869C217.093 290.688 217.771 291.319 218.58 291.319C218.61 291.319 218.64 291.318 218.67 291.316C219.519 291.267 220.167 290.54 220.117 289.691L217.81 249.976C216.776 249.95 215.75 249.927 214.724 249.904L217.045 289.869Z" fill="white"/>
<path d="M171.332 283.633C171.063 283.633 170.837 283.425 170.82 283.152L170.027 270.643C170.009 270.36 170.223 270.117 170.507 270.099C170.805 270.076 171.033 270.296 171.051 270.579L171.844 283.088C171.862 283.371 171.648 283.614 171.364 283.632C171.353 283.633 171.342 283.633 171.332 283.633Z" fill="#4F52FF"/>
<path d="M172.965 283.633C172.689 283.633 172.461 283.415 172.452 283.137L172.036 270.389C172.027 270.105 172.249 269.868 172.532 269.859C172.859 269.843 173.052 270.072 173.062 270.355L173.478 283.103C173.486 283.387 173.264 283.624 172.982 283.633C172.982 283.633 172.97 283.633 172.965 283.633Z" fill="#4F52FF"/>
<path d="M175.155 283.633C174.882 283.633 174.656 283.42 174.643 283.144C174.543 281.049 174.044 270.583 174.044 270.372C174.044 270.088 174.273 269.859 174.557 269.859C174.838 269.859 175.068 270.086 175.07 270.367C175.076 270.645 175.464 278.814 175.667 283.097C175.681 283.379 175.463 283.619 175.179 283.633C175.171 283.633 175.163 283.633 175.155 283.633Z" fill="#4F52FF"/>
<path d="M178.574 284.146C178.024 284.146 177.569 283.71 177.55 283.156C177.116 270.804 177.192 270.526 177.242 270.341C177.391 269.794 177.96 269.472 178.502 269.621C179.004 269.758 179.317 270.245 179.249 270.747C179.216 271.489 179.445 278.676 179.6 283.084C179.62 283.65 179.177 284.126 178.611 284.145C178.599 284.146 178.586 284.146 178.574 284.146Z" fill="#4F52FF"/>
<path d="M180.797 283.633C180.513 283.633 180.284 283.404 180.284 283.12V270.611C180.284 270.327 180.513 270.098 180.797 270.098C181.081 270.098 181.31 270.327 181.31 270.611V283.12C181.31 283.404 181.08 283.633 180.797 283.633Z" fill="#4F52FF"/>
<path d="M182.592 283.633C182.313 283.633 182.085 283.411 182.079 283.132C181.981 278.786 181.752 271.686 181.546 270.832C181.456 270.671 181.457 270.467 181.565 270.3C181.72 270.062 182.038 269.998 182.275 270.153C182.555 270.336 182.82 270.51 183.105 283.108C183.111 283.392 182.886 283.626 182.604 283.633H182.592Z" fill="#4F52FF"/>
<path d="M168.572 284.772C168.03 284.772 167.577 284.347 167.548 283.799L166.864 270.664C166.835 270.098 167.27 269.616 167.836 269.586C168.373 269.548 168.884 269.992 168.914 270.558L169.598 283.693C169.627 284.259 169.192 284.741 168.626 284.771C168.608 284.772 168.59 284.772 168.572 284.772Z" fill="#4F52FF"/>
<path d="M167.81 242.297V202.609C167.81 197.395 172.001 193.152 177.215 193.095C192.864 192.924 225.139 192.916 251.547 195.141C255.15 195.445 257.953 198.399 258.084 202.013L260.552 240.383C260.736 245.459 256.723 249.699 251.645 249.795L176.9 251.216C171.908 251.31 167.81 247.29 167.81 242.297Z" fill="#F79D1D"/>
<path d="M176.874 206.903C176.807 210.28 176.908 215.638 176.989 219.1C177.032 220.901 178.613 222.274 180.403 222.064L193.281 220.555C194.997 220.354 196.206 218.773 195.949 217.064L194.369 206.519C194.144 205.022 192.858 203.914 191.344 203.914H179.931C178.268 203.914 176.906 205.24 176.874 206.903Z" fill="white"/>
<path opacity="0.37" d="M210.53 226.888L221.273 228.047C222.776 228.21 224.059 226.97 223.948 225.462L221.599 193.505C217.096 193.362 212.654 193.258 208.368 193.185V224.48C208.367 225.717 209.3 226.756 210.53 226.888Z" fill="white"/>
<path d="M214.933 221.35C214.966 221.924 215.442 222.368 216.011 222.368C216.032 222.368 216.053 222.367 216.074 222.366C216.67 222.331 217.125 221.82 217.09 221.224L215.47 193.333C214.744 193.315 214.024 193.299 213.303 193.283L214.933 221.35Z" fill="white"/>
<path d="M182.83 216.97C182.641 216.97 182.482 216.824 182.47 216.632L181.913 207.848C181.9 207.649 182.051 207.478 182.25 207.465C182.459 207.449 182.619 207.604 182.632 207.802L183.189 216.587C183.202 216.786 183.051 216.957 182.852 216.969C182.844 216.97 182.837 216.97 182.83 216.97Z" fill="#4F52FF"/>
<path d="M183.977 216.97C183.783 216.97 183.623 216.817 183.616 216.622L183.324 207.669C183.318 207.47 183.474 207.303 183.673 207.297C183.902 207.286 184.038 207.447 184.045 207.645L184.337 216.598C184.343 216.797 184.187 216.964 183.989 216.97C183.989 216.97 183.98 216.97 183.977 216.97Z" fill="#4F52FF"/>
<path d="M185.514 216.97C185.323 216.97 185.164 216.82 185.155 216.627C185.084 215.155 184.734 207.805 184.734 207.657C184.734 207.458 184.895 207.297 185.094 207.297C185.292 207.297 185.453 207.456 185.454 207.654C185.458 207.849 185.731 213.586 185.873 216.593C185.883 216.792 185.73 216.961 185.531 216.97C185.525 216.97 185.52 216.97 185.514 216.97Z" fill="#4F52FF"/>
<path d="M187.915 217.33C187.529 217.33 187.209 217.024 187.196 216.635C186.892 207.961 186.945 207.765 186.98 207.636C187.084 207.251 187.484 207.025 187.865 207.13C188.217 207.227 188.437 207.569 188.389 207.921C188.366 208.442 188.527 213.489 188.636 216.585C188.65 216.982 188.339 217.316 187.941 217.33C187.933 217.33 187.924 217.33 187.915 217.33Z" fill="#4F52FF"/>
<path d="M189.476 216.97C189.277 216.97 189.116 216.809 189.116 216.61V207.825C189.116 207.626 189.277 207.465 189.476 207.465C189.675 207.465 189.837 207.626 189.837 207.825V216.61C189.837 216.809 189.675 216.97 189.476 216.97Z" fill="#4F52FF"/>
<path d="M190.738 216.97C190.542 216.97 190.381 216.814 190.377 216.618C190.308 213.566 190.147 208.58 190.003 207.98C189.94 207.867 189.941 207.724 190.016 207.607C190.125 207.439 190.349 207.394 190.515 207.503C190.712 207.632 190.898 207.754 191.098 216.601C191.102 216.8 190.945 216.965 190.746 216.97H190.738V216.97Z" fill="#4F52FF"/>
<path d="M180.891 217.77C180.511 217.77 180.193 217.472 180.172 217.087L179.692 207.862C179.671 207.464 179.977 207.126 180.374 207.105C180.751 207.078 181.11 207.39 181.131 207.787L181.612 217.012C181.632 217.41 181.327 217.748 180.929 217.769C180.917 217.77 180.904 217.77 180.891 217.77Z" fill="#4F52FF"/>
<path d="M197.022 165.892L202.297 168.731C208.624 172.583 214.285 174.618 219.379 175.382C235.286 177.769 245.654 167.732 253.38 161.643C263.58 153.605 271.517 157.516 271.517 157.516L260.64 178.276C244.395 193.593 227.739 190.191 217.239 185.228C210.555 182.069 206.364 178.276 206.364 178.276C194.415 171.151 197.022 165.892 197.022 165.892Z" fill="#A22B25"/>
<path d="M181.482 173.326C181.822 172.193 182.659 171.278 183.756 170.837L194.462 166.531C194.462 166.531 194.624 165.158 192.2 164.225C189.776 163.292 190.343 160.578 190.343 160.578C190.343 160.578 193.654 162.088 198.501 164.484C201.274 165.854 202.829 168.272 203.654 170.093L200.898 173.718C194.3 175.7 187.623 176.079 180.89 175.293L181.482 173.326Z" fill="#A22B25"/>
<path d="M273.855 324.633C273.855 324.633 274.67 329.247 275.07 333.814C275.226 335.599 273.85 337.148 272.06 337.223C265.978 337.476 252.969 337.969 248.301 337.76C247.599 337.729 247.14 337.011 247.4 336.358C247.618 335.811 248.038 335.369 248.572 335.123L270.061 325.247L273.855 324.633Z" fill="#1E1E1E"/>
<path d="M274.523 321.923L273.868 327.441C273.868 327.441 270.104 329.193 267.533 327.22L269.092 321.07L274.523 321.923Z" fill="url(#paint4_linear_30_2769)"/>
<path d="M275.574 214.539C275.857 216.033 275.067 292.801 267.533 325.545C267.41 326.079 266.631 327.128 266.9 327.588C267.554 328.706 272.367 328.392 275.082 328.487C275.923 328.516 276.374 327.529 276.611 326.693C278.765 319.096 289.083 281.032 290.429 244.672C291.933 204.042 290.429 243.288 290.429 243.288L291.097 217.548L275.574 214.539Z" fill="#1E1E1E"/>
<path d="M298.575 327.04C298.575 327.04 299.872 329.369 301.128 335.558C301.354 336.676 300.573 337.746 299.439 337.857C297.43 338.055 294.339 338.309 291.863 338.291C290.721 338.284 289.83 337.289 289.968 336.156C290.242 333.897 291.096 330.191 293.736 327.302L298.575 327.04Z" fill="#1E1E1E"/>
<path d="M299.714 319.942L298.184 328.287C298.184 328.287 296.671 329.413 293.679 328.597L294.409 319.618L299.714 319.942Z" fill="url(#paint5_linear_30_2769)"/>
<path d="M303.391 217.533C309.552 256.343 302.51 316.433 299.982 327.611C299.827 328.295 299.297 328.82 298.633 328.935C297.504 329.13 295.646 329.289 293.814 328.734C293.183 328.543 292.739 327.948 292.714 327.263C292.375 318.226 292.985 262.745 287.245 240.819C286.954 239.708 286.303 238.739 285.404 238.072L275.957 230.372L275.781 213.771L303.391 217.533Z" fill="#1E1E1E"/>
<path d="M268.09 155.27C284.328 155.001 302.244 159.533 302.244 159.533C306.234 182.813 304.632 208.613 303.801 217.109C303.631 218.85 304.563 220.694 302.835 220.974C294.339 222.346 280.985 220.95 276.835 219.744C275.319 219.303 275.577 217.689 275.254 216.143C272.468 202.78 264.502 173.308 264.502 173.308C260.64 178.276 255.19 185.228 247.135 187.078C251.24 182.32 243.366 172.34 244.206 168.761C251.489 160.578 263.082 155.352 268.09 155.27Z" fill="#4F52FF"/>
<path d="M284.537 142.087L289.704 157.028C289.79 157.276 289.688 157.55 289.459 157.677C288.05 158.455 282.976 160.706 276.861 156.829C276.224 156.425 275.791 155.767 275.694 155.019L274.021 142.087H284.537Z" fill="#A22B25"/>
<path d="M273.296 128.251C273.296 128.251 267.622 138.931 268.35 143.245C269.077 147.559 276.108 147.249 282.248 143.745L286.538 132.214L273.296 128.251Z" fill="#A22B25"/>
<path d="M281.977 138.082C281.727 137.971 281.635 137.666 281.785 137.438C282.239 136.744 283.091 135.327 283.363 134.087C283.363 134.087 284.383 133.434 280.767 132.568C278.798 132.097 275.308 131.707 273.774 130.291C272.057 128.707 275.222 125.715 276.553 124.911C278.309 123.851 280.448 123.224 282.428 123.758C283.384 124.016 284.249 124.527 285.1 125.032C286.55 125.892 288.051 126.8 288.973 128.212C289.57 129.125 289.883 130.191 290.17 131.245C290.581 132.758 290.958 134.308 290.886 135.875C290.696 140.048 285.805 143.787 281.871 144.244C281.55 144.282 281.3 143.964 281.406 143.657L283.013 138.984C283.088 138.766 282.984 138.528 282.774 138.436L281.977 138.082Z" fill="#1E1E1E"/>
<path d="M281.33 138.746C281.33 138.746 285.37 135.974 285.665 138.308C285.96 140.642 282.027 141.689 280.08 140.819L281.33 138.746Z" fill="#A22B25"/>
<path d="M271.229 125.632C279.518 109.976 301 124.198 291.002 137.387C283.569 132.444 275.17 125.097 271.229 125.632Z" fill="url(#paint6_linear_30_2769)"/>
<path d="M284.175 132.263L269.292 131.803C268.914 131.791 268.569 131.582 268.386 131.251C267.052 128.844 265.101 127.31 262.662 126.467C262.353 126.361 262.417 125.906 262.743 125.883L271.867 125.263C271.878 125.262 271.888 125.262 271.898 125.263C276.445 125.612 280.471 128.349 284.311 131.933C284.439 132.053 284.35 132.269 284.175 132.263Z" fill="url(#paint7_linear_30_2769)"/>
<path d="M300.405 183.232C291.317 173.029 292.238 165.174 302.495 159.52C302.495 159.52 319.498 171.073 322.294 185.72C319.082 185.957 313.235 186.792 307.514 189.681C306.256 182.765 300.405 183.232 300.405 183.232Z" fill="#4F52FF"/>
<path d="M280.655 193.731C280.655 193.731 299.745 204.519 306.186 195.307C307.523 193.395 307.843 191.494 307.513 189.681C313.235 186.792 319.081 185.957 322.294 185.72C323.137 190.135 322.691 194.832 320.096 199.578C308.814 220.217 278.129 198.438 278.129 198.438L280.655 193.731Z" fill="#A22B25"/>
<path d="M282.949 207.379L272.53 170.996C272.412 170.583 272.06 170.282 271.633 170.232C269.746 170.012 264.276 169.394 257.961 168.859C250.354 168.216 241.52 167.695 236.241 168.138C235.491 168.201 235.037 168.995 235.371 169.67C238.373 175.743 250.721 200.447 256.904 208.54C257.109 208.808 257.425 208.965 257.763 208.962L281.935 208.737C282.639 208.73 283.142 208.056 282.949 207.379Z" fill="url(#paint8_linear_30_2769)"/>
<path d="M256.88 165.705L249.326 164.447C248.924 164.38 248.594 164.764 248.722 165.152L249.47 167.417C249.535 167.615 249.707 167.757 249.913 167.785L257.182 168.756C257.558 168.806 257.868 168.464 257.781 168.095L257.318 166.117C257.269 165.903 257.096 165.741 256.88 165.705Z" fill="url(#paint9_linear_30_2769)"/>
<path d="M262.536 172.1L261.914 168.859C261.851 168.534 261.583 168.288 261.254 168.255L245.998 166.707C245.484 166.655 245.073 167.125 245.194 167.627L246.164 171.666C246.241 171.989 246.523 172.223 246.854 172.239L261.763 172.99C262.248 173.014 262.628 172.577 262.536 172.1Z" fill="#BDD0FB"/>
<path d="M280.432 198.589C280.432 198.589 281.883 192.622 281.298 190.505C280.712 188.387 279.578 185.665 275.797 186.27C272.016 186.875 267.557 188.468 267.557 188.468C267.557 188.468 267.782 191.226 270.655 190.336L268.874 191.715C268.874 191.715 269.128 193.923 271.555 192.743L269.898 194.572C269.898 194.572 270.94 196.385 272.726 195.222C274.512 194.058 275.368 199.308 280.432 198.589Z" fill="#A22B25"/>
<path d="M286.481 175.872C287.673 175.968 297.751 176.291 297.751 176.291L297.345 186.438L292.123 189.383L286.481 186.438L286.481 175.872Z" fill="#1E1E1E"/>
<path d="M285.681 175.872L297.729 176.291L298.221 180.184L291.951 181.813L285.286 178.842L285.681 175.872Z" fill="#1E1E1E"/>
<path d="M521.811 304.519H359.176V314.387H521.811V304.519Z" fill="#1E1E1E"/>
<path d="M521.811 315.848H523.492C524.38 315.848 525.1 315.128 525.1 314.24V302.326H521.811V315.848Z" fill="#1E1E1E"/>
<path d="M361.917 244.858C361.917 242.394 364.371 240.378 368.34 240.378H517.851C521.82 240.378 525.1 242.394 525.1 244.858V300.911C525.1 303.375 521.82 305.432 517.851 305.432H368.34C364.371 305.432 361.917 303.375 361.917 300.911V244.858Z" fill="#CC841D"/>
<path d="M365.572 247.117C365.572 244.863 368.676 243.302 372.419 243.302H513.462C517.206 243.302 520.349 244.863 520.349 247.117V298.355C520.349 300.609 517.206 302.326 513.462 302.326H372.419C368.676 302.326 365.572 300.609 365.572 298.355V247.117Z" fill="#F79D1D"/>
<path d="M321.908 284.375L329.28 261.879C329.465 261.308 329.998 261.21 330.598 261.21C335.743 261.21 358.993 261.21 360.455 261.21V314.386H320.163L321.908 284.375Z" fill="#F79D1D"/>
<path d="M319.623 306.603C320.019 306.342 320.661 306.201 321.214 306.212L352.175 306.807L352.351 315.581L321.199 316.339C320.068 316.339 318.791 315.794 318.791 315.029V307.596C318.791 307.222 319.226 306.864 319.623 306.603Z" fill="#CC841D"/>
<path d="M327.663 283.033L332.119 265.397C332.274 264.782 332.827 264.317 333.461 264.317H350.888C351.263 264.317 351.621 264.503 351.882 264.772C352.142 265.041 352.283 265.421 352.272 265.795L351.854 279.937C351.835 280.601 351.347 281.161 350.691 281.267L329.226 284.737C328.766 284.812 328.299 284.65 327.985 284.307C327.669 283.963 327.549 283.485 327.663 283.033Z" fill="#1E1E1E"/>
<path d="M328.553 264.1L328.78 264.137C329.166 264.201 329.507 264.425 329.718 264.754C329.93 265.083 329.993 265.485 329.891 265.863L325.034 283.925C324.846 284.623 324.153 285.06 323.442 284.927L321.908 284.639L328.553 264.1Z" fill="#1E1E1E"/>
<path d="M352.049 287.319C352.049 286.625 351.486 286.062 350.792 286.062H345.266C344.571 286.062 344.009 286.625 344.009 287.319V287.546C344.009 288.24 344.572 288.803 345.266 288.803H350.792C351.486 288.803 352.049 288.24 352.049 287.546V287.319Z" fill="#91B3FA"/>
<path d="M352.049 287.319C352.049 286.625 351.486 286.062 350.792 286.062H345.266C344.571 286.062 344.009 286.625 344.009 287.319V287.546C344.009 288.24 344.572 288.803 345.266 288.803H350.792C351.486 288.803 352.049 288.24 352.049 287.546V287.319Z" fill="#1E1E1E"/>
<path d="M358.167 245.172C358.631 245.138 359.333 245.22 359.674 245.537C360.016 245.854 360.455 246.221 360.455 246.687V261.21H342.16C342.16 261.21 343.131 246.269 358.167 245.172Z" fill="#1E1E1E"/>
<path d="M341.704 329.872C349.46 329.872 355.747 323.585 355.747 315.829C355.747 308.074 349.46 301.787 341.704 301.787C333.949 301.787 327.662 308.074 327.662 315.829C327.662 323.585 333.949 329.872 341.704 329.872Z" fill="#1E1E1E"/>
<path d="M352.803 318.484C354.251 312.355 350.455 306.212 344.326 304.765C338.196 303.318 332.054 307.113 330.606 313.243C329.159 319.372 332.955 325.515 339.084 326.962C345.214 328.409 351.356 324.614 352.803 318.484Z" fill="#CC841D"/>
<path d="M332.125 319.998C332.033 319.998 331.945 319.943 331.906 319.852C331.367 318.578 331.094 317.225 331.094 315.83C331.094 310.131 335.73 305.494 341.429 305.494C343.196 305.494 344.941 305.949 346.474 306.807C346.589 306.872 346.63 307.017 346.565 307.131C346.501 307.246 346.356 307.288 346.242 307.222C344.779 306.403 343.115 305.97 341.429 305.97C335.993 305.97 331.57 310.393 331.57 315.829C331.57 317.16 331.831 318.451 332.345 319.667C332.396 319.788 332.339 319.928 332.218 319.979C332.188 319.992 332.156 319.998 332.125 319.998Z" fill="#BDD0FB"/>
<path d="M336.475 315.829C336.475 318.718 338.816 321.059 341.705 321.059C344.593 321.059 346.934 318.718 346.934 315.829C346.934 312.941 344.593 310.599 341.705 310.599C338.816 310.599 336.475 312.941 336.475 315.829Z" fill="#1E1E1E"/>
<path d="M475.294 330.264C483.049 330.264 489.336 323.977 489.336 316.221C489.336 308.466 483.049 302.178 475.294 302.178C467.538 302.178 461.251 308.466 461.251 316.221C461.251 323.977 467.538 330.264 475.294 330.264Z" fill="url(#paint10_linear_30_2769)"/>
<path d="M475.294 330.264C483.049 330.264 489.336 323.977 489.336 316.221C489.336 308.466 483.049 302.178 475.294 302.178C467.538 302.178 461.251 308.466 461.251 316.221C461.251 323.977 467.538 330.264 475.294 330.264Z" fill="#1E1E1E"/>
<path d="M486.657 316.954C487.051 310.668 482.274 305.254 475.988 304.86C469.703 304.466 464.288 309.243 463.894 315.528C463.501 321.814 468.277 327.229 474.563 327.623C480.849 328.016 486.263 323.24 486.657 316.954Z" fill="#CC841D"/>
<path d="M465.715 320.389C465.623 320.389 465.534 320.335 465.496 320.244C464.957 318.97 464.684 317.616 464.684 316.221C464.684 310.522 469.32 305.886 475.019 305.886C476.786 305.886 478.531 306.34 480.064 307.2C480.179 307.264 480.22 307.409 480.155 307.523C480.091 307.638 479.946 307.68 479.831 307.615C478.369 306.795 476.705 306.362 475.019 306.362C469.582 306.362 465.16 310.785 465.16 316.221C465.16 317.552 465.42 318.843 465.934 320.059C465.986 320.18 465.929 320.32 465.808 320.371C465.777 320.383 465.746 320.389 465.715 320.389Z" fill="#BDD0FB"/>
<path d="M475.293 321.451C478.182 321.451 480.523 319.11 480.523 316.221C480.523 313.333 478.182 310.991 475.293 310.991C472.405 310.991 470.063 313.333 470.063 316.221C470.063 319.11 472.405 321.451 475.293 321.451Z" fill="url(#paint11_linear_30_2769)"/>
<path d="M475.293 321.451C478.182 321.451 480.523 319.11 480.523 316.221C480.523 313.333 478.182 310.991 475.293 310.991C472.405 310.991 470.063 313.333 470.063 316.221C470.063 319.11 472.405 321.451 475.293 321.451Z" fill="#1E1E1E"/>
<path d="M396.158 330.264C403.914 330.264 410.201 323.977 410.201 316.221C410.201 308.466 403.914 302.178 396.158 302.178C388.403 302.178 382.116 308.466 382.116 316.221C382.116 323.977 388.403 330.264 396.158 330.264Z" fill="#1E1E1E"/>
<path d="M407.479 317.345C408.1 311.078 403.522 305.494 397.254 304.874C390.987 304.254 385.403 308.831 384.783 315.099C384.163 321.366 388.74 326.95 395.008 327.57C401.275 328.191 406.859 323.613 407.479 317.345Z" fill="#CC841D"/>
<path d="M386.58 320.389C386.487 320.389 386.399 320.335 386.36 320.244C385.821 318.97 385.548 317.616 385.548 316.221C385.548 310.522 390.184 305.886 395.883 305.886C397.651 305.886 399.395 306.34 400.928 307.2C401.043 307.264 401.084 307.409 401.019 307.523C400.955 307.638 400.81 307.68 400.695 307.615C399.233 306.795 397.569 306.362 395.883 306.362C390.447 306.362 386.024 310.785 386.024 316.221C386.024 317.552 386.285 318.844 386.799 320.059C386.85 320.18 386.793 320.32 386.672 320.371C386.642 320.383 386.61 320.389 386.58 320.389Z" fill="#BDD0FB"/>
<path d="M396.158 321.451C399.047 321.451 401.388 319.11 401.388 316.221C401.388 313.333 399.047 310.991 396.158 310.991C393.27 310.991 390.928 313.333 390.928 316.221C390.928 319.11 393.27 321.451 396.158 321.451Z" fill="#1E1E1E"/>
<path d="M507.418 330.264C515.173 330.264 521.46 323.977 521.46 316.221C521.46 308.466 515.173 302.178 507.418 302.178C499.662 302.178 493.375 308.466 493.375 316.221C493.375 323.977 499.662 330.264 507.418 330.264Z" fill="#1E1E1E"/>
<path d="M518.78 316.955C519.174 310.67 514.397 305.255 508.111 304.861C501.826 304.468 496.411 309.244 496.017 315.53C495.624 321.816 500.4 327.23 506.686 327.624C512.972 328.018 518.386 323.241 518.78 316.955Z" fill="#CC841D"/>
<path d="M497.838 320.389C497.746 320.389 497.657 320.335 497.619 320.244C497.08 318.97 496.807 317.616 496.807 316.221C496.807 310.522 501.443 305.886 507.142 305.886C508.909 305.886 510.654 306.34 512.187 307.2C512.301 307.264 512.342 307.409 512.278 307.523C512.214 307.638 512.069 307.68 511.954 307.615C510.492 306.795 508.828 306.362 507.142 306.362C501.705 306.362 497.282 310.785 497.282 316.221C497.282 317.552 497.543 318.843 498.057 320.059C498.108 320.18 498.052 320.32 497.931 320.371C497.901 320.383 497.869 320.389 497.838 320.389Z" fill="#BDD0FB"/>
<path d="M507.417 321.451C510.306 321.451 512.647 319.11 512.647 316.221C512.647 313.333 510.306 310.991 507.417 310.991C504.529 310.991 502.188 313.333 502.188 316.221C502.188 319.11 504.529 321.451 507.417 321.451Z" fill="url(#paint12_linear_30_2769)"/>
<path d="M507.417 321.451C510.306 321.451 512.647 319.11 512.647 316.221C512.647 313.333 510.306 310.991 507.417 310.991C504.529 310.991 502.188 313.333 502.188 316.221C502.188 319.11 504.529 321.451 507.417 321.451Z" fill="#1E1E1E"/>
<path d="M326.283 298.778C326.283 298.013 325.663 297.392 324.897 297.392H321.091C320.325 297.392 319.705 298.013 319.705 298.778V302.95C319.705 303.715 320.325 304.336 321.091 304.336H324.897C325.663 304.336 326.283 303.716 326.283 302.95V298.778Z" fill="white"/>
<path opacity="0.8" d="M323.725 297.392V305.432H324.712C325.477 305.432 326.832 304.619 326.832 303.854V299.294C326.832 298.529 325.477 297.392 324.712 297.392L323.725 297.392Z" fill="white"/>
<path d="M358.262 296.899C358.131 296.899 358.024 296.793 358.024 296.661V264.317C358.024 264.185 358.131 264.079 358.262 264.079C358.394 264.079 358.5 264.185 358.5 264.317V296.661C358.501 296.793 358.394 296.899 358.262 296.899Z" fill="#91B3FA"/>
<path d="M345.477 259.475C345.452 259.475 345.425 259.471 345.4 259.462C345.276 259.419 345.209 259.284 345.252 259.159C346.487 255.582 348.925 250.863 353.527 248.699C356.296 247.397 358.507 247.642 358.6 247.653C358.73 247.668 358.823 247.786 358.808 247.917C358.793 248.047 358.674 248.143 358.544 248.125C358.522 248.123 356.354 247.889 353.704 249.143C349.268 251.242 346.904 255.833 345.703 259.315C345.668 259.413 345.576 259.475 345.477 259.475Z" fill="#F79D1D"/>
<defs>
<linearGradient id="paint0_linear_30_2769" x1="166.647" y1="81.2194" x2="257.805" y2="101.888" gradientUnits="userSpaceOnUse">
<stop stop-color="#50E7B7"/>
<stop offset="0.9964" stop-color="#323992"/>
</linearGradient>
<linearGradient id="paint1_linear_30_2769" x1="154.375" y1="106.231" x2="160.935" y2="106.231" gradientUnits="userSpaceOnUse">
<stop stop-color="#DAE3FE"/>
<stop offset="1" stop-color="#E9EFFD"/>
</linearGradient>
<linearGradient id="paint2_linear_30_2769" x1="164.444" y1="78.4214" x2="255.602" y2="99.0904" gradientUnits="userSpaceOnUse">
<stop stop-color="#50E7B7"/>
<stop offset="0.9964" stop-color="#323992"/>
</linearGradient>
<linearGradient id="paint3_linear_30_2769" x1="152.135" y1="103.348" x2="158.914" y2="103.348" gradientUnits="userSpaceOnUse">
<stop stop-color="#DAE3FE"/>
<stop offset="1" stop-color="#E9EFFD"/>
</linearGradient>
<linearGradient id="paint4_linear_30_2769" x1="274.523" y1="324.614" x2="267.533" y2="324.614" gradientUnits="userSpaceOnUse">
<stop stop-color="#F9B776"/>
<stop offset="1" stop-color="#F47960"/>
</linearGradient>
<linearGradient id="paint5_linear_30_2769" x1="299.714" y1="324.256" x2="293.679" y2="324.256" gradientUnits="userSpaceOnUse">
<stop stop-color="#F9B776"/>
<stop offset="1" stop-color="#F47960"/>
</linearGradient>
<linearGradient id="paint6_linear_30_2769" x1="273.473" y1="146.808" x2="295.611" y2="103.246" gradientUnits="userSpaceOnUse">
<stop stop-color="#4042E2"/>
<stop offset="1" stop-color="#4F52FF"/>
</linearGradient>
<linearGradient id="paint7_linear_30_2769" x1="295.56" y1="106.116" x2="248.791" y2="154.67" gradientUnits="userSpaceOnUse">
<stop stop-color="#4042E2"/>
<stop offset="1" stop-color="#4F52FF"/>
</linearGradient>
<linearGradient id="paint8_linear_30_2769" x1="262.972" y1="172.408" x2="238.474" y2="274.483" gradientUnits="userSpaceOnUse">
<stop stop-color="#4042E2"/>
<stop offset="1" stop-color="#4F52FF"/>
</linearGradient>
<linearGradient id="paint9_linear_30_2769" x1="248.694" y1="166.6" x2="257.796" y2="166.6" gradientUnits="userSpaceOnUse">
<stop stop-color="#DAE3FE"/>
<stop offset="1" stop-color="#E9EFFD"/>
</linearGradient>
<linearGradient id="paint10_linear_30_2769" x1="486.811" y1="412.746" x2="476.665" y2="327.718" gradientUnits="userSpaceOnUse">
<stop stop-color="#09005D"/>
<stop offset="1" stop-color="#1A0F91"/>
</linearGradient>
<linearGradient id="paint11_linear_30_2769" x1="470.139" y1="307.776" x2="484.414" y2="331.165" gradientUnits="userSpaceOnUse">
<stop stop-color="#09005D"/>
<stop offset="1" stop-color="#1A0F91"/>
</linearGradient>
<linearGradient id="paint12_linear_30_2769" x1="502.263" y1="307.776" x2="516.538" y2="331.165" gradientUnits="userSpaceOnUse">
<stop stop-color="#09005D"/>
<stop offset="1" stop-color="#1A0F91"/>
</linearGradient>
</defs>
</svg>
