<svg width="500" height="436" viewBox="0 0 500 436" fill="none" xmlns="http://www.w3.org/2000/svg">
<path d="M377.719 132.865C353.244 111.861 325.129 95.452 294.487 85.58C197.685 54.39 53.6584 99.751 42.9114 215.941C39.8974 248.531 49.2314 282.506 69.9804 307.695C98.1174 341.853 143.032 356.694 186.351 364.261C254.179 376.11 324.122 374.079 391.587 360.525C414.73 355.875 439.378 348.757 453.772 329.885C463.677 316.898 467.267 299.788 466.213 283.41C465.159 267.032 459.802 251.224 453.302 236.172C436.24 196.668 410.181 160.724 377.719 132.865Z" fill="#CCE3FF"/>
<path d="M298.371 179.427L302.025 177.756L300.021 169.24L296.005 169.373C295.158 167.313 294.099 165.343 292.846 163.497L295.176 160.22L289.183 153.848L285.755 155.98C283.991 154.623 282.094 153.448 280.096 152.477L280.476 148.458L272.1 145.936L270.204 149.482C267.995 149.184 265.759 149.115 263.537 149.276L261.864 145.621L253.349 147.625L253.481 151.642C251.42 152.489 249.45 153.548 247.605 154.801L244.327 152.472L237.955 158.464L240.087 161.893C238.731 163.655 237.556 165.552 236.583 167.551L232.564 167.172L230.042 175.547L233.589 177.443C233.29 179.651 233.221 181.886 233.382 184.109L229.727 185.783L231.731 194.298L235.748 194.165C236.595 196.227 237.654 198.196 238.906 200.04L236.577 203.319L242.569 209.69L245.998 207.558C247.758 208.913 249.656 210.087 251.657 211.061L251.277 215.08L259.653 217.602L261.548 214.055C263.756 214.354 265.992 214.424 268.216 214.262L269.889 217.917L278.405 215.913L278.273 211.896C280.336 211.048 282.305 209.988 284.149 208.738L287.427 211.067L293.799 205.075L291.667 201.645C293.023 199.882 294.198 197.985 295.17 195.987L299.19 196.366L301.712 187.991L298.165 186.095C298.463 183.887 298.532 181.651 298.371 179.427ZM287.18 194.953C283.652 200.653 278.126 204.635 271.619 206.166C265.113 207.696 258.391 206.598 252.692 203.069C246.993 199.541 243.011 194.015 241.479 187.507C239.948 181.001 241.048 174.279 244.576 168.579C248.104 162.879 253.63 158.898 260.137 157.367C261.107 157.139 262.076 156.971 263.043 156.86C275.485 155.434 287.34 163.54 290.277 176.025C291.808 182.532 290.708 189.253 287.18 194.953Z" fill="#5291CE"/>
<path d="M62.7855 121.82C61.0075 125.06 62.0205 130.919 64.5775 132.791C65.8745 133.741 67.4785 134.214 68.7355 135.214C71.3025 137.253 71.8265 140.952 71.5455 144.219C71.2635 147.485 70.3775 150.761 70.8955 153.999C71.6535 158.739 75.2605 162.487 78.9735 165.53C82.6875 168.573 86.7965 171.367 89.2825 175.476C91.1925 178.63 92.0585 182.437 94.5445 185.161C97.0315 187.886 100.755 189.091 104.364 189.863C110.959 191.275 117.784 191.607 124.485 190.843C128.682 190.365 133.279 189.164 135.552 185.604C137.092 183.191 137.238 180.157 137.063 177.302C136.88 174.313 136.359 171.241 134.719 168.735C132.873 165.913 129.846 164.14 127.114 162.163C124.382 160.185 121.698 157.639 121.172 154.309C120.567 150.477 122.94 146.296 121.197 142.833C119.604 139.67 115.49 138.913 111.956 138.711C108.421 138.508 104.384 138.241 102.211 135.445C99.7505 132.278 100.804 127.109 97.8125 124.438C95.2265 122.13 91.1625 123.066 88.0005 124.488C84.8395 125.909 81.4315 127.733 78.1005 126.777C75.8605 126.133 74.1715 124.348 72.4755 122.75C70.7805 121.151 68.7585 119.593 66.4295 119.606C64.6925 119.617 63.5085 120.502 62.7855 121.82Z" fill="#5291CE"/>
<path d="M165.224 216.516C165.202 216.537 165.174 216.557 165.144 216.576C164.934 216.698 164.665 216.625 164.544 216.415C160.455 209.339 143.287 193.126 136.731 189.751C128.602 185.567 119.391 180.822 109.873 167.067C93.1836 142.945 86.9266 141.629 80.3006 140.235L79.6646 140.101C72.5396 138.579 68.1926 127.688 68.0116 127.226C67.9246 127.002 68.0476 126.743 68.2586 126.658C68.4836 126.569 68.7376 126.68 68.8266 126.906C68.8706 127.015 73.1816 137.82 79.8486 139.246L80.4786 139.379C87.2826 140.809 93.7036 142.159 110.591 166.566C119.985 180.146 129.094 184.836 137.132 188.972C143.809 192.408 161.082 208.679 165.303 215.976C165.409 216.156 165.369 216.38 165.224 216.516Z" fill="#397CB2"/>
<path d="M127.035 206.839C125.919 208.587 124.291 209.926 122.257 210.412C114.298 212.312 107.487 200.984 99.6003 203.165C96.4993 204.023 94.2893 206.824 91.2873 207.98C87.4503 209.459 83.0923 207.979 79.5813 205.838C76.0693 203.697 72.9333 200.883 69.1183 199.345C65.9193 198.054 62.4293 197.738 59.0223 197.196C55.6173 196.654 52.1253 195.817 49.4053 193.696C47.1893 191.967 44.3093 187.431 45.9443 184.463C47.9293 180.863 54.7053 182.083 57.8233 182.937C61.8903 184.051 66.1073 185.694 70.1963 184.66C76.2213 183.135 79.5503 176.449 85.2353 173.94C89.6373 171.999 94.7593 172.865 99.3383 174.346C107.594 177.014 115.231 181.583 121.485 187.596C124.853 190.835 127.941 194.735 128.628 199.357C129.009 201.909 128.411 204.683 127.035 206.839Z" fill="#7CC5F2"/>
<path d="M168.254 211.981C168.227 211.778 168.043 211.633 167.84 211.653C153.369 213.167 117.8 203.105 107.438 198.586C98.5974 194.731 90.9594 191.401 83.5104 192.925C67.7974 196.146 53.4374 188.667 53.2924 188.591C53.1084 188.493 52.8784 188.563 52.7794 188.749C52.6774 188.93 52.7514 189.163 52.9374 189.261C53.0834 189.338 67.6724 196.946 83.6634 193.672C90.8764 192.194 98.4114 195.48 107.135 199.282C117.582 203.839 153.247 213.942 167.915 212.409C168.124 212.387 168.276 212.199 168.254 211.992V211.981Z" fill="#5291CE"/>
<path d="M112.429 91.87C110.272 92.687 108.543 94.125 107.899 96.399C105.808 103.778 115.861 107.854 116.877 114.282C117.643 119.13 113.454 123.201 109.642 126.289C106.469 128.859 103.222 131.481 101.053 134.94C98.8841 138.399 97.9601 142.922 99.7381 146.597C101.649 150.547 106.019 152.528 109.491 155.21C114.381 158.986 117.675 164.397 121.334 169.376C124.993 174.354 129.435 179.214 135.353 180.99C141.272 182.765 148.851 180.206 150.628 174.29C152.683 167.442 146.458 160.689 146.635 153.543C146.755 148.684 149.785 144.468 151.865 140.076C153.946 135.685 154.9 129.878 151.49 126.414C147.888 122.752 141.319 123.699 137.633 120.12C133.701 116.301 135.167 109.825 134.2 104.429C133.188 98.785 128.983 93.826 123.58 91.904C120.636 90.858 115.959 90.532 112.429 91.87Z" fill="#7CC5F2"/>
<path d="M167.892 211.917C167.717 212.064 167.453 212.062 167.282 211.897C132.143 178.627 122.76 142.208 125.521 129.588C128.974 113.848 118.649 101.375 118.545 101.252C118.381 101.058 118.406 100.771 118.6 100.607C118.794 100.443 119.081 100.468 119.245 100.662C119.353 100.79 129.961 113.61 126.418 129.785C123.695 142.213 133.097 178.273 167.912 211.236C168.095 211.408 168.103 211.694 167.928 211.88C167.917 211.895 167.905 211.905 167.892 211.917Z" fill="#5291CE"/>
<path d="M165.363 164.142C166.947 158.044 171.492 152.695 177.41 150.455C184.822 147.649 193.866 149.903 199.095 155.859C200.674 157.658 202.095 159.868 204.393 160.541C206.51 161.161 208.734 160.279 210.91 159.919C215.745 159.117 219.835 160.971 222.884 164.142H165.363Z" fill="white"/>
<path d="M272.285 119.608C270.524 112.831 265.473 106.886 258.896 104.396C250.658 101.277 240.607 103.782 234.796 110.402C233.041 112.402 231.462 114.858 228.908 115.606C226.555 116.295 224.084 115.315 221.666 114.914C216.292 114.023 211.746 116.083 208.358 119.607L272.285 119.608Z" fill="white"/>
<path d="M372.567 176.884C371.449 172.579 368.24 168.803 364.062 167.221C358.829 165.24 352.444 166.831 348.753 171.036C347.638 172.306 346.635 173.866 345.013 174.342C343.519 174.78 341.949 174.157 340.412 173.903C336.998 173.337 334.111 174.646 331.958 176.884H372.567Z" fill="white"/>
<path d="M274.017 336.574H227.092V372.042H274.017V336.574Z" fill="#252530"/>
<path d="M345.458 336.699H155.651C150.339 336.699 146.033 332.393 146.033 327.081V208.742C146.033 203.43 150.339 199.124 155.651 199.124H345.458C350.77 199.124 355.076 203.43 355.076 208.742V327.081C355.076 332.393 350.77 336.699 345.458 336.699Z" fill="white"/>
<path d="M345.457 339.512H155.652C148.797 339.512 143.22 333.935 143.22 327.081V208.742C143.22 201.887 148.797 196.31 155.652 196.31H345.458C352.313 196.31 357.89 201.887 357.89 208.742V327.081C357.889 333.935 352.313 339.512 345.457 339.512ZM155.652 201.936C151.899 201.936 148.846 204.989 148.846 208.742V327.081C148.846 330.833 151.899 333.886 155.652 333.886H345.458C349.211 333.886 352.264 330.833 352.264 327.081V208.742C352.264 204.989 349.211 201.936 345.458 201.936H155.652Z" fill="#464654"/>
<path d="M295.482 377.363H205.628C205.628 372.156 209.849 367.935 215.056 367.935H286.055C291.261 367.936 295.482 372.157 295.482 377.363Z" fill="#464654"/>
<path d="M320.441 304.517H180.825L180.807 232L249.578 212.647L320.695 231.988L320.441 304.517Z" fill="#8DBEF7"/>
<path d="M284.872 177.312H194.527C192.248 177.312 190.383 179.177 190.383 181.456V310.133C190.383 312.412 192.248 314.277 194.527 314.277H306.582C308.861 314.277 310.726 312.412 310.726 310.133V204.983L284.872 177.312Z" fill="#FFC578"/>
<path d="M284.873 177.327L283.957 199.792C283.865 202.073 285.655 204.014 287.936 204.106L310.725 204.986L284.873 177.327Z" fill="#F38C5F"/>
<path d="M190.38 231.995L190.367 240.542L252.023 279.005L310.717 239.871L310.731 231.986L250.742 268.836L190.38 231.995Z" fill="#F38C5F"/>
<path d="M320.706 231.981L250.549 277.013L180.818 231.978C179.46 233.076 178.587 234.751 178.587 236.622V317.408C178.587 320.693 181.275 323.382 184.56 323.382H316.548C319.833 323.382 322.522 320.694 322.522 317.408V236.622C322.522 234.924 321.852 233.071 320.706 231.981Z" fill="#C5E9FF"/>
<path d="M250.547 277.011L180.633 322.084C181.66 322.915 182.962 323.416 184.378 323.416H316.366C317.957 323.416 319.404 322.782 320.478 321.758L250.547 277.011Z" fill="#8DBEF7"/>
<path d="M286.792 226.611H214.319C212.796 226.611 211.561 225.376 211.561 223.853C211.561 222.33 212.796 221.095 214.319 221.095H286.792C288.315 221.095 289.55 222.33 289.55 223.853C289.55 225.377 288.315 226.611 286.792 226.611Z" fill="#F38C5F"/>
<path d="M286.792 215.656H214.319C212.796 215.656 211.561 214.421 211.561 212.898C211.561 211.375 212.796 210.14 214.319 210.14H286.792C288.315 210.14 289.55 211.375 289.55 212.898C289.55 214.421 288.315 215.656 286.792 215.656Z" fill="#F38C5F"/>
<path d="M286.792 237.567H214.319C212.796 237.567 211.561 236.332 211.561 234.809C211.561 233.286 212.796 232.051 214.319 232.051H286.792C288.315 232.051 289.55 233.286 289.55 234.809C289.55 236.332 288.315 237.567 286.792 237.567Z" fill="#F38C5F"/>
<path d="M460.701 291.658L460.847 284.526L456.859 283.639C456.537 280.764 455.842 277.996 454.825 275.386L457.948 272.748L454.508 266.498L450.595 267.73C448.906 265.448 446.93 263.389 444.718 261.608L446.109 257.748L440.005 254.055L437.241 257.068C434.675 255.945 431.938 255.138 429.078 254.699L428.356 250.678L421.224 250.532L420.338 254.52C417.463 254.842 414.695 255.537 412.085 256.554L409.447 253.43L403.197 256.87L404.429 260.783C402.147 262.472 400.088 264.448 398.307 266.659L394.447 265.268L390.755 271.372L393.768 274.136C392.645 276.702 391.838 279.439 391.398 282.299L387.377 283.022L387.231 290.154L391.22 291.04C391.542 293.915 392.237 296.683 393.254 299.293L390.131 301.931L393.571 308.181L397.485 306.949C399.174 309.231 401.15 311.29 403.361 313.071L401.97 316.931L408.074 320.623L410.838 317.61C413.404 318.733 416.141 319.54 419.001 319.98L419.723 324.002L426.855 324.148L427.741 320.16C430.617 319.837 433.384 319.143 435.994 318.126L438.632 321.25L444.881 317.81L443.649 313.897C445.931 312.208 447.99 310.232 449.771 308.02L453.631 309.411L457.323 303.307L454.31 300.543C455.433 297.977 456.24 295.24 456.68 292.38L460.701 291.658ZM451.686 287.906C451.374 303.151 438.718 315.3 423.473 314.989C408.228 314.677 396.079 302.021 396.39 286.776C396.702 271.531 409.358 259.381 424.603 259.693C439.849 260.005 451.998 272.661 451.686 287.906Z" fill="#5291CE"/>
<path d="M330.401 135.816L329.942 131.914L327.699 131.731C327.306 130.187 326.718 128.729 325.966 127.382L327.471 125.707L325.123 122.557L323.081 123.524C321.987 122.406 320.754 121.432 319.413 120.628L319.88 118.417L316.271 116.863L314.991 118.715C313.506 118.296 311.952 118.062 310.359 118.038L309.661 115.899L305.759 116.358L305.577 118.601C304.033 118.994 302.575 119.581 301.228 120.333L299.553 118.828L296.403 121.176L297.37 123.218C296.252 124.312 295.278 125.545 294.473 126.886L292.262 126.419L290.708 130.028L292.56 131.308C292.141 132.793 291.907 134.346 291.883 135.94L289.744 136.638L290.202 140.54L292.445 140.723C292.838 142.267 293.425 143.725 294.177 145.072L292.672 146.747L295.02 149.897L297.062 148.93C298.156 150.048 299.389 151.022 300.73 151.826L300.263 154.037L303.872 155.591L305.152 153.739C306.637 154.158 308.191 154.392 309.784 154.416L310.482 156.555L314.384 156.096L314.567 153.853C316.111 153.46 317.569 152.873 318.916 152.121L320.591 153.626L323.741 151.278L322.774 149.236C323.891 148.142 324.865 146.909 325.67 145.568L327.881 146.035L329.435 142.426L327.583 141.146C328.002 139.661 328.236 138.107 328.26 136.514L330.401 135.816ZM325.2 134.45C326.18 142.79 320.192 150.373 311.852 151.353C303.511 152.333 295.928 146.345 294.948 138.005C293.968 129.664 299.956 122.081 308.296 121.101C316.637 120.121 324.22 126.109 325.2 134.45Z" fill="#5291CE"/>
<path d="M372.521 272.196L398.996 324.249L425.471 272.196H372.521Z" fill="#8DBEF7"/>
<path d="M387.292 296.456L398.996 319.467L410.699 296.456H387.292Z" fill="#FFE67B"/>
<path d="M427.771 269.334H370.22V273.377H427.771V269.334Z" fill="#393D54"/>
<path d="M372.521 375.015L398.996 322.962L425.471 375.015H372.521Z" fill="#8DBEF7"/>
<path d="M387.292 370.431L398.996 347.42L410.699 370.431H387.292Z" fill="#FFE67B"/>
<path d="M427.771 373.834H370.22V377.877H427.771V373.834Z" fill="#393D54"/>
<path d="M386.186 310.167C386.186 310.167 387.737 313.669 387.059 314.799C386.381 315.929 384.773 315.138 384.108 316.381C383.444 317.624 383.154 319.657 379.514 320.109C375.874 320.561 379.744 318.386 379.913 317.708C380.082 317.03 382.116 313.217 381.777 310.167C381.439 307.117 385.151 306.536 386.186 310.167Z" fill="#FC9770"/>
<path d="M386.822 311.884C386.617 311.449 381.827 318.404 379.755 317.957C379.755 317.957 377.683 319.205 377.683 319.939C377.683 320.673 380.451 321.238 383.501 318.527C383.501 318.527 383.896 316.415 385.125 316.215C386.353 316.013 388.502 315.444 386.822 311.884Z" fill="#2E2E39"/>
<path d="M372.711 306.388C372.711 306.388 372.942 310.211 371.913 311.033C370.883 311.855 369.653 310.553 368.596 311.485C367.539 312.418 366.558 314.222 362.99 313.375C359.422 312.528 363.807 311.841 364.202 311.265C364.597 310.689 367.834 307.826 368.581 304.849C369.327 301.873 373.009 302.624 372.711 306.388Z" fill="#FC9770"/>
<path d="M372.707 308.218C372.667 307.739 365.75 312.584 363.965 311.443C363.965 311.443 361.588 311.889 361.332 312.577C361.076 313.265 363.472 314.761 367.277 313.284C367.277 313.284 368.385 311.443 369.606 311.684C370.827 311.925 373.038 312.141 372.707 308.218Z" fill="#2E2E39"/>
<path d="M387.966 240.406C387.738 239.982 387.37 250.793 387.37 250.793L391.027 252.595C391.027 252.595 389.074 242.464 387.966 240.406Z" fill="#E55954"/>
<path d="M400.133 264.551C400.133 264.551 402.557 268.381 406.309 269.806L409.366 268.545L400.133 264.551Z" fill="#2E2E39"/>
<path d="M393.185 200.801C393.185 200.801 395.859 195.888 400.814 199.647C405.77 203.407 402.994 207.289 408.052 211.464C413.11 215.639 424.343 226.069 419.152 236.09C413.962 246.111 412.934 251.025 406.344 244.546C399.754 238.067 399.259 215.016 394.595 211.445C389.932 207.874 393.185 200.801 393.185 200.801Z" fill="#6B2833"/>
<path d="M392.578 203.485C392.578 203.485 397.526 199.786 400.628 202.59C403.73 205.394 401.829 210.875 406.339 213.37C410.849 215.865 421.291 222.373 415.118 237.248C408.945 252.123 399.151 218.315 399.151 218.315L392.578 203.485Z" fill="#4F1822"/>
<path d="M391.747 203.595C391.747 203.595 392.699 200.487 396.664 201.539C400.628 202.591 399.766 204.633 399.766 204.633L391.747 203.595Z" fill="#F8DB94"/>
<path d="M411.34 264.447C411.34 264.447 411.274 275.719 394.111 274.799C376.948 273.878 376.446 274.401 377.093 280.451C377.74 286.501 373.058 307.038 373.058 307.038L367.457 305.698C367.457 305.698 366.623 271.389 367.28 270.072C369.649 265.316 389.863 257.359 390.302 257.744C390.741 258.127 411.34 264.447 411.34 264.447Z" fill="#11515B"/>
<path d="M414.481 260.581C414.481 260.581 417.039 271.559 400.132 274.656C383.225 277.753 382.859 278.377 384.895 284.111C386.931 289.845 387.155 310.907 387.155 310.907H381.396C381.396 310.907 372.605 277.733 372.936 276.299C374.134 271.122 391.943 258.682 392.459 258.954C392.978 259.226 414.481 260.581 414.481 260.581Z" fill="#11515B"/>
<path d="M397.906 261.857C397.906 261.857 400.56 269.697 408.519 271.775C408.519 271.775 411.505 270.148 412.09 268.685C412.675 267.222 397.906 261.857 397.906 261.857Z" fill="#0A353A"/>
<path d="M399.108 209.001C401.125 213.822 398.664 216.209 396.586 216.985C394.077 217.922 392.1 216.966 390.613 213.871C389.429 211.406 389.534 210.575 389.31 208.341C389.104 206.284 390.701 204.973 391.471 204.604C395.158 202.839 397.711 205.663 399.108 209.001Z" fill="#FC9770"/>
<path d="M394.885 210.306C394.966 210.565 394.877 210.823 394.688 210.882C394.499 210.941 394.279 210.779 394.199 210.52C394.118 210.261 394.206 210.003 394.396 209.944C394.585 209.885 394.804 210.047 394.885 210.306Z" fill="#6B2833"/>
<path d="M391.682 211.595C391.756 211.832 391.675 212.068 391.502 212.122C391.329 212.176 391.128 212.028 391.055 211.791C390.981 211.554 391.062 211.319 391.235 211.265C391.407 211.21 391.608 211.358 391.682 211.595Z" fill="#6B2833"/>
<path d="M396.225 214.525C396.279 214.602 396.166 214.773 395.973 214.907C395.781 215.041 395.581 215.087 395.527 215.01C395.474 214.933 395.586 214.762 395.779 214.628C395.973 214.494 396.172 214.448 396.225 214.525Z" fill="#E55954"/>
<path d="M399.612 211.596C399.612 211.596 399.371 216.122 402.172 220.762C402.172 220.762 401.576 222.239 400.357 223.477C397.425 226.454 392.237 230.018 392.813 222.594C392.813 222.594 398.334 220.196 395.398 216.044L397.122 215.133L399.612 211.596Z" fill="#FC9770"/>
<path d="M399.716 213.565C399.716 213.565 399.404 215.938 395.979 217.177C395.979 217.177 396.242 217.594 396.257 218.31C396.257 218.31 399.283 217.87 399.716 213.565Z" fill="#E55954"/>
<path d="M396.828 259.717C396.828 259.717 400.11 270.269 416.858 269.912C416.858 269.912 418.196 263.572 414.039 256.638L396.828 259.717Z" fill="white"/>
<path d="M395.144 255.844C395.144 255.844 391.198 263.412 381.571 261.566C381.571 261.566 385.464 257.969 389.182 256.638C392.901 255.309 395.144 255.844 395.144 255.844Z" fill="white"/>
<path d="M402.172 220.762C409.376 221.944 412.251 231.236 412.242 237.333C412.236 241.957 412.812 243.748 413.772 248.217C414.261 250.493 415.981 254.916 415.002 257.213C413.541 260.642 396.769 264.78 391.343 260.632C386.14 256.654 389.786 257.434 390.117 254.287C390.638 249.341 389.803 247.193 388.424 242.481C387.076 237.874 384.895 236.696 387.233 230.488C388.268 227.739 389.839 223.418 392.812 222.593C392.754 225.32 393.272 226.705 396.212 225.756C399.207 224.791 400.961 222.452 402.172 220.762Z" fill="#5B9AF8"/>
<path d="M394.32 213.696C393.951 214.09 393.66 214.503 393.873 214.703C394.086 214.903 395.04 214.827 395.409 214.433C395.778 214.039 395.421 213.477 395.208 213.277C394.996 213.077 394.689 213.302 394.32 213.696Z" fill="white"/>
<path d="M402.02 220.503L404.454 221.285C404.454 221.285 401.136 233.006 394.886 226.045C394.886 226.045 387.767 231.117 392.057 222.894C392.057 222.894 392.488 222.755 392.814 222.595C392.814 222.595 392.446 224.859 394.887 225.477C397.328 226.094 400.738 222.4 402.02 220.503Z" fill="white"/>
<path d="M390.662 205.898C390.662 205.898 392.394 208.012 394.878 207.868C398.78 207.641 397.22 211.211 399.716 213.565L399.909 214.809C399.909 214.809 402.147 206.638 398.46 203.943C394.773 201.248 392.23 202.855 390.685 204.119C389.14 205.383 386.164 206.483 389.451 210.178L390.662 205.898Z" fill="#6B2833"/>
<path d="M402.715 234.662L403.248 249.927C403.278 250.78 402.933 251.604 402.305 252.182L391.783 261.857L396.255 263.281L408.416 255.148C409.715 254.279 410.522 252.844 410.59 251.283L411.291 235.228L402.715 234.662Z" fill="#FC9770"/>
<path d="M373.639 280.22L374.813 298.654C374.813 298.654 375.965 292.564 376.207 290.839L373.639 280.22Z" fill="#0A353A"/>
<path d="M393.277 213.722L393.661 213.561C393.73 213.533 393.762 213.454 393.733 213.385C393.706 213.317 393.627 213.284 393.558 213.313L393.422 213.37L392.856 212.007C392.829 211.938 392.749 211.904 392.681 211.935C392.613 211.963 392.58 212.042 392.609 212.11L393.277 213.722Z" fill="#E55954"/>
<path d="M393.309 209.201L394.969 209.144C395.115 209.139 395.23 209.016 395.225 208.87C395.22 208.724 395.097 208.609 394.951 208.614L393.291 208.671C393.145 208.676 393.03 208.799 393.035 208.945C393.039 209.091 393.163 209.206 393.309 209.201Z" fill="#6B2833"/>
<path d="M390.172 210.936L391.201 210.003C391.302 209.912 391.309 209.755 391.218 209.654L391.193 209.627C391.101 209.526 390.944 209.519 390.843 209.61L389.815 210.543C389.714 210.634 389.707 210.791 389.798 210.892L389.823 210.919C389.914 211.02 390.071 211.027 390.172 210.936Z" fill="#6B2833"/>
<path d="M411.291 235.362C411.362 235.362 411.421 235.306 411.425 235.235C411.429 235.162 411.373 235.098 411.299 235.093L401.753 234.535L401.671 232.329C401.583 227.087 406.048 222.992 406.093 222.952C406.147 222.903 406.152 222.818 406.102 222.762C406.053 222.707 405.968 222.704 405.912 222.753C405.866 222.795 401.312 226.968 401.402 232.337L401.492 234.789L411.282 235.362C411.285 235.362 411.288 235.362 411.291 235.362Z" fill="#3572BC"/>
<path d="M376.208 290.973C376.22 290.973 376.232 290.972 376.244 290.968C376.315 290.948 376.357 290.875 376.337 290.803C376.298 290.661 372.431 276.624 373.758 274.149C375.091 271.661 389.778 263.157 389.926 263.072C389.99 263.034 390.012 262.952 389.975 262.888C389.938 262.823 389.855 262.803 389.791 262.839C389.183 263.19 374.89 271.467 373.521 274.023C372.144 276.592 375.918 290.292 376.079 290.874C376.095 290.934 376.149 290.973 376.208 290.973Z" fill="#0A353A"/>
<path d="M370.669 262.775H397.421L387.556 245.698C387.148 244.991 386.393 244.555 385.576 244.555H361.956C361.151 244.555 360.647 245.427 361.05 246.124L370.669 262.775Z" fill="#2E2E3A"/>
<path d="M368.448 262.775H395.2L385.335 245.698C384.926 244.991 384.172 244.555 383.355 244.555H359.735C358.93 244.555 358.427 245.427 358.829 246.124L368.448 262.775Z" fill="#464654"/>
<path d="M368.026 262.382C368.026 263.171 368.666 263.811 369.455 263.811H408.035C408.507 263.811 408.89 263.428 408.89 262.955C408.89 262.482 408.507 262.1 408.035 262.1H368.026V262.382Z" fill="#2E2E3A"/>
<path d="M133.963 313.301V311.956C133.963 310.461 132.751 309.249 131.257 309.249H102.552C101.057 309.249 99.8462 310.461 99.8462 311.956V374.378C99.8462 375.634 100.865 376.653 102.121 376.653H187.922C189.281 376.653 190.383 375.551 190.383 374.192V318.775C190.383 317.252 189.148 316.017 187.625 316.017H136.68C135.179 316.018 133.963 314.802 133.963 313.301Z" fill="#F38C5F"/>
<path d="M186.743 320.6H103.704V374.193H186.743V320.6Z" fill="white"/>
<path d="M188.268 376.654H102.065C100.726 376.654 99.524 375.834 99.036 374.588L81.788 330.582C81.257 329.228 82.256 327.763 83.71 327.763H168.744C170.238 327.763 171.579 328.678 172.125 330.069L189.613 374.684C189.982 375.631 189.285 376.654 188.268 376.654Z" fill="#FFB15C"/>
<path d="M118.033 346.258H94.17C93.478 346.258 92.917 345.697 92.917 345.005C92.917 344.313 93.478 343.752 94.17 343.752H118.033C118.725 343.752 119.286 344.313 119.286 345.005C119.286 345.697 118.725 346.258 118.033 346.258Z" fill="#F38C5F"/>
<path d="M116.294 341.893H92.4322C91.7402 341.893 91.1792 341.332 91.1792 340.64C91.1792 339.948 91.7402 339.387 92.4322 339.387H116.295C116.987 339.387 117.548 339.948 117.548 340.64C117.547 341.332 116.986 341.893 116.294 341.893Z" fill="#F38C5F"/>
<path d="M119.733 350.624H95.8702C95.1782 350.624 94.6172 350.063 94.6172 349.371C94.6172 348.679 95.1782 348.118 95.8702 348.118H119.733C120.425 348.118 120.986 348.679 120.986 349.371C120.986 350.063 120.425 350.624 119.733 350.624Z" fill="#F38C5F"/>
<path d="M89.7373 299.85L81.0273 302.947L86.9503 292.495L89.7373 299.85Z" fill="#275451"/>
<path d="M83.9292 239.355L92.5772 252.432L87.2302 257.476L83.9292 251.086V239.355Z" fill="#4C8785"/>
<path d="M62.2021 220.902C62.2021 220.902 62.4132 224.472 63.9492 224.434C65.4841 224.396 62.9511 218.867 62.9511 218.867L62.2021 220.902Z" fill="#351712"/>
<path d="M66.1621 286.34C66.1621 286.34 67.5241 324.564 66.1301 331.183C64.7371 337.802 66.7041 369.142 66.7041 369.142L74.0981 369.297C84.9311 297.396 85.7511 293.079 86.3691 287.269C88.1111 270.895 66.1621 286.34 66.1621 286.34Z" fill="#DC9B7E"/>
<path d="M66.4091 366.456C66.4091 366.456 69.6841 367.602 73.1221 366.456C76.5611 365.31 74.9231 370.713 83.7651 370.55C83.7651 370.55 86.7671 370.223 87.4221 373.934H66.1361C66.1361 373.934 65.2631 367.548 66.4091 366.456Z" fill="#D6CCD0"/>
<path d="M83.766 370.55C83.766 370.55 84.093 371.751 82.838 371.86C81.582 371.969 75.47 371.696 72.522 366.675C72.522 366.675 74.187 365.583 75.278 366.839C76.37 368.094 78.281 370.741 83.766 370.55Z" fill="#4C8785"/>
<path d="M66.1362 373.934H87.4232V374.93L66.2592 374.916L66.1362 373.934Z" fill="#4C8785"/>
<path d="M80.9411 371.983C80.9741 371.983 81.0051 371.963 81.0181 371.93L81.5641 370.47C81.5801 370.428 81.5581 370.38 81.5161 370.365C81.4731 370.349 81.4271 370.371 81.4111 370.413L80.8651 371.873C80.8491 371.915 80.8711 371.962 80.9131 371.978C80.9221 371.981 80.9321 371.983 80.9411 371.983Z" fill="#14233A"/>
<path d="M79.4953 371.682C79.5283 371.682 79.5593 371.662 79.5723 371.629L80.1183 370.169C80.1343 370.127 80.1123 370.079 80.0703 370.064C80.0273 370.048 79.9803 370.07 79.9653 370.112L79.4193 371.572C79.4033 371.614 79.4253 371.662 79.4673 371.677C79.4763 371.681 79.4863 371.682 79.4953 371.682Z" fill="#14233A"/>
<path d="M77.892 371.266C77.924 371.266 77.954 371.247 77.968 371.216L78.616 369.653C78.633 369.611 78.613 369.563 78.572 369.546C78.53 369.529 78.482 369.549 78.465 369.59L77.817 371.152C77.799 371.194 77.82 371.242 77.861 371.259C77.871 371.264 77.881 371.266 77.892 371.266Z" fill="#14233A"/>
<path d="M76.1723 370.386C76.2013 370.386 76.2303 370.37 76.2453 370.342L77.1183 368.677C77.1393 368.637 77.1243 368.587 77.0833 368.566C77.0433 368.545 76.9943 368.561 76.9723 368.601L76.0993 370.266C76.0783 370.306 76.0933 370.356 76.1343 370.377C76.1473 370.383 76.1603 370.386 76.1723 370.386Z" fill="#14233A"/>
<path d="M74.5959 369.281C74.6209 369.281 74.6449 369.27 74.6609 369.249L75.9639 367.564C75.9919 367.528 75.9849 367.477 75.9489 367.449C75.9129 367.421 75.8619 367.428 75.8339 367.464L74.5309 369.149C74.5029 369.185 74.5099 369.236 74.5459 369.264C74.5609 369.275 74.5789 369.281 74.5959 369.281Z" fill="#14233A"/>
<path d="M41.3882 300.121L50.9492 303.063L46.8842 289.476L41.3882 300.121Z" fill="#275451"/>
<path d="M49.2851 290.986C49.2851 290.986 50.5241 324.316 49.1301 330.935C47.7361 337.554 50.1061 369.158 50.1061 369.158L57.5691 369.027C68.0211 296.947 68.7961 292.616 69.4151 286.805C71.1561 270.431 49.2851 290.986 49.2851 290.986Z" fill="#DC9B7E"/>
<path d="M63.6354 221.613C63.6354 221.613 64.0104 226.81 61.9824 232.416C61.9824 232.416 70.2424 235.107 73.3254 232.024C73.3254 232.024 69.7914 230.16 70.1114 225.835L67.0784 224.896L63.6354 221.613Z" fill="#FC9770"/>
<path d="M64.0352 223.335C64.0352 223.335 65.9421 225.701 70.1301 226.261C70.1301 226.261 70.0092 227.294 70.3432 228.255C70.3432 228.255 65.4662 228.467 64.0352 223.335Z" fill="#E55954"/>
<path d="M73.3252 232.024L74.7082 232.455L77.0892 240.12L69.4242 242.752L59.5142 237.255L61.9922 232.378L63.0482 232.024H73.3252Z" fill="#FC9770"/>
<path d="M63.3552 219.571C63.2332 225.318 66.7182 226.873 69.1532 226.726C72.3752 226.532 74.0592 225.429 74.0112 221.132C73.9802 218.418 73.9432 217.648 73.4782 215.093C73.0712 212.856 70.3342 212.06 69.3982 211.993C64.9142 211.672 63.4392 215.591 63.3552 219.571Z" fill="#FC9770"/>
<path d="M68.203 219.204C68.225 219.502 68.419 219.73 68.637 219.714C68.855 219.698 69.014 219.444 68.992 219.146C68.97 218.849 68.776 218.62 68.558 218.636C68.34 218.652 68.182 218.906 68.203 219.204Z" fill="#1E0E1E"/>
<path d="M72.0014 219.233C72.0214 219.505 72.1984 219.714 72.3974 219.699C72.5964 219.685 72.7424 219.452 72.7224 219.18C72.7024 218.908 72.5254 218.699 72.3264 218.714C72.1264 218.729 71.9814 218.961 72.0014 219.233Z" fill="#1E0E1E"/>
<path d="M61.5974 220.482C61.9484 221.488 62.8824 222.078 63.6834 221.798C64.4844 221.519 64.8494 220.476 64.4984 219.47C64.1474 218.464 63.2134 217.875 62.4124 218.154C61.6114 218.434 61.2464 219.476 61.5974 220.482Z" fill="#FC9770"/>
<path d="M69.0583 223.736C69.0343 223.836 69.2183 223.966 69.4693 224.025C69.7203 224.084 69.9433 224.051 69.9673 223.951C69.9913 223.851 69.8063 223.721 69.5553 223.662C69.3053 223.602 69.0823 223.636 69.0583 223.736Z" fill="#E55954"/>
<path d="M70.1263 223.086C70.5783 223.086 70.9003 222.854 70.9053 222.85C70.9563 222.812 70.9673 222.74 70.9293 222.689C70.8913 222.638 70.8193 222.627 70.7683 222.664C70.7353 222.689 69.9383 223.254 69.1233 222.332C69.0813 222.285 69.0083 222.28 68.9603 222.322C68.9123 222.364 68.9083 222.437 68.9503 222.485C69.3643 222.952 69.7833 223.086 70.1263 223.086Z" fill="#E55954"/>
<path d="M73.7502 235.087C73.7502 235.087 71.7372 243.603 61.3622 236.171L58.0332 286.108C58.0332 286.108 72.6662 289.127 86.1372 286.108L73.7502 235.087Z" fill="white"/>
<path d="M62.2142 231.68L61.0532 300.276L46.9622 300.354L46.3812 293.85L44.9492 300.199L41.3882 300.122L43.6332 248.714C43.6332 248.714 45.6072 232.687 62.2142 231.68Z" fill="#4C8785"/>
<path d="M73.208 231.99L79.634 299.966L86.525 300.044L86.99 295.36L87.803 299.928L89.739 299.851L86.604 246.856C86.602 246.855 85.858 235.087 73.208 231.99Z" fill="#4C8785"/>
<path d="M49.918 367.23C49.918 367.23 53.193 368.376 56.631 367.23C60.07 366.084 58.432 371.487 67.274 371.324C67.274 371.324 70.276 370.997 70.931 374.708H49.646C49.646 374.708 48.772 368.322 49.918 367.23Z" fill="#EDE2E6"/>
<path d="M67.2753 371.324C67.2753 371.324 67.6023 372.525 66.3473 372.634C65.0923 372.743 58.9792 372.47 56.0312 367.449C56.0312 367.449 57.6963 366.357 58.7873 367.613C59.8803 368.868 61.7903 371.515 67.2753 371.324Z" fill="#4C8785"/>
<path d="M49.6462 374.708L49.3462 371.16C49.3462 371.16 52.4162 372.061 53.8492 374.721L49.6462 374.708Z" fill="#4C8785"/>
<path d="M49.646 374.708H70.932V375.704L49.768 375.69L49.646 374.708Z" fill="#4C8785"/>
<path d="M64.4509 372.757C64.4839 372.757 64.5149 372.737 64.5279 372.704L65.0739 371.244C65.0899 371.202 65.0679 371.154 65.0259 371.139C64.9829 371.123 64.9369 371.145 64.9209 371.187L64.3749 372.647C64.3589 372.689 64.3809 372.737 64.4229 372.752C64.4319 372.755 64.4409 372.757 64.4509 372.757Z" fill="#14233A"/>
<path d="M63.0041 372.457C63.0371 372.457 63.0681 372.437 63.0811 372.404L63.6271 370.944C63.6431 370.902 63.6211 370.854 63.5791 370.839C63.5371 370.823 63.4891 370.845 63.4741 370.887L62.9281 372.347C62.9121 372.389 62.9341 372.436 62.9761 372.452C62.9851 372.455 62.9951 372.457 63.0041 372.457Z" fill="#14233A"/>
<path d="M61.401 372.04C61.433 372.04 61.464 372.021 61.477 371.99L62.125 370.427C62.142 370.385 62.122 370.337 62.081 370.32C62.039 370.303 61.991 370.323 61.974 370.364L61.326 371.927C61.308 371.969 61.328 372.017 61.37 372.034C61.38 372.039 61.391 372.04 61.401 372.04Z" fill="#14233A"/>
<path d="M59.682 371.16C59.712 371.16 59.74 371.144 59.755 371.116L60.628 369.451C60.649 369.411 60.634 369.361 60.594 369.34C60.554 369.319 60.504 369.334 60.483 369.374L59.61 371.039C59.589 371.079 59.604 371.128 59.645 371.15C59.656 371.157 59.669 371.16 59.682 371.16Z" fill="#14233A"/>
<path d="M58.1061 370.055C58.1311 370.055 58.1551 370.044 58.1711 370.023L59.4741 368.338C59.5021 368.302 59.4951 368.251 59.4591 368.223C59.4231 368.195 59.3721 368.202 59.3441 368.238L58.0411 369.923C58.0131 369.959 58.0201 370.01 58.0561 370.038C58.0701 370.049 58.0881 370.055 58.1061 370.055Z" fill="#14233A"/>
<path d="M66.1654 214.686C66.1654 214.686 69.2434 216.718 71.3914 215.673C73.5394 214.628 75.1074 214.512 75.6304 216.138C76.1534 217.764 77.7784 212.77 74.1794 212.131C70.5794 211.492 70.7534 211.376 69.3014 209.867C67.8494 208.357 63.3204 209.925 63.8434 212.19C64.3664 214.454 59.4204 211.706 61.8014 218.616C61.8014 218.616 63.4174 217.106 63.8824 219.835C63.8824 219.835 65.3924 219.583 64.8304 218.287C64.2684 216.99 65.0034 213.97 66.1654 214.686Z" fill="#351712"/>
<path d="M54.9701 247.094L70.9521 262.846L108.127 263.939C108.127 263.939 100.903 267.719 98.4121 267.121C96.4361 266.647 79.1171 269.998 72.0441 271.403C70.1111 271.787 68.1111 271.438 66.4201 270.426L47.4971 259.1L54.9701 247.094Z" fill="#FC9770"/>
<path d="M114.294 262.845H78.9307L93.4867 238.72C94.3097 237.357 95.7847 236.524 97.3767 236.524H129.12C130.413 236.524 131.211 237.937 130.543 239.044L117.158 261.228C116.552 262.232 115.466 262.845 114.294 262.845Z" fill="#443854"/>
<path d="M116.133 262.845H80.7695L95.3255 238.72C96.1475 237.357 97.6235 236.524 99.2155 236.524H130.959C132.253 236.524 133.05 237.937 132.382 239.044L118.997 261.228C118.391 262.232 117.304 262.845 116.133 262.845Z" fill="#2C2435"/>
<path d="M116.38 264.297H68.5764C67.8104 264.297 67.1904 263.676 67.1904 262.911C67.1904 262.145 67.8114 261.524 68.5764 261.524H117.618V263.06C117.617 263.743 117.063 264.297 116.38 264.297Z" fill="#2C2435"/>
<path d="M55.7671 241.913L65.1331 253.105L53.8741 266.017L45.2061 258.353L55.7671 241.913Z" fill="#4C8785"/>
<path d="M70.3642 221.514C70.2862 221.514 70.2202 221.454 70.2152 221.376C70.2092 221.294 70.2712 221.222 70.3532 221.216L70.5182 221.204L70.3973 219.565C70.3913 219.483 70.4533 219.411 70.5353 219.405C70.6213 219.381 70.6892 219.461 70.6952 219.543L70.8382 221.481L70.3752 221.514C70.3712 221.514 70.3672 221.514 70.3642 221.514Z" fill="#E55954"/>
<path d="M68.9923 217.626L67.2273 218.177C67.0723 218.225 66.9053 218.138 66.8573 217.983C66.8083 217.828 66.8963 217.661 67.0513 217.613L68.8163 217.062C68.9713 217.014 69.1383 217.101 69.1863 217.256C69.2353 217.411 69.1473 217.577 68.9923 217.626Z" fill="#351712"/>
<path d="M72.9271 218.294L71.5031 217.692C71.3641 217.633 71.2981 217.471 71.3571 217.331L71.3731 217.294C71.4321 217.155 71.5941 217.089 71.7331 217.148L73.1571 217.75C73.2961 217.809 73.3621 217.971 73.3031 218.111L73.2871 218.148C73.2291 218.287 73.0671 218.352 72.9271 218.294Z" fill="#351712"/>
<path d="M61.9091 249.401C61.8681 249.401 61.8261 249.383 61.7961 249.35L51.4201 237.487C51.3661 237.425 51.3721 237.33 51.4341 237.276C51.4961 237.222 51.5901 237.229 51.6451 237.29L62.0221 249.154C62.0761 249.216 62.0701 249.311 62.0081 249.365C61.9791 249.389 61.9441 249.401 61.9091 249.401Z" fill="#346B68"/>
<path d="M54.2954 265.683C54.2594 265.683 54.2244 265.67 54.1954 265.645L43.8354 256.346C43.7744 256.291 43.7684 256.196 43.8234 256.135C43.8804 256.074 43.9744 256.071 44.0344 256.123L54.3944 265.421C54.4554 265.476 54.4614 265.571 54.4064 265.632C54.3774 265.667 54.3364 265.683 54.2954 265.683Z" fill="#346B68"/>
<path d="M66.6731 306.681C66.6661 306.681 66.6591 306.68 66.6511 306.679C66.5691 306.667 66.5131 306.591 66.5251 306.51L68.2241 294.802L71.2411 293.195C71.3121 293.158 71.4041 293.183 71.4431 293.257C71.4821 293.329 71.4541 293.42 71.3811 293.459L68.4991 294.995L66.8211 306.554C66.8101 306.627 66.7461 306.681 66.6731 306.681Z" fill="#B27056"/>
</svg>
