<svg width="350" height="350" viewBox="0 0 350 350" fill="none" xmlns="http://www.w3.org/2000/svg">
<path d="M307.69 298.245C300.543 305.651 293.781 310.426 288.439 314.199C225.637 358.551 151.327 345.623 135.534 342.466C112.213 337.804 67.1329 328.791 34.541 291.067C-14.7677 233.992 -7.08965 144.073 31.1575 84.7166C38.1535 73.8592 75.1085 13.5983 150.219 3.93431C195.676 -1.91422 248.663 9.88159 287.035 41.5242C367.581 107.945 361.847 242.127 307.69 298.245Z" fill="url(#paint0_linear_60_7155)"/>
<path d="M66.585 99.1288C66.6174 97.4506 68.0276 96.1001 69.756 96.1001H174.593C176.345 96.1001 178.205 97.4922 178.205 99.1934V336.811C178.205 338.081 177.465 339.299 176.539 340.195C175.613 341.092 174.248 341.594 172.94 341.59L66.9548 341.309C65.636 341.306 64.3464 340.788 63.4238 339.873C62.5013 338.958 61.9819 337.718 62.0067 336.437L66.585 99.1288Z" fill="#BDD0FB"/>
<g opacity="0.52">
<path d="M126.792 112.94L161.086 112.824L161.073 108.657L126.817 108.762L126.792 112.94Z" fill="white"/>
<path d="M126.698 128.289L161.133 128.137L161.12 123.935L126.723 124.077L126.698 128.289Z" fill="white"/>
<path d="M126.603 143.765L161.181 143.575L161.168 139.338L126.629 139.519L126.603 143.765Z" fill="white"/>
<path d="M126.507 159.37L161.228 159.141L161.215 154.87L126.533 155.088L126.507 159.37Z" fill="white"/>
<path d="M126.411 175.105L161.276 174.837L161.263 170.53L126.437 170.787L126.411 175.105Z" fill="white"/>
<path d="M126.216 206.971L161.374 206.622L161.361 202.243L126.242 202.58L126.216 206.971Z" fill="white"/>
<path d="M125.917 255.787L161.523 255.313L161.51 250.821L125.944 251.284L125.917 255.787Z" fill="white"/>
<path d="M126.314 190.971L161.325 190.663L161.312 186.32L126.34 186.618L126.314 190.971Z" fill="white"/>
<path d="M126.117 223.106L161.423 222.716L161.41 218.299L126.144 218.678L126.117 223.106Z" fill="white"/>
<path d="M126.017 239.377L161.473 238.945L161.46 234.492L126.044 234.912L126.017 239.377Z" fill="white"/>
<path d="M125.815 272.337L161.574 271.819L161.56 267.29L125.843 267.795L125.815 272.337Z" fill="white"/>
<path d="M125.713 289.029L161.625 288.468L161.611 283.899L125.741 284.449L125.713 289.029Z" fill="white"/>
<path d="M125.61 305.866L161.677 305.26L161.663 300.651L125.638 301.245L125.61 305.866Z" fill="white"/>
<path d="M125.506 322.847L161.729 322.195L161.715 317.547L125.534 318.187L125.506 322.847Z" fill="white"/>
<path d="M81.8286 113.091L116.338 112.975L116.376 108.794L81.9047 108.9L81.8286 113.091Z" fill="white"/>
<path d="M81.5486 128.489L116.201 128.335L116.239 124.121L81.6254 124.264L81.5486 128.489Z" fill="white"/>
<path d="M81.2665 144.015L116.063 143.823L116.101 139.573L81.3438 139.755L81.2665 144.015Z" fill="white"/>
<path d="M80.9819 159.67L115.924 159.44L115.962 155.155L81.06 155.375L80.9819 159.67Z" fill="white"/>
<path d="M80.6949 175.457L115.783 175.187L115.822 170.866L80.7737 171.125L80.6949 175.457Z" fill="white"/>
<path d="M80.1136 207.428L115.498 207.077L115.538 202.683L80.1938 203.023L80.1136 207.428Z" fill="white"/>
<path d="M79.2233 256.409L115.062 255.932L115.102 251.425L79.3054 251.89L79.2233 256.409Z" fill="white"/>
<path d="M80.4055 191.375L115.641 191.065L115.68 186.708L80.4849 187.007L80.4055 191.375Z" fill="white"/>
<path d="M79.8193 223.617L115.354 223.224L115.394 218.793L79.9001 219.174L79.8193 223.617Z" fill="white"/>
<path d="M79.5226 239.943L115.209 239.509L115.249 235.04L79.6041 235.463L79.5226 239.943Z" fill="white"/>
<path d="M78.9213 273.016L114.914 272.495L114.955 267.95L79.0041 268.459L78.9213 273.016Z" fill="white"/>
<path d="M78.6168 289.766L114.765 289.2L114.806 284.616L78.7003 285.169L78.6168 289.766Z" fill="white"/>
<path d="M78.3096 306.661L114.615 306.05L114.656 301.426L78.3939 302.024L78.3096 306.661Z" fill="white"/>
<path d="M77.9999 323.702L114.463 323.046L114.505 318.382L78.0849 319.025L77.9999 323.702Z" fill="white"/>
</g>
<path d="M6.42449 164.671C6.47046 162.73 8.46339 161.133 10.9063 161.133H103.242C105.718 161.133 108.149 162.813 108.149 164.781V340.619C108.149 341.566 107.463 342.473 106.62 343.141C105.776 343.81 104.527 344.184 103.336 344.181L6.79382 343.972C5.59247 343.969 4.41632 343.584 3.57612 342.901C2.73591 342.219 2.26215 341.276 2.28457 340.321L6.42449 164.671Z" fill="#BDD0FB"/>
<path d="M74.4248 181.853L100.729 181.825L100.938 171.111H74.608L74.4248 181.853Z" fill="url(#paint1_linear_60_7155)"/>
<path d="M44.9406 181.848L71.2186 181.82L71.3987 171.111H45.0951L44.9406 181.848Z" fill="url(#paint2_linear_60_7155)"/>
<path d="M15.486 181.842L41.7377 181.814L41.8891 171.111H15.6121L15.486 181.842Z" fill="url(#paint3_linear_60_7155)"/>
<path d="M74.0963 201.085L100.355 201.099L100.563 190.454L74.2788 190.446L74.0963 201.085Z" fill="url(#paint4_linear_60_7155)"/>
<path d="M44.6633 201.07L70.8956 201.084L71.0751 190.445L44.8174 190.436L44.6633 201.07Z" fill="url(#paint5_linear_60_7155)"/>
<path d="M15.2599 201.055L41.4658 201.069L41.6168 190.435L15.3855 190.426L15.2599 201.055Z" fill="url(#paint6_linear_60_7155)"/>
<path d="M73.7687 220.185L99.9816 220.207L100.189 209.6L73.9506 209.583L73.7687 220.185Z" fill="url(#paint7_linear_60_7155)"/>
<path d="M44.387 220.161L70.5737 220.183L70.7524 209.581L44.5404 209.563L44.387 220.161Z" fill="url(#paint8_linear_60_7155)"/>
<path d="M15.0347 220.136L41.195 220.158L41.3453 209.561L15.1598 209.544L15.0347 220.136Z" fill="url(#paint9_linear_60_7155)"/>
<path d="M73.4421 239.219L99.6096 239.249L99.816 228.678L73.6233 228.653L73.4421 239.219Z" fill="url(#paint10_linear_60_7155)"/>
<path d="M44.1113 239.184L70.2527 239.215L70.4308 228.649L44.2643 228.624L44.1113 239.184Z" fill="url(#paint11_linear_60_7155)"/>
<path d="M14.8099 239.151L40.925 239.181L41.0749 228.621L14.9345 228.595L14.8099 239.151Z" fill="url(#paint12_linear_60_7155)"/>
<path d="M73.1168 258.186L99.2389 258.225L99.4446 247.691L73.2975 247.657L73.1168 258.186Z" fill="url(#paint13_linear_60_7155)"/>
<path d="M43.8369 258.143L69.9329 258.181L70.1104 247.652L43.9893 247.618L43.8369 258.143Z" fill="url(#paint14_linear_60_7155)"/>
<path d="M14.5862 258.1L40.6561 258.138L40.8054 247.614L14.7104 247.581L14.5862 258.1Z" fill="url(#paint15_linear_60_7155)"/>
<path d="M72.7926 277.09L98.8693 277.137L99.0744 266.639L72.9725 266.596L72.7926 277.09Z" fill="url(#paint16_linear_60_7155)"/>
<path d="M43.5632 277.037L69.6141 277.084L69.791 266.591L43.7151 266.549L43.5632 277.037Z" fill="url(#paint17_linear_60_7155)"/>
<path d="M14.3632 276.984L40.388 277.031L40.5367 266.543L14.487 266.501L14.3632 276.984Z" fill="url(#paint18_linear_60_7155)"/>
<path d="M72.4695 295.926L98.5012 295.981L98.7057 285.519L72.6489 285.469L72.4695 295.926Z" fill="url(#paint19_linear_60_7155)"/>
<path d="M43.2908 295.864L69.2967 295.92L69.4729 285.463L43.4421 285.412L43.2908 295.864Z" fill="url(#paint20_linear_60_7155)"/>
<path d="M14.1409 295.802L40.1208 295.858L40.2692 285.406L14.2643 285.355L14.1409 295.802Z" fill="url(#paint21_linear_60_7155)"/>
<path d="M72.1477 314.699L98.1345 314.763L98.3382 304.337L72.3265 304.278L72.1477 314.699Z" fill="url(#paint22_linear_60_7155)"/>
<path d="M43.0192 314.628L68.9801 314.692L69.1558 304.271L43.17 304.212L43.0192 314.628Z" fill="url(#paint23_linear_60_7155)"/>
<path d="M13.9194 314.557L39.8547 314.62L40.0023 304.204L14.0424 304.146L13.9194 314.557Z" fill="url(#paint24_linear_60_7155)"/>
<path d="M71.8267 333.407L97.7687 333.479L97.9717 323.089L72.0048 323.022L71.8267 333.407Z" fill="url(#paint25_linear_60_7155)"/>
<path d="M42.7483 333.327L68.6647 333.398L68.8399 323.013L42.8986 322.946L42.7483 333.327Z" fill="url(#paint26_linear_60_7155)"/>
<path d="M13.6987 333.246L39.5893 333.318L39.7367 322.938L13.8212 322.871L13.6987 333.246Z" fill="url(#paint27_linear_60_7155)"/>
<path d="M247.448 168.87C247.494 166.929 249.487 165.332 251.93 165.332H344.266C346.741 165.332 349.173 167.013 349.173 168.98V344.818C349.173 345.765 348.487 346.672 347.643 347.341C346.8 348.009 345.551 348.383 344.36 348.381L247.818 348.171C246.616 348.168 245.44 347.783 244.6 347.1C243.76 346.418 243.286 345.475 243.309 344.521L247.448 168.87Z" fill="#BDD0FB"/>
<g opacity="0.5">
<path d="M315.449 186.052L341.753 186.024L341.962 175.31H315.632L315.449 186.052Z" fill="white"/>
<path d="M285.964 186.047L312.243 186.019L312.423 175.31H286.119L285.964 186.047Z" fill="white"/>
<path d="M256.51 186.041L282.761 186.013L282.913 175.31H256.636L256.51 186.041Z" fill="white"/>
<path d="M315.12 205.284L341.378 205.297L341.586 194.653L315.302 194.645L315.12 205.284Z" fill="white"/>
<path d="M285.687 205.269L311.919 205.282L312.099 194.643L285.841 194.634L285.687 205.269Z" fill="white"/>
<path d="M256.284 205.254L282.49 205.267L282.64 194.634L256.409 194.625L256.284 205.254Z" fill="white"/>
<path d="M314.792 224.384L341.005 224.406L341.213 213.798L314.974 213.781L314.792 224.384Z" fill="white"/>
<path d="M285.411 224.359L311.597 224.381L311.776 213.779L285.564 213.762L285.411 224.359Z" fill="white"/>
<path d="M256.058 224.335L282.219 224.357L282.369 213.76L256.183 213.743L256.058 224.335Z" fill="white"/>
<path d="M314.466 243.418L340.633 243.448L340.84 232.877L314.647 232.852L314.466 243.418Z" fill="white"/>
<path d="M285.135 243.384L311.276 243.414L311.455 232.848L285.288 232.823L285.135 243.384Z" fill="white"/>
<path d="M255.834 243.35L281.949 243.38L282.099 232.82L255.958 232.794L255.834 243.35Z" fill="white"/>
<path d="M314.141 262.386L340.263 262.424L340.468 251.89L314.321 251.856L314.141 262.386Z" fill="white"/>
<path d="M284.861 262.342L310.956 262.38L311.134 251.852L285.013 251.817L284.861 262.342Z" fill="white"/>
<path d="M255.61 262.298L281.68 262.337L281.829 251.813L255.734 251.779L255.61 262.298Z" fill="white"/>
<path d="M313.816 281.287L339.893 281.334L340.098 270.836L313.996 270.794L313.816 281.287Z" fill="white"/>
<path d="M284.587 281.235L310.638 281.282L310.815 270.789L284.739 270.747L284.587 281.235Z" fill="white"/>
<path d="M255.387 281.182L281.412 281.229L281.561 270.742L255.511 270.699L255.387 281.182Z" fill="white"/>
<path d="M313.493 300.125L339.525 300.18L339.729 289.718L313.673 289.667L313.493 300.125Z" fill="white"/>
<path d="M284.315 300.062L310.32 300.118L310.497 289.661L284.466 289.61L284.315 300.062Z" fill="white"/>
<path d="M255.165 300.001L281.145 300.056L281.293 289.604L255.288 289.554L255.165 300.001Z" fill="white"/>
<path d="M313.171 318.898L339.158 318.961L339.362 308.536L313.35 308.477L313.171 318.898Z" fill="white"/>
<path d="M284.043 318.827L310.004 318.89L310.18 308.47L284.194 308.411L284.043 318.827Z" fill="white"/>
<path d="M254.943 318.755L280.878 318.819L281.026 308.403L255.066 308.344L254.943 318.755Z" fill="white"/>
<path d="M312.85 337.605L338.792 337.677L338.995 327.287L313.028 327.22L312.85 337.605Z" fill="white"/>
<path d="M283.772 337.525L309.688 337.597L309.863 327.212L283.922 327.145L283.772 337.525Z" fill="white"/>
<path d="M254.722 337.445L280.613 337.516L280.76 327.136L254.845 327.069L254.722 337.445Z" fill="white"/>
</g>
<path d="M155.655 216.704C148.12 193.044 133.539 174.188 116.269 163.103C100.829 153.194 89.7063 137.762 85.5881 119.935C85.1551 118.062 84.6407 116.182 84.0423 114.304C74.9791 85.8487 50.1211 68.3585 28.5203 75.2385C6.91918 82.1183 -3.24487 110.763 5.81835 139.218C7.67132 145.037 10.1854 150.396 13.197 155.181C22.8085 170.452 26.5697 188.768 23.0333 206.483C19.8724 222.315 20.7301 240.14 26.3798 257.879C34.806 284.334 52.0399 304.785 71.9947 315.081C79.5425 318.975 86.3488 324.211 91.9846 330.539C101.351 341.054 114.55 345.997 126.678 342.135C139.76 337.968 147.934 324.72 148.522 309.263C148.854 300.516 150.911 291.943 154.263 283.838C162.177 264.704 163.274 240.625 155.655 216.704Z" fill="#91B3FA"/>
<path opacity="0.57" d="M45.7253 103.101C54.537 121.008 62.7635 139.184 70.799 157.446C72.8098 162.011 74.7469 166.608 76.6986 171.198L79.6252 178.084L82.494 184.994C84.3884 189.608 86.3472 194.196 88.1892 198.832L93.7164 212.74C97.2824 222.058 100.928 231.346 104.319 240.731C106.022 245.42 107.816 250.076 109.422 254.801L114.307 268.949C120.629 287.878 126.475 306.976 131.34 326.334L130.504 326.553L126.311 312.209L125.27 308.622L124.14 305.061L121.867 297.945L119.607 290.825C118.858 288.45 118.021 286.104 117.232 283.742C115.622 279.029 114.05 274.303 112.41 269.601C105.728 250.832 98.7948 232.152 91.4756 213.619C87.7447 204.38 84.0939 195.11 80.2984 185.897L77.4709 178.979L74.5852 172.085C72.6642 167.488 70.7429 162.891 68.7752 158.314C64.9183 149.125 60.9949 139.963 56.9967 130.834C53.0464 121.684 49.0087 112.568 44.9445 103.47L45.7253 103.101Z" fill="white"/>
<path d="M218.697 169.675C215.175 143.836 203.534 121.689 187.728 107.092C173.598 94.0442 164.905 76.065 163.859 56.8795C163.749 54.8629 163.555 52.8257 163.276 50.7742C159.04 19.698 136.566 -2.89912 113.078 0.302211C89.5893 3.50342 73.982 31.2909 78.2175 62.3671C79.0835 68.7217 80.7129 74.7201 82.9577 80.2156C90.1219 97.7537 90.7133 117.381 83.8932 135.065C77.7985 150.868 75.486 169.461 78.1263 188.834C82.0643 217.726 96.1531 242.004 114.866 256.27C121.944 261.666 128.017 268.316 132.689 275.883C140.454 288.458 153.166 295.963 166.353 294.166C180.579 292.227 191.375 280.005 194.752 264.123C196.663 255.136 200.319 246.641 205.226 238.865C216.81 220.507 222.257 195.8 218.697 169.675Z" fill="#7D97F4"/>
<path opacity="0.57" d="M125.808 32.2402C131.676 52.3602 136.892 72.6525 141.897 92.9993C143.15 98.0853 144.322 103.191 145.51 108.293L147.29 115.946L149.007 123.614C150.131 128.73 151.327 133.831 152.393 138.96L155.594 154.347C157.597 164.633 159.688 174.9 161.499 185.223C162.412 190.382 163.426 195.523 164.234 200.701L166.73 216.221C169.849 236.947 172.448 257.761 173.99 278.666L173.089 278.742L171.341 263.145L170.912 259.246L170.386 255.358L169.32 247.584L168.268 239.81C167.922 237.218 167.48 234.639 167.091 232.053C166.278 226.886 165.506 221.713 164.659 216.552C161.139 195.927 157.345 175.348 153.128 154.851C150.94 144.618 148.841 134.368 146.583 124.15L144.91 116.482L143.173 108.828C142.018 103.725 140.863 98.6213 139.656 93.5296C137.33 83.326 134.93 73.138 132.448 62.9702C130.019 52.7894 127.493 42.6289 124.937 32.481L125.808 32.2402Z" fill="white"/>
<path d="M326.653 347.272H121.622C120.019 347.272 118.72 345.973 118.72 344.371V67.3068C118.72 65.7044 120.019 64.4053 121.622 64.4053H326.653C328.255 64.4053 329.554 65.7044 329.554 67.3068V344.371C329.554 345.973 328.255 347.272 326.653 347.272Z" fill="#233E83"/>
<path d="M293.662 310.011H154.163C148.875 310.011 144.588 305.724 144.588 300.436V116.476C144.588 111.188 148.875 106.901 154.163 106.901H293.662C298.95 106.901 303.237 111.188 303.237 116.476V300.436C303.237 305.724 298.95 310.011 293.662 310.011Z" fill="#7D97F4"/>
<path d="M288.384 295.881H159.567C157.981 295.881 156.695 294.595 156.695 293.008V126.482C156.695 124.895 157.981 123.609 159.567 123.609H288.384C289.97 123.609 291.256 124.895 291.256 126.482V293.008C291.256 294.595 289.97 295.881 288.384 295.881Z" fill="#233E83"/>
<path d="M223.753 92.4022C227.236 92.4022 230.06 89.5783 230.06 86.0949C230.06 82.6115 227.236 79.7876 223.753 79.7876C220.269 79.7876 217.445 82.6115 217.445 86.0949C217.445 89.5783 220.269 92.4022 223.753 92.4022Z" fill="url(#paint28_linear_60_7155)"/>
<path d="M264.501 187.916L183.356 189.265C177.18 189.367 172.156 194.17 172.156 199.991V251.093C172.156 256.914 177.18 261.431 183.356 261.183L264.501 257.925C270.33 257.69 275.038 252.941 275.038 247.315V197.927C275.038 192.301 270.329 187.819 264.501 187.916Z" fill="#F79D1D"/>
<path d="M268.608 178.673C266.15 178.71 264.155 176.813 264.155 174.437V163.252C264.155 152.032 254.664 142.931 242.915 142.965L216.48 143.041C204.429 143.076 194.553 152.446 194.553 163.928V175.374C194.553 177.806 192.461 179.808 189.876 179.847C187.286 179.885 185.184 177.939 185.184 175.5V164.019C185.184 147.631 199.303 134.298 216.481 134.298H242.915C259.605 134.298 273.048 147.248 273.048 163.166V174.317C273.047 176.686 271.061 178.637 268.608 178.673Z" fill="#F79D1D"/>
<path d="M237.057 216.237C237.057 210.558 232.099 206.099 226.072 206.509C220.743 206.871 216.335 211.139 216.047 216.235C215.824 220.189 217.997 223.607 221.301 225.336C222.706 226.072 223.404 227.621 223.131 229.154L220.814 242.156C220.519 243.811 221.85 245.266 223.601 245.203L229.555 244.99C231.297 244.928 232.619 243.384 232.326 241.755L230.01 228.874C229.734 227.338 230.533 225.812 231.942 224.969C235.006 223.138 237.057 219.889 237.057 216.237Z" fill="#CC841D"/>
<path d="M74.0836 347.767C74.0853 347.655 74.0779 347.543 74.0493 347.429C72.3666 340.758 64.015 336.603 64.015 336.603L60.7056 336.862C58.8029 342.742 59.0474 346.348 59.353 347.954C59.3614 348 59.3751 348.042 59.3871 348.086C62.1171 348.33 67.7359 348.489 74.0836 347.767Z" fill="#233E83"/>
<path d="M59.3871 348.086C59.5345 348.622 59.9305 349.04 60.4373 349.146C64.3207 349.963 70.493 349.306 73.0845 348.967C73.6563 348.892 74.0742 348.364 74.0837 347.767C67.7359 348.489 62.117 348.33 59.3871 348.086Z" fill="#91B3FA"/>
<path d="M59.375 331.933L60.7766 338.681C60.8793 339.175 61.2592 339.545 61.7194 339.588C62.2826 339.641 63.0845 339.672 63.8909 339.554C64.614 339.448 65.1176 338.713 64.9894 337.924L64.0151 331.933H59.375Z" fill="#A22B25"/>
<path d="M88.4162 348C84.7612 347.898 82.8708 347.467 81.8934 347.068C81.8911 347.431 81.8931 347.801 81.905 348.184C81.9176 348.594 82.2207 348.92 82.5936 348.918L102.662 348.789C103.302 348.784 103.677 348.042 103.399 347.454C100.768 347.672 94.0662 348.158 88.4162 348Z" fill="#91B3FA"/>
<path d="M103.399 347.455C103.375 347.404 103.354 347.352 103.32 347.304C101.547 344.827 97.0334 339.896 88.1137 337.757L83.8347 337.622C83.8347 337.622 81.9293 340.934 81.8933 347.068C82.8707 347.468 84.7611 347.898 88.4162 348.001C94.0663 348.159 100.768 347.672 103.399 347.455Z" fill="#233E83"/>
<path d="M82.8507 331.336C82.9182 331.651 83.8086 336.453 84.1535 338.314C84.2355 338.757 84.5801 339.081 84.9901 339.104C85.7228 339.145 86.9045 339.15 87.9208 338.874C88.469 338.725 88.8373 338.166 88.7982 337.546L88.3194 329.952L82.8507 331.336Z" fill="#A22B25"/>
<path d="M79.6082 242.687C79.6082 242.687 85.4945 283.135 89.7424 331.267C89.8215 332.163 89.1071 332.944 88.2266 333.129C86.9289 333.402 85.0214 333.727 83.4423 333.683C82.5993 333.659 81.8946 333.034 81.7528 332.202C80.3057 323.716 69.9795 278.17 67.2693 268.146C67.2693 268.146 64.1562 310.726 65.1513 332.817C65.1761 333.366 64.7739 333.843 64.2277 333.906C63.3991 334.002 62.0737 334.075 60.3868 333.895C59.7465 333.827 59.2299 333.343 59.1383 332.706C58.1075 325.524 52.1746 282.772 52.4269 251.975C52.4411 250.239 54.4645 235.969 54.4645 235.969L79.6082 242.687Z" fill="#233E83"/>
<path d="M81.8892 174.667L82.6772 195.833C84.9156 196.603 87.0468 197.202 89.076 197.65C90.3453 193.563 93.1403 188.548 95.4291 184.818C87.0201 181.846 81.8892 174.667 81.8892 174.667Z" fill="url(#paint29_linear_60_7155)"/>
<path d="M53.5798 245.018C52.9746 244.803 52.5527 244.254 52.4868 243.616C51.7041 236.021 47.9141 188.934 71.8413 169.565C71.8413 169.565 73.2135 165.975 84.4922 174.8C95.7709 183.625 89.7323 192.875 87.0321 205.633C83.7645 221.072 78.0313 233.692 80.5679 243.192C80.743 243.848 80.3983 244.536 79.7615 244.771C71.0002 248 62.2726 248.107 53.5798 245.018Z" fill="url(#paint30_linear_60_7155)"/>
<path d="M81.1747 155.457C81.1671 156.127 71.6128 169.698 71.6128 169.698C71.6128 169.698 73.3277 173.075 81.5148 175.818L88.5819 161.287L81.1747 155.457Z" fill="#C0423C"/>
<path d="M76.4415 201.893C76.3818 201.893 76.3212 201.876 76.2681 201.84C68.6355 196.683 65.045 188.359 65.0094 188.276C64.9428 188.118 65.0164 187.936 65.1739 187.869C65.3322 187.802 65.5137 187.875 65.5809 188.033C65.6156 188.115 69.1394 196.275 76.6154 201.326C76.7575 201.422 76.7948 201.614 76.6987 201.757C76.6391 201.845 76.5411 201.893 76.4415 201.893Z" fill="url(#paint31_linear_60_7155)"/>
<path d="M87.8105 190.357C87.7087 190.357 87.6087 190.306 87.5494 190.214C87.5263 190.179 85.1945 186.549 80.7533 178.596C79.3876 176.151 77.5927 174.602 75.4186 173.994C71.8181 172.988 68.348 174.918 68.3138 174.937C68.1644 175.02 67.9756 174.97 67.8908 174.821C67.8063 174.672 67.858 174.483 68.007 174.398C68.1567 174.313 71.7259 172.316 75.5799 173.395C77.9218 174.048 79.8448 175.696 81.2951 178.293C85.7251 186.226 88.0481 189.843 88.0711 189.879C88.1639 190.022 88.1224 190.214 87.9784 190.307C87.9261 190.341 87.8681 190.357 87.8105 190.357Z" fill="url(#paint32_linear_60_7155)"/>
<path d="M88.6971 147.68C88.6971 147.68 92.0967 155.49 92.3251 159.589C92.5533 163.688 93.4366 166.347 88.6971 167.173C83.9576 167.998 79.9651 165.637 77.8021 161.554C77.8021 161.554 74.4131 155.263 75.1733 152.686C75.9335 150.109 88.6971 147.68 88.6971 147.68Z" fill="#C0423C"/>
<path d="M79.4216 158.619L79.6915 158.5C80.0348 158.349 80.182 157.94 80.0094 157.606C79.3411 156.315 78.0381 153.356 79.7213 152.665C81.8905 151.776 90.4827 150.024 92.3365 146.975C94.1182 144.045 92.5396 140.262 90.1671 139.187C90.0083 139.115 89.8212 139.172 89.7397 139.326L89.5421 139.7C89.4067 139.956 89.0284 139.917 88.9479 139.639C88.8706 139.372 88.5153 139.32 88.3679 139.556C87.7981 140.468 86.2596 141.947 82.1456 142.706C76.2985 143.785 72.4328 146.151 72.3366 150.192C72.3306 150.448 72.0575 150.591 71.8382 150.458C71.4065 150.194 70.7157 150.071 69.7923 150.847C68.1865 152.198 68.8437 155.7 72.3638 158.581C72.5311 158.718 72.5297 158.979 72.3486 159.097C71.7104 159.512 70.7591 160.501 73.2241 161.819C75.7736 163.181 77.6775 163.07 78.4107 162.949C78.5931 162.919 78.7107 162.742 78.6709 162.561L77.8885 159.01C77.8441 158.809 77.9972 158.619 78.2029 158.619H79.4216V158.619Z" fill="#1E1E1E"/>
<path d="M79.5688 159.368C79.5688 159.368 78.2718 154.379 76.0353 155.778C73.7987 157.177 77.1959 161.368 78.9941 161.554L79.5688 159.368Z" fill="#C0423C"/>
<path d="M123.59 173.076C123.59 173.076 121.886 170.055 121.995 168.587C122.103 167.119 121.188 164.964 122.162 165.123C123.135 165.283 123.336 165.152 123.6 166.914C123.864 168.675 126.936 176.368 123.59 173.076Z" fill="url(#paint33_linear_60_7155)"/>
<path d="M123.911 168.272L123.871 174.308C112.337 186.762 103 187.495 95.4291 184.819C93.1403 188.548 90.3453 193.564 89.0759 197.65C119.88 204.442 127.134 176.123 127.134 176.123C131.306 174.395 132.147 173.384 131.967 172.252L123.911 168.272Z" fill="#C0423C"/>
<path d="M132.782 162.285C131.797 161.885 129.87 158.212 129.502 159.421C129.133 160.629 129.657 162.285 129.502 162.799C129.346 163.313 126.944 169.224 127.424 170.537C127.77 171.485 129.677 171.345 129.968 172.895C130.064 173.409 130.476 173.778 130.953 173.779C131.429 173.779 131.841 173.411 131.938 172.896C131.977 172.69 133.766 162.685 132.782 162.285Z" fill="url(#paint34_linear_60_7155)"/>
<path d="M101.341 149.715C93.5622 165.099 99.7281 183.876 115.112 191.654C127.616 197.976 142.362 195.086 151.621 185.522L205.073 212.547C205.96 212.996 207.016 212.96 207.871 212.451L213.099 209.337C213.188 209.283 213.273 209.224 213.356 209.162C213.379 209.145 213.401 209.126 213.423 209.108C213.484 209.06 213.543 209.009 213.599 208.957C213.618 208.939 213.637 208.921 213.655 208.902C213.725 208.834 213.791 208.762 213.853 208.688C213.854 208.687 213.855 208.686 213.855 208.685C214.512 207.886 214.712 206.77 214.31 205.763L210.062 195.114C209.8 194.457 209.306 193.918 208.674 193.598L203.32 190.891L201.904 193.693L197.305 191.368L198.721 188.565L194.419 186.39L193.115 188.968L187.525 186.142L188.829 183.564L186.746 182.511L186.075 183.838L181.389 181.468L182.06 180.142L178.416 178.299L176.999 181.101L174.395 179.785L175.812 176.983L173.556 175.842L172.139 178.644L167.627 176.363L169.044 173.56L162.701 170.353L159.985 168.98C162.198 155.853 155.784 142.265 143.28 135.943C127.896 128.165 109.119 134.331 101.341 149.715ZM119.552 151.84C122.667 153.415 123.916 157.218 122.341 160.333C120.766 163.448 116.963 164.696 113.848 163.121C110.733 161.547 109.484 157.744 111.059 154.629C112.635 151.514 116.437 150.265 119.552 151.84Z" fill="#CC841D"/>
<path d="M144.667 159.142L170.006 171.953L168.589 174.756L173.101 177.037L174.518 174.235L176.774 175.376L175.357 178.178L177.961 179.494L179.378 176.692L183.022 178.535L182.351 179.862L187.037 182.231L187.708 180.904L189.791 181.957L188.487 184.535L194.077 187.361L195.381 184.783L199.683 186.959L198.267 189.761L202.866 192.086L204.283 189.284L209.636 191.991C210.268 192.311 210.762 192.85 211.024 193.508L215.273 204.156C215.802 205.483 215.288 206.998 214.061 207.73L208.833 210.844C207.978 211.353 206.922 211.389 206.035 210.94L141.51 178.317L144.667 159.142Z" fill="#F79D1D"/>
<path d="M116.074 190.048C131.459 197.826 150.235 191.66 158.014 176.276C165.792 160.892 159.626 142.115 144.242 134.337C128.858 126.559 110.081 132.725 102.303 148.109C94.5245 163.493 100.69 182.27 116.074 190.048ZM114.81 161.515C111.695 159.94 110.447 156.138 112.022 153.022C113.597 149.907 117.399 148.659 120.514 150.234C123.629 151.809 124.878 155.611 123.303 158.726C121.728 161.841 117.926 163.09 114.81 161.515Z" fill="url(#paint35_linear_60_7155)"/>
<path d="M152.583 183.916L206.035 210.941C206.922 211.39 207.978 211.353 208.833 210.844L214.061 207.73C214.849 207.26 215.338 206.467 215.45 205.608C210.579 200.33 164.271 180.109 162.539 175.947C161.923 174.466 161.817 172.224 163.663 168.747L160.947 167.374C163.16 154.247 156.746 140.659 144.242 134.337C128.858 126.559 110.081 132.725 102.303 148.109C94.5246 163.493 100.69 182.27 116.075 190.048C128.579 196.37 143.324 193.48 152.583 183.916ZM120.514 150.234C123.629 151.809 124.878 155.611 123.303 158.726C121.728 161.841 117.926 163.09 114.81 161.515C111.695 159.94 110.447 156.138 112.022 153.023C113.597 149.907 117.399 148.659 120.514 150.234Z" fill="#F79D1D"/>
<path d="M118.839 184.581C131.204 190.832 146.295 185.876 152.547 173.512C158.799 161.147 153.843 146.055 141.478 139.803C129.113 133.552 114.021 138.508 107.77 150.872C101.518 163.237 106.474 178.329 118.839 184.581ZM114.811 161.514C111.695 159.939 110.447 156.137 112.022 153.022C113.597 149.907 117.399 148.658 120.514 150.233C123.629 151.808 124.878 155.611 123.303 158.726C121.728 161.841 117.926 163.09 114.811 161.514Z" fill="#CC841D"/>
<path d="M76.4415 201.894C76.4415 201.894 105.836 211.734 122.277 199.215C123.297 198.439 124.584 198.101 125.849 198.306L132.13 199.33C134.767 199.759 137.278 198.051 137.847 195.441C138.171 193.952 138.327 192.324 137.997 190.925L126.139 190.209L126.478 188.671C126.478 188.671 121.237 189.953 121.131 194.053C121.131 194.053 108.837 202.107 86.4142 189.607C86.4142 189.607 77.6826 196.44 76.4415 201.894Z" fill="#C0423C"/>
<g opacity="0.3">
<path d="M303.477 54.5243C302.793 54.4964 302.261 53.9186 302.289 53.2343C302.344 51.9046 302.341 50.553 302.282 49.2165C302.252 48.5403 302.769 47.9666 303.442 47.9239C303.45 47.9234 303.458 47.9229 303.466 47.9224C304.15 47.892 304.729 48.4222 304.76 49.1067C304.822 50.5134 304.825 51.9366 304.767 53.3362C304.741 53.9763 304.234 54.4831 303.608 54.5228C303.565 54.5255 303.521 54.5264 303.477 54.5243ZM301.547 42.7312C301.306 41.4158 301.007 40.0986 300.657 38.8145C300.477 38.1541 300.866 37.472 301.527 37.2918C302.191 37.1133 302.87 37.5016 303.05 38.1626C303.418 39.5135 303.733 40.9002 303.987 42.284C304.11 42.9576 303.664 43.604 302.99 43.7273C302.941 43.7363 302.892 43.7422 302.844 43.7453C302.225 43.7846 301.661 43.356 301.547 42.7312ZM298.508 32.6554C297.982 31.4301 297.396 30.2129 296.766 29.0369C296.443 28.4331 296.67 27.6814 297.274 27.3581C297.878 27.0358 298.629 27.2624 298.953 27.8661C299.616 29.1045 300.233 30.3868 300.787 31.6768C301.057 32.3061 300.766 33.0353 300.136 33.3059C300.002 33.3635 299.863 33.3956 299.726 33.4043C299.217 33.4365 298.72 33.1506 298.508 32.6554ZM293.291 23.5125C292.504 22.4343 291.66 21.3782 290.784 20.3726C290.334 19.856 290.388 19.0725 290.904 18.6228C291.421 18.1735 292.204 18.2276 292.654 18.7432C293.577 19.8021 294.465 20.9143 295.294 22.0485C295.698 22.6015 295.577 23.3776 295.024 23.7815C294.826 23.9261 294.6 24.0036 294.372 24.0181C293.964 24.0441 293.551 23.8673 293.291 23.5125ZM286.168 15.7594C285.163 14.8854 284.106 14.0418 283.027 13.2531C282.474 12.8485 282.354 12.0725 282.758 11.5198C283.163 10.9665 283.939 10.8463 284.491 11.2511C285.627 12.081 286.739 12.9686 287.796 13.8883C288.313 14.3375 288.367 15.121 287.918 15.6379C287.691 15.8984 287.38 16.0415 287.061 16.0618C286.746 16.0815 286.424 15.9825 286.168 15.7594ZM277.507 9.77588C276.332 9.14466 275.115 8.55639 273.89 8.02682C273.262 7.75511 272.972 7.02488 273.244 6.39655C273.516 5.76772 274.245 5.47813 274.874 5.74984C276.164 6.30687 277.444 6.9265 278.681 7.59073C279.284 7.91509 279.51 8.66673 279.186 9.27024C278.976 9.66225 278.585 9.89479 278.171 9.92112C277.948 9.93535 277.718 9.88975 277.507 9.77588ZM231.456 9.19857C231.134 8.59431 231.362 7.84291 231.967 7.52056C233.205 6.8605 234.489 6.24539 235.783 5.6929C236.413 5.42384 237.141 5.71633 237.41 6.34642C237.679 6.97588 237.387 7.70472 236.757 7.97379C235.529 8.49832 234.31 9.08255 233.134 9.70949C232.973 9.79552 232.801 9.84226 232.63 9.85309C232.159 9.88295 231.692 9.64172 231.456 9.19857ZM267.741 5.86346C266.456 5.50962 265.139 5.20717 263.828 4.96519C263.155 4.84048 262.709 4.19351 262.834 3.52009C262.958 2.84617 263.605 2.40465 264.279 2.52596C265.659 2.78104 267.046 3.09936 268.399 3.47223C269.059 3.65412 269.447 4.33674 269.266 4.99731C269.121 5.52109 268.662 5.87354 268.148 5.90604C268.015 5.91448 267.878 5.90087 267.741 5.86346ZM241.401 4.96255C241.222 4.3016 241.613 3.62049 242.274 3.44162C243.629 3.07556 245.017 2.76316 246.4 2.51236C247.074 2.38702 247.719 2.83786 247.841 3.51153C247.963 4.18533 247.516 4.83066 246.842 4.9531C245.528 5.19143 244.208 5.48821 242.921 5.83638C242.839 5.85855 242.757 5.87153 242.675 5.87682C242.099 5.91335 241.557 5.54149 241.401 4.96255ZM257.347 4.23193C256.016 4.17462 254.665 4.17399 253.331 4.23055C252.646 4.2599 252.068 3.7287 252.039 3.04406C252.01 2.36875 252.528 1.79661 253.199 1.75391C253.208 1.7534 253.217 1.75277 253.225 1.75277C254.63 1.69281 256.052 1.69319 257.453 1.75328C258.138 1.78313 258.669 2.36157 258.639 3.04595C258.612 3.68498 258.105 4.19049 257.48 4.23017C257.437 4.23307 257.392 4.23345 257.347 4.23193Z" fill="#91B3FA"/>
<path d="M225.348 14.6291C225.591 14.6136 225.833 14.5265 226.039 14.363C226.54 13.9651 227.057 13.5716 227.577 13.1921C228.13 12.7885 228.251 12.0124 227.848 11.4594C227.444 10.9059 226.668 10.7838 226.115 11.1888C225.568 11.5876 225.024 12.0017 224.497 12.4202C223.96 12.8459 223.871 13.6264 224.296 14.1624C224.559 14.4933 224.956 14.6541 225.348 14.6291Z" fill="#91B3FA"/>
</g>
<g opacity="0.3">
<path d="M207.267 47.837C207.865 47.7991 208.363 47.3325 208.422 46.7177C208.483 46.0813 208.558 45.4353 208.646 44.7982C208.739 44.1195 208.265 43.4938 207.586 43.4004C206.905 43.3068 206.282 43.7817 206.188 44.4601C206.096 45.1309 206.017 45.8112 205.953 46.4812C205.887 47.1631 206.387 47.7686 207.069 47.8341C207.136 47.8404 207.202 47.8412 207.267 47.837Z" fill="#91B3FA"/>
<path d="M255.917 100.782C255.233 100.792 254.669 100.245 254.659 99.5596C254.65 98.8748 255.196 98.313 255.882 98.3019C257.186 98.2833 258.509 98.2085 259.83 98.08C260.508 98.0117 261.118 98.5128 261.185 99.1945C261.251 99.8763 260.752 100.483 260.07 100.549C259.498 100.605 258.927 100.651 258.357 100.687C257.545 100.739 256.724 100.771 255.917 100.782ZM265.245 98.5188C265.087 97.8527 265.499 97.1843 266.165 97.0265C267.445 96.7229 268.726 96.3625 269.971 95.9544C270.621 95.7394 271.323 96.0957 271.536 96.7467C271.749 97.3974 271.395 98.098 270.744 98.3111C269.432 98.741 268.084 99.1207 266.738 99.4397C266.668 99.4562 266.598 99.4665 266.529 99.4709C265.937 99.5084 265.386 99.1157 265.245 98.5188ZM249.169 100.416C247.8 100.247 246.419 100.018 245.064 99.7328C244.394 99.5918 243.965 98.9342 244.106 98.2636C244.247 97.5935 244.904 97.1653 245.575 97.3053C246.861 97.5761 248.172 97.7943 249.473 97.9545C250.152 98.0385 250.636 98.6574 250.552 99.3375C250.478 99.9387 249.984 100.386 249.401 100.423C249.325 100.428 249.247 100.426 249.169 100.416ZM275.35 95.1999C275.05 94.5845 275.305 93.8415 275.921 93.5414C277.101 92.9654 278.27 92.3321 279.396 91.6592C279.984 91.3073 280.745 91.4993 281.097 92.0876C281.448 92.6755 281.256 93.4367 280.669 93.788C279.483 94.4968 278.251 95.1638 277.009 95.7702C276.859 95.8433 276.701 95.884 276.544 95.8939C276.057 95.9249 275.577 95.6651 275.35 95.1999ZM238.567 97.8919C237.269 97.4262 235.973 96.8983 234.714 96.3229C234.091 96.0382 233.817 95.3026 234.102 94.6797C234.387 94.0563 235.123 93.7823 235.746 94.0672C236.941 94.6136 238.172 95.1151 239.405 95.5571C240.05 95.7885 240.385 96.4988 240.153 97.1435C239.981 97.624 239.543 97.9322 239.064 97.9627C238.9 97.9731 238.731 97.9508 238.567 97.8919ZM228.775 93.1034C227.608 92.3634 226.458 91.5656 225.358 90.732C224.812 90.3181 224.704 89.5405 225.118 88.9943C225.532 88.4476 226.31 88.3406 226.855 88.7549C227.901 89.5467 228.994 90.305 230.103 91.0084C230.682 91.3751 230.853 92.1414 230.487 92.7199C230.266 93.0684 229.899 93.2693 229.517 93.2936C229.264 93.3097 229.005 93.249 228.775 93.1034ZM220.26 86.2945C219.28 85.3173 218.332 84.2878 217.44 83.2352C216.997 82.7123 217.062 81.9302 217.584 81.4873C218.107 81.0439 218.889 81.1094 219.332 81.6317C220.179 82.6322 221.081 83.6099 222.012 84.5386C222.497 85.0225 222.497 85.8077 222.014 86.2923C221.791 86.5152 221.506 86.6357 221.215 86.6541C220.872 86.676 220.522 86.5561 220.26 86.2945ZM213.432 77.7903C212.69 76.6228 211.99 75.41 211.35 74.1856C211.033 73.5786 211.268 72.8292 211.875 72.512C212.481 72.1953 213.232 72.4303 213.549 73.0373C214.156 74.1997 214.821 75.3512 215.526 76.4603C215.893 77.0384 215.722 77.8047 215.144 78.1719C214.962 78.2879 214.76 78.3501 214.559 78.363C214.122 78.3907 213.684 78.186 213.432 77.7903ZM208.638 67.9885C208.173 66.6894 207.757 65.3532 207.402 64.0167C207.226 63.3546 207.621 62.6751 208.283 62.4997C208.943 62.3247 209.624 62.718 209.8 63.38C210.137 64.6499 210.531 65.9189 210.973 67.153C211.204 67.7976 210.868 68.5077 210.223 68.7384C210.111 68.7786 209.997 68.8019 209.884 68.8091C209.346 68.8431 208.828 68.5211 208.638 67.9885ZM206.115 57.3844C205.989 56.3754 205.892 55.35 205.828 54.3371C205.805 53.9702 205.786 53.6045 205.771 53.2388C205.742 52.5548 206.265 51.9638 206.958 51.9484C207.642 51.9195 208.22 52.4512 208.249 53.1359C208.264 53.483 208.282 53.8313 208.304 54.1799C208.365 55.143 208.457 56.1173 208.576 57.0766C208.661 57.7561 208.179 58.376 207.5 58.4609C207.474 58.4639 207.449 58.4666 207.423 58.4682C206.774 58.5095 206.197 58.0384 206.115 57.3844Z" fill="#91B3FA"/>
<path d="M285.548 90.1804C285.794 90.1648 286.038 90.0762 286.245 89.9105C286.769 89.4904 287.293 89.0513 287.804 88.6052C288.321 88.155 288.374 87.3715 287.924 86.8554C287.474 86.3393 286.691 86.2852 286.174 86.7359C285.688 87.1595 285.19 87.5764 284.693 87.9755C284.159 88.4035 284.073 89.1843 284.501 89.7186C284.764 90.0463 285.159 90.2051 285.548 90.1804Z" fill="#91B3FA"/>
</g>
<path d="M287.891 69.049C288.035 68.8477 288.035 68.5776 287.892 68.3759L283.806 62.6246C285.062 59.5786 285.841 56.3105 286.064 52.9273L292.263 49.5695C292.48 49.4518 292.599 49.2089 292.559 48.965L291.174 40.6169C291.134 40.3729 290.943 40.1814 290.699 40.1403L283.748 38.9633C282.445 35.8332 280.653 32.9912 278.481 30.5137L280.492 23.7515C280.562 23.5145 280.474 23.2589 280.273 23.115L273.391 18.1908C273.19 18.047 272.92 18.0465 272.718 18.1897L266.967 22.2755C263.921 21.0198 260.653 20.2408 257.27 20.0181L253.912 13.8188C253.794 13.6012 253.552 13.4824 253.308 13.523L244.959 14.9074C244.715 14.9479 244.524 15.1387 244.483 15.3824L243.306 22.3339C240.175 23.6368 237.334 25.4289 234.856 27.6006L228.094 25.5899C227.857 25.5195 227.601 25.607 227.457 25.8082L222.533 32.6902C222.389 32.8912 222.389 33.1615 222.532 33.3631L226.618 39.1145C225.362 42.1604 224.583 45.4285 224.36 48.8118L218.161 52.1696C217.944 52.2873 217.825 52.5301 217.865 52.774L219.25 61.1224C219.29 61.3664 219.481 61.5577 219.725 61.599L226.676 62.7761C227.979 65.9062 229.771 68.748 231.943 71.2257L229.932 77.9878C229.862 78.2248 229.949 78.4805 230.151 78.6245L237.033 83.5487C237.234 83.6925 237.504 83.693 237.705 83.5498L243.457 79.4639C246.503 80.7196 249.771 81.4984 253.154 81.7213L256.512 87.9206C256.63 88.1379 256.872 88.2567 257.116 88.2164L265.465 86.8319C265.709 86.7914 265.9 86.6007 265.941 86.3569L267.118 79.4055C270.248 78.1025 273.09 76.3103 275.568 74.1388L282.33 76.1494C282.567 76.2199 282.823 76.1321 282.967 75.9311L287.891 69.049Z" fill="#91B3FA"/>
<path d="M254.507 59.3463C249.833 58.9575 246.347 54.8392 246.735 50.1647C246.923 47.9004 247.982 45.8449 249.716 44.3771C251.45 42.9093 253.652 42.204 255.917 42.3929C260.591 42.7816 264.077 46.9 263.689 51.5745C263.335 55.8269 259.895 59.0962 255.757 59.3589C255.346 59.3848 254.929 59.3812 254.507 59.3463ZM250.998 45.8917C249.669 47.0174 248.857 48.5931 248.713 50.3294C248.415 53.9128 251.088 57.0712 254.672 57.369C258.256 57.6681 261.414 54.9935 261.711 51.4097C262.009 47.8263 259.336 44.668 255.752 44.3702C255.427 44.3432 255.105 44.3404 254.785 44.3607C253.397 44.4486 252.079 44.9771 250.998 45.8917Z" fill="#BDD0FB"/>
<path d="M256.361 71.6305C257.072 71.5854 257.784 71.5043 258.496 71.3863C258.721 71.3492 258.944 71.3083 259.167 71.2641C260.266 71.0453 261.346 70.7394 262.39 70.3513C262.404 70.346 262.418 70.3408 262.433 70.3356C262.473 70.3205 262.513 70.3052 262.553 70.2896C262.632 70.2599 262.71 70.2291 262.788 70.1985C262.993 70.1175 263.114 69.9152 263.101 69.7064C263.098 69.6556 263.086 69.6043 263.067 69.5547C262.966 69.2999 262.678 69.1761 262.423 69.2762C261.112 69.7948 259.736 70.1754 258.334 70.4075C251.37 71.5636 244.637 68.9386 240.236 64.0395C237.788 61.3148 236.062 57.8861 235.42 54.0125C235.307 53.3333 235.23 52.6533 235.187 51.9754C234.898 47.4133 236.176 42.9279 238.872 39.1603C241.969 34.8324 246.565 31.9693 251.815 31.0987C262.657 29.3018 272.932 36.6566 274.729 47.4937C274.84 48.162 274.917 48.8332 274.959 49.5048C275.143 52.4149 274.689 55.333 273.617 58.048C273.59 58.1181 273.579 58.1907 273.584 58.2612C273.596 58.4469 273.712 58.6186 273.897 58.6913C274.152 58.7911 274.44 58.6675 274.54 58.4117C275.665 55.5613 276.142 52.4975 275.949 49.4424C275.904 48.7375 275.824 48.033 275.708 47.3316C273.821 35.9536 263.027 28.2336 251.653 30.1195C246.141 31.0334 241.316 34.0391 238.065 38.5828C235.235 42.538 233.893 47.2469 234.196 52.0362C234.242 52.7479 234.323 53.4616 234.441 54.1745C235.355 59.6862 238.361 64.5119 242.904 67.7627C246.861 70.5933 251.571 71.9345 256.361 71.6305Z" fill="#BDD0FB"/>
<g opacity="0.3">
<path d="M347.916 84.4589C348.247 84.4379 348.538 84.2028 348.614 83.863C348.757 83.2287 348.884 82.5814 348.989 81.9391C349.057 81.5218 348.774 81.1282 348.356 81.0594C347.939 80.9893 347.545 81.2744 347.477 81.6917C347.377 82.3038 347.256 82.9206 347.12 83.526C347.027 83.9382 347.286 84.3482 347.698 84.4419C347.771 84.4583 347.845 84.4635 347.916 84.4589Z" fill="#91B3FA"/>
<path d="M348.602 78.6178C348.18 78.6011 347.85 78.2458 347.866 77.8226C347.907 76.7557 347.893 75.6743 347.826 74.609C347.812 74.3842 347.795 74.1589 347.775 73.933C347.74 73.5118 348.053 73.1412 348.474 73.1054C348.874 73.0875 349.266 73.3828 349.302 73.8047C349.322 74.041 349.34 74.2768 349.355 74.512C349.426 75.6288 349.44 76.7626 349.397 77.8815C349.382 78.2774 349.068 78.5919 348.681 78.6165C348.655 78.6181 348.629 78.6183 348.602 78.6178ZM347.212 70.084C346.947 68.8169 346.601 67.5548 346.184 66.3333C346.047 65.9327 346.26 65.498 346.661 65.3608C347.059 65.2253 347.497 65.4374 347.633 65.838C348.071 67.1182 348.434 68.4414 348.712 69.7699C348.798 70.1841 348.533 70.59 348.119 70.677C348.082 70.6846 348.045 70.6891 348.009 70.6914C347.635 70.7152 347.291 70.4612 347.212 70.084ZM344.699 62.7376C344.132 61.5758 343.486 60.4377 342.779 59.3537C342.548 58.9996 342.648 58.5248 343.002 58.2939C343.358 58.0623 343.831 58.1619 344.063 58.5168C344.804 59.6531 345.481 60.8477 346.076 62.0655C346.261 62.4457 346.103 62.9047 345.723 63.09C345.63 63.1349 345.533 63.1598 345.436 63.166C345.135 63.1851 344.839 63.0248 344.699 62.7376ZM340.457 56.2332C339.621 55.2444 338.716 54.2983 337.768 53.4229C337.457 53.1353 337.438 52.6509 337.725 52.3404C338.012 52.0306 338.497 52.0103 338.808 52.2971C339.802 53.216 340.75 54.2073 341.627 55.2445C341.9 55.5675 341.859 56.0512 341.536 56.3244C341.405 56.4339 341.249 56.4932 341.091 56.5033C340.857 56.5181 340.619 56.426 340.457 56.2332ZM334.755 50.9615C333.705 50.206 332.598 49.5086 331.465 48.888C331.094 48.6852 330.958 48.2193 331.161 47.8482C331.365 47.477 331.83 47.3403 332.201 47.5447C333.389 48.1948 334.549 48.9261 335.65 49.7176C335.993 49.9649 336.072 50.4434 335.825 50.7866C335.685 50.9805 335.472 51.09 335.251 51.1041C335.08 51.1148 334.905 51.069 334.755 50.9615ZM327.947 47.2336C326.746 46.7567 325.503 46.3506 324.254 46.0268C323.845 45.9208 323.598 45.5025 323.705 45.0932C323.811 44.6839 324.228 44.4387 324.639 44.5437C325.949 44.8834 327.252 45.3096 328.512 45.8097C328.905 45.9662 329.098 46.4112 328.942 46.8041C328.829 47.0885 328.564 47.268 328.278 47.2863C328.168 47.2931 328.056 47.277 327.947 47.2336ZM320.437 45.2848C319.159 45.1179 317.854 45.029 316.557 45.0214C316.134 45.0183 315.793 44.6734 315.796 44.2505C315.799 43.8276 316.143 43.4932 316.567 43.4888C317.926 43.4977 319.295 43.5907 320.635 43.7658C321.055 43.8208 321.35 44.2053 321.296 44.6247C321.247 44.9936 320.944 45.2669 320.585 45.2897C320.537 45.2927 320.487 45.2915 320.437 45.2848ZM307.918 45.3629C307.818 44.9519 308.07 44.5378 308.481 44.4374C309.619 44.1598 310.792 43.94 311.963 43.7839C312.141 43.7592 312.318 43.7374 312.496 43.7164C312.913 43.6554 313.297 43.9683 313.345 44.3896C313.394 44.8099 313.092 45.1896 312.672 45.2387C312.505 45.2576 312.338 45.2786 312.169 45.3022C311.048 45.4512 309.929 45.6609 308.844 45.9255C308.799 45.9366 308.754 45.9431 308.71 45.9459C308.346 45.9691 308.008 45.729 307.918 45.3629Z" fill="#91B3FA"/>
</g>
<g opacity="0.3">
<path d="M317.971 109.62C316.637 109.688 315.288 109.674 313.961 109.58C313.539 109.55 313.221 109.184 313.251 108.762C313.281 108.34 313.65 108.026 314.069 108.052C315.335 108.142 316.622 108.154 317.894 108.09C318.316 108.069 318.676 108.394 318.697 108.817C318.718 109.236 318.398 109.593 317.981 109.62C317.978 109.62 317.974 109.62 317.971 109.62ZM321.074 108.553C321.002 108.136 321.282 107.74 321.699 107.668C322.953 107.452 324.206 107.158 325.425 106.794C325.828 106.674 326.257 106.903 326.378 107.309C326.499 107.714 326.269 108.14 325.864 108.262C324.587 108.644 323.273 108.952 321.958 109.178C321.931 109.182 321.904 109.186 321.876 109.188C321.491 109.212 321.141 108.943 321.074 108.553ZM309.983 109.053C308.672 108.796 307.366 108.456 306.101 108.044C305.698 107.913 305.478 107.48 305.61 107.079C305.74 106.676 306.171 106.458 306.575 106.587C307.782 106.98 309.027 107.304 310.278 107.55C310.693 107.631 310.964 108.034 310.882 108.448C310.814 108.797 310.518 109.044 310.179 109.066C310.115 109.07 310.049 109.066 309.983 109.053ZM328.622 106.484C328.452 106.097 328.629 105.645 329.016 105.475C330.181 104.964 331.327 104.377 332.42 103.728C332.784 103.513 333.254 103.633 333.47 103.996C333.685 104.36 333.566 104.83 333.202 105.045C332.055 105.726 330.853 106.343 329.631 106.878C329.547 106.915 329.459 106.936 329.372 106.941C329.06 106.961 328.755 106.787 328.622 106.484ZM302.372 106.572C301.164 106.009 299.979 105.365 298.847 104.66C298.488 104.436 298.379 103.963 298.602 103.604C298.826 103.245 299.298 103.135 299.658 103.359C300.737 104.033 301.868 104.646 303.02 105.183C303.403 105.362 303.569 105.818 303.39 106.201C303.268 106.464 303.014 106.625 302.744 106.642C302.62 106.65 302.492 106.628 302.372 106.572ZM295.577 102.337C294.538 101.499 293.54 100.591 292.611 99.6369C292.316 99.3341 292.323 98.8495 292.626 98.5544C292.928 98.2594 293.414 98.2653 293.709 98.5689C294.595 99.4781 295.547 100.345 296.539 101.145C296.868 101.41 296.92 101.892 296.655 102.222C296.514 102.396 296.313 102.492 296.106 102.505C295.922 102.517 295.733 102.462 295.577 102.337ZM289.992 96.5974C289.182 95.5342 288.431 94.4118 287.759 93.2626C287.546 92.8969 287.669 92.4281 288.034 92.2146C288.399 92.0009 288.868 92.1249 289.082 92.4891C289.722 93.5855 290.439 94.6553 291.211 95.6685C291.467 96.0052 291.402 96.486 291.065 96.7421C290.941 96.8377 290.796 96.8881 290.651 96.8973C290.403 96.913 290.153 96.809 289.992 96.5974Z" fill="#91B3FA"/>
<path d="M336.132 102.929C336.279 102.919 336.425 102.867 336.551 102.77C337.07 102.369 337.579 101.951 338.065 101.527C338.383 101.249 338.416 100.765 338.138 100.446C337.86 100.129 337.377 100.095 337.057 100.373C336.594 100.777 336.109 101.176 335.614 101.558C335.279 101.817 335.218 102.299 335.477 102.633C335.638 102.842 335.886 102.944 336.132 102.929Z" fill="#91B3FA"/>
</g>
<path d="M338.165 88.4881C338.261 88.3534 338.261 88.1726 338.165 88.0377L335.431 84.1892C336.271 82.1509 336.793 79.9641 336.942 77.7002L341.09 75.4534C341.236 75.3745 341.315 75.2121 341.288 75.0487L340.361 69.4626C340.334 69.2994 340.207 69.1711 340.044 69.1437L335.392 68.3561C334.52 66.2615 333.321 64.3598 331.868 62.7019L333.213 58.1769C333.261 58.0184 333.202 57.8473 333.067 57.7509L328.462 54.4559C328.328 54.3596 328.147 54.3593 328.012 54.4551L324.163 57.1891C322.125 56.3489 319.938 55.8277 317.674 55.6786L315.427 51.5303C315.348 51.3848 315.186 51.3053 315.023 51.3324L309.437 52.2588C309.273 52.2858 309.145 52.4136 309.118 52.5767L308.33 57.2283C306.235 58.1001 304.334 59.2993 302.676 60.7526L298.151 59.4072C297.992 59.36 297.821 59.4186 297.725 59.5533L294.43 64.1585C294.334 64.293 294.334 64.4738 294.429 64.6087L297.163 68.4574C296.323 70.4955 295.802 72.6825 295.653 74.9463L291.505 77.1932C291.359 77.2719 291.28 77.4343 291.307 77.5977L292.233 83.184C292.26 83.3472 292.388 83.4752 292.551 83.5029L297.203 84.2905C298.074 86.385 299.274 88.2866 300.727 89.9446L299.382 94.4696C299.334 94.6282 299.393 94.7993 299.528 94.8956L304.133 98.1907C304.268 98.2869 304.448 98.2872 304.583 98.1914L308.432 95.4573C310.47 96.2975 312.657 96.8186 314.921 96.9678L317.168 101.116C317.247 101.262 317.409 101.341 317.572 101.314L323.158 100.388C323.322 100.36 323.45 100.233 323.477 100.07L324.265 95.4181C326.36 94.5463 328.261 93.347 329.919 91.8938L334.444 93.2393C334.603 93.2865 334.774 93.2277 334.87 93.0932L338.165 88.4881Z" fill="#91B3FA"/>
<path d="M315.818 82.0971C314.275 81.9694 312.875 81.2481 311.875 80.0665C310.875 78.8857 310.395 77.3857 310.523 75.8431C310.788 72.6595 313.589 70.2893 316.777 70.5487C319.961 70.8142 322.336 73.6198 322.071 76.8026C321.943 78.3451 321.222 79.7452 320.041 80.7451C319.081 81.5579 317.91 82.0272 316.676 82.1054C316.393 82.1236 316.106 82.1208 315.818 82.0971ZM312.05 75.9696C311.955 77.1044 312.308 78.2078 313.044 79.0771C313.779 79.9456 314.81 80.4761 315.944 80.5705C317.079 80.6634 318.182 80.3115 319.051 79.5758C319.92 78.8409 320.45 77.8102 320.544 76.6761C320.739 74.3342 318.992 72.2706 316.651 72.0753C316.439 72.058 316.23 72.0563 316.025 72.0693C313.951 72.2009 312.227 73.8395 312.05 75.9696Z" fill="#BDD0FB"/>
<path d="M317.108 90.6472C317.592 90.6164 318.078 90.5609 318.566 90.4804C319.535 90.3199 320.489 90.0608 321.403 89.709C321.444 89.6928 321.485 89.6767 321.526 89.6606C321.843 89.5356 322.029 89.2231 322.009 88.9006C322.004 88.8223 321.987 88.7432 321.957 88.6665C321.801 88.2731 321.356 88.0825 320.963 88.2363C320.112 88.5729 319.222 88.819 318.316 88.9687H318.316C318.266 88.977 318.216 88.9847 318.167 88.9923C316.02 89.3273 313.871 89.1144 311.878 88.4014C310.796 88.0143 309.76 87.479 308.796 86.8019C308.788 86.7963 308.78 86.7909 308.772 86.7854C308.748 86.7681 308.724 86.7516 308.701 86.7344C305.899 84.7295 304.045 81.7539 303.482 78.3552C303.409 77.9153 303.359 77.4755 303.331 77.0365C303.144 74.0832 303.971 71.1794 305.717 68.7398C307.721 65.9382 310.697 64.0853 314.096 63.5218C317.492 62.9598 320.909 63.7519 323.711 65.756C326.512 67.7608 328.366 70.7365 328.93 74.1353C329.002 74.5676 329.051 75.0023 329.078 75.4367C329.198 77.3211 328.903 79.2098 328.21 80.9673C328.167 81.0757 328.151 81.1877 328.158 81.2967C328.176 81.5834 328.356 81.8486 328.641 81.961C329.035 82.1151 329.48 81.9236 329.635 81.5292C330.411 79.5625 330.74 77.4489 330.607 75.3415C330.577 74.8548 330.521 74.3688 330.441 73.8852C329.81 70.0824 327.737 66.7533 324.602 64.5104C321.467 62.268 317.649 61.3771 313.845 62.0105C310.043 62.6409 306.714 64.714 304.471 67.8494C302.518 70.5781 301.592 73.8268 301.802 77.131C301.833 77.6215 301.889 78.1142 301.97 78.6058C303.191 85.9674 309.816 91.1101 317.108 90.6472Z" fill="#BDD0FB"/>
<defs>
<linearGradient id="paint0_linear_60_7155" x1="391.236" y1="450.045" x2="83.0533" y2="67.3016" gradientUnits="userSpaceOnUse">
<stop stop-color="#DAE3FE"/>
<stop offset="1" stop-color="#E9EFFD"/>
</linearGradient>
<linearGradient id="paint1_linear_60_7155" x1="74.4249" y1="176.482" x2="100.938" y2="176.482" gradientUnits="userSpaceOnUse">
<stop stop-color="#DAE3FE"/>
<stop offset="1" stop-color="#E9EFFD"/>
</linearGradient>
<linearGradient id="paint2_linear_60_7155" x1="44.9405" y1="176.479" x2="71.3987" y2="176.479" gradientUnits="userSpaceOnUse">
<stop stop-color="#DAE3FE"/>
<stop offset="1" stop-color="#E9EFFD"/>
</linearGradient>
<linearGradient id="paint3_linear_60_7155" x1="15.486" y1="176.477" x2="41.889" y2="176.477" gradientUnits="userSpaceOnUse">
<stop stop-color="#DAE3FE"/>
<stop offset="1" stop-color="#E9EFFD"/>
</linearGradient>
<linearGradient id="paint4_linear_60_7155" x1="74.0963" y1="195.772" x2="100.563" y2="195.772" gradientUnits="userSpaceOnUse">
<stop stop-color="#DAE3FE"/>
<stop offset="1" stop-color="#E9EFFD"/>
</linearGradient>
<linearGradient id="paint5_linear_60_7155" x1="44.6634" y1="195.76" x2="71.0751" y2="195.76" gradientUnits="userSpaceOnUse">
<stop stop-color="#DAE3FE"/>
<stop offset="1" stop-color="#E9EFFD"/>
</linearGradient>
<linearGradient id="paint6_linear_60_7155" x1="15.2599" y1="195.747" x2="41.6167" y2="195.747" gradientUnits="userSpaceOnUse">
<stop stop-color="#DAE3FE"/>
<stop offset="1" stop-color="#E9EFFD"/>
</linearGradient>
<linearGradient id="paint7_linear_60_7155" x1="73.7687" y1="214.895" x2="100.189" y2="214.895" gradientUnits="userSpaceOnUse">
<stop stop-color="#DAE3FE"/>
<stop offset="1" stop-color="#E9EFFD"/>
</linearGradient>
<linearGradient id="paint8_linear_60_7155" x1="44.387" y1="214.873" x2="70.7524" y2="214.873" gradientUnits="userSpaceOnUse">
<stop stop-color="#DAE3FE"/>
<stop offset="1" stop-color="#E9EFFD"/>
</linearGradient>
<linearGradient id="paint9_linear_60_7155" x1="15.0346" y1="214.851" x2="41.3453" y2="214.851" gradientUnits="userSpaceOnUse">
<stop stop-color="#DAE3FE"/>
<stop offset="1" stop-color="#E9EFFD"/>
</linearGradient>
<linearGradient id="paint10_linear_60_7155" x1="73.4421" y1="233.951" x2="99.816" y2="233.951" gradientUnits="userSpaceOnUse">
<stop stop-color="#DAE3FE"/>
<stop offset="1" stop-color="#E9EFFD"/>
</linearGradient>
<linearGradient id="paint11_linear_60_7155" x1="44.1113" y1="233.919" x2="70.4307" y2="233.919" gradientUnits="userSpaceOnUse">
<stop stop-color="#DAE3FE"/>
<stop offset="1" stop-color="#E9EFFD"/>
</linearGradient>
<linearGradient id="paint12_linear_60_7155" x1="14.8099" y1="233.888" x2="41.0748" y2="233.888" gradientUnits="userSpaceOnUse">
<stop stop-color="#DAE3FE"/>
<stop offset="1" stop-color="#E9EFFD"/>
</linearGradient>
<linearGradient id="paint13_linear_60_7155" x1="73.1169" y1="252.941" x2="99.4446" y2="252.941" gradientUnits="userSpaceOnUse">
<stop stop-color="#DAE3FE"/>
<stop offset="1" stop-color="#E9EFFD"/>
</linearGradient>
<linearGradient id="paint14_linear_60_7155" x1="43.8369" y1="252.9" x2="70.1103" y2="252.9" gradientUnits="userSpaceOnUse">
<stop stop-color="#DAE3FE"/>
<stop offset="1" stop-color="#E9EFFD"/>
</linearGradient>
<linearGradient id="paint15_linear_60_7155" x1="14.5862" y1="252.859" x2="40.8054" y2="252.859" gradientUnits="userSpaceOnUse">
<stop stop-color="#DAE3FE"/>
<stop offset="1" stop-color="#E9EFFD"/>
</linearGradient>
<linearGradient id="paint16_linear_60_7155" x1="72.7926" y1="271.866" x2="99.0744" y2="271.866" gradientUnits="userSpaceOnUse">
<stop stop-color="#DAE3FE"/>
<stop offset="1" stop-color="#E9EFFD"/>
</linearGradient>
<linearGradient id="paint17_linear_60_7155" x1="43.5632" y1="271.816" x2="69.791" y2="271.816" gradientUnits="userSpaceOnUse">
<stop stop-color="#DAE3FE"/>
<stop offset="1" stop-color="#E9EFFD"/>
</linearGradient>
<linearGradient id="paint18_linear_60_7155" x1="14.3631" y1="271.766" x2="40.5368" y2="271.766" gradientUnits="userSpaceOnUse">
<stop stop-color="#DAE3FE"/>
<stop offset="1" stop-color="#E9EFFD"/>
</linearGradient>
<linearGradient id="paint19_linear_60_7155" x1="72.4695" y1="290.725" x2="98.7056" y2="290.725" gradientUnits="userSpaceOnUse">
<stop stop-color="#DAE3FE"/>
<stop offset="1" stop-color="#E9EFFD"/>
</linearGradient>
<linearGradient id="paint20_linear_60_7155" x1="43.2908" y1="290.666" x2="69.4729" y2="290.666" gradientUnits="userSpaceOnUse">
<stop stop-color="#DAE3FE"/>
<stop offset="1" stop-color="#E9EFFD"/>
</linearGradient>
<linearGradient id="paint21_linear_60_7155" x1="14.1409" y1="290.607" x2="40.2692" y2="290.607" gradientUnits="userSpaceOnUse">
<stop stop-color="#DAE3FE"/>
<stop offset="1" stop-color="#E9EFFD"/>
</linearGradient>
<linearGradient id="paint22_linear_60_7155" x1="72.1477" y1="309.52" x2="98.3382" y2="309.52" gradientUnits="userSpaceOnUse">
<stop stop-color="#DAE3FE"/>
<stop offset="1" stop-color="#E9EFFD"/>
</linearGradient>
<linearGradient id="paint23_linear_60_7155" x1="43.0191" y1="309.452" x2="69.1558" y2="309.452" gradientUnits="userSpaceOnUse">
<stop stop-color="#DAE3FE"/>
<stop offset="1" stop-color="#E9EFFD"/>
</linearGradient>
<linearGradient id="paint24_linear_60_7155" x1="13.9194" y1="309.383" x2="40.0024" y2="309.383" gradientUnits="userSpaceOnUse">
<stop stop-color="#DAE3FE"/>
<stop offset="1" stop-color="#E9EFFD"/>
</linearGradient>
<linearGradient id="paint25_linear_60_7155" x1="71.8267" y1="328.251" x2="97.9717" y2="328.251" gradientUnits="userSpaceOnUse">
<stop stop-color="#DAE3FE"/>
<stop offset="1" stop-color="#E9EFFD"/>
</linearGradient>
<linearGradient id="paint26_linear_60_7155" x1="42.7483" y1="328.172" x2="68.8398" y2="328.172" gradientUnits="userSpaceOnUse">
<stop stop-color="#DAE3FE"/>
<stop offset="1" stop-color="#E9EFFD"/>
</linearGradient>
<linearGradient id="paint27_linear_60_7155" x1="13.6987" y1="328.095" x2="39.7366" y2="328.095" gradientUnits="userSpaceOnUse">
<stop stop-color="#DAE3FE"/>
<stop offset="1" stop-color="#E9EFFD"/>
</linearGradient>
<linearGradient id="paint28_linear_60_7155" x1="234.454" y1="61.3991" x2="275.393" y2="-33.0741" gradientUnits="userSpaceOnUse">
<stop stop-color="#09005D"/>
<stop offset="1" stop-color="#1A0F91"/>
</linearGradient>
<linearGradient id="paint29_linear_60_7155" x1="112.382" y1="156.482" x2="47.1145" y2="228.487" gradientUnits="userSpaceOnUse">
<stop stop-color="#4042E2"/>
<stop offset="1" stop-color="#4F52FF"/>
</linearGradient>
<linearGradient id="paint30_linear_60_7155" x1="99.6935" y1="160.481" x2="4.55331" y2="335.105" gradientUnits="userSpaceOnUse">
<stop stop-color="#4042E2"/>
<stop offset="1" stop-color="#4F52FF"/>
</linearGradient>
<linearGradient id="paint31_linear_60_7155" x1="80.4189" y1="121.938" x2="77.3397" y2="145.453" gradientUnits="userSpaceOnUse">
<stop stop-color="#4042E2"/>
<stop offset="1" stop-color="#4F52FF"/>
</linearGradient>
<linearGradient id="paint32_linear_60_7155" x1="85.8049" y1="122.644" x2="82.7256" y2="146.158" gradientUnits="userSpaceOnUse">
<stop stop-color="#4042E2"/>
<stop offset="1" stop-color="#4F52FF"/>
</linearGradient>
<linearGradient id="paint33_linear_60_7155" x1="132.996" y1="161.229" x2="91.848" y2="196.773" gradientUnits="userSpaceOnUse">
<stop stop-color="#FEBBBA"/>
<stop offset="1" stop-color="#FF928E"/>
</linearGradient>
<linearGradient id="paint34_linear_60_7155" x1="134.52" y1="162.992" x2="93.3714" y2="198.537" gradientUnits="userSpaceOnUse">
<stop stop-color="#FEBBBA"/>
<stop offset="1" stop-color="#FF928E"/>
</linearGradient>
<linearGradient id="paint35_linear_60_7155" x1="93.91" y1="159.482" x2="257.091" y2="171.682" gradientUnits="userSpaceOnUse">
<stop stop-color="#FF9085"/>
<stop offset="1" stop-color="#FB6FBB"/>
</linearGradient>
</defs>
</svg>
