<svg width="404" height="404" viewBox="0 0 404 404" fill="none" xmlns="http://www.w3.org/2000/svg">
<path d="M357.021 347.513C348.826 356.154 341.073 361.726 334.946 366.129C262.937 417.88 177.731 402.795 159.622 399.111C132.882 393.671 81.192 383.155 43.8216 339.137C-12.7169 272.542 -3.913 167.622 39.9421 98.3632C47.9639 85.6946 90.3373 15.3808 176.461 4.1047C228.582 -2.71944 289.339 11.0441 333.337 47.9655C425.693 125.467 419.118 282.033 357.021 347.513Z" fill="url(#paint0_linear_52_5710)"/>
<path d="M9.46832 3.7212C8.96058 1.55995 12.001 0.123148 13.8627 1.63295C32.768 16.9633 78.192 62.8707 66.8715 143.097C52.6683 243.753 76.9504 280.482 107.176 302.886C107.176 302.886 65.6664 292.35 39.5506 255.081C-24.5698 163.577 18.496 42.1505 9.46832 3.7212Z" fill="#BDD0FB"/>
<path d="M23.8557 35.1602C26.2206 46.3657 28.3287 57.6056 29.9576 68.8959C31.6549 80.1769 32.9556 91.4971 33.8456 102.836C34.6852 114.177 35.2782 125.53 35.3119 136.888C35.4047 148.245 34.9326 159.592 34.4123 170.984C33.966 182.372 33.4416 193.842 34.2752 205.393C35.0951 216.921 37.5215 228.549 42.3368 239.45C43.5404 242.167 44.8062 244.875 46.244 247.492C47.6264 250.133 49.1445 252.722 50.7157 255.286C53.8884 260.403 57.4598 265.346 61.4398 270.038C69.4284 279.406 79.0631 287.717 89.6771 294.75C90.7941 295.49 92.3947 295.308 93.252 294.344C94.0938 293.397 93.9058 292.047 92.841 291.298L92.8335 291.292C90.308 289.519 87.8091 287.722 85.4115 285.835C84.1951 284.909 83.0288 283.937 81.8418 282.985C80.698 281.995 79.5094 281.043 78.4023 280.024C73.8954 276.012 69.72 271.733 65.932 267.207C58.3125 258.199 52.2128 248.161 47.5915 237.754C45.3483 232.527 43.555 227.166 42.2457 221.704C40.9411 216.241 40.1205 210.683 39.6668 205.08C38.7579 193.868 39.1685 182.512 39.5199 171.122C39.8543 159.729 40.0996 148.278 39.7991 136.837C39.6666 131.117 39.4151 125.399 39.0453 119.688C38.8794 116.832 38.6495 113.979 38.4256 111.126C38.1699 108.275 37.8961 105.426 37.5954 102.579C36.3681 91.1925 34.7391 79.8443 32.6973 68.5564C30.5928 57.277 28.1424 46.0496 25.1952 34.9226C25.1108 34.6044 24.7442 34.4057 24.376 34.4784C24.0183 34.5493 23.7912 34.8517 23.8557 35.1602Z" fill="white"/>
<path d="M61.0346 221.584C59.1659 224.4 55.0286 224.392 53.1335 221.594C42.6768 206.153 17.0602 159.824 35.6596 98.1938C51.366 46.1498 54.9369 16.4368 55.6233 2.83585C55.7684 -0.0401934 59.5008 -1.05928 61.092 1.34091C78.6483 27.8209 128.746 119.542 61.0346 221.584Z" fill="#91B3FA"/>
<path d="M56.5816 220.529C56.5028 220.558 56.4205 220.579 56.3345 220.592C55.6145 220.704 54.9398 220.212 54.8275 219.492C54.7003 218.675 42.3194 137.027 60.8891 63.6768C61.068 62.9711 61.7856 62.5431 62.4924 62.7213C63.1989 62.9004 63.6265 63.6179 63.4479 64.3246C45.0131 137.141 57.3088 218.274 57.4351 219.085C57.5339 219.719 57.1635 220.318 56.5816 220.529Z" fill="white"/>
<path d="M284.478 72.6143L166.23 62.088L47.9812 73.9912V327.205L166.23 320.937L284.478 327.886L402.579 317.28V66.7285L284.478 72.6143Z" fill="#BDD0FB"/>
<path d="M168.768 317.689L56.416 323.635V83.4259L168.768 72.1339V317.689Z" fill="#91B3FA"/>
<path d="M281.119 321.757L168.768 315.165V69.6097L281.119 79.5955V321.757Z" fill="#7D97F4"/>
<path d="M393.331 311.695L281.12 321.757V79.5955L393.331 74.012V311.695Z" fill="#91B3FA"/>
<path opacity="0.47" d="M166.224 315.232H168.768V69.6097L166.224 72.1338V315.232Z" fill="white"/>
<path d="M56.416 172.034C66.0398 191.316 86.6828 208.066 104.97 219.467C113.293 224.656 121.989 229.58 131.559 231.728C141.129 233.875 151.803 232.924 159.728 227.145C170.03 219.633 173.867 205.921 184.704 199.038C190.23 195.528 196.882 196.768 202.648 193.141C208.324 189.57 212.64 183.614 213.509 176.886C214.146 171.954 213.162 166.958 213.317 161.988C213.911 142.892 230.521 128.359 236.815 110.32C240.602 99.4666 240.517 87.6995 240.389 76.2048C246.348 77.1573 252.396 77.5532 258.428 77.3858C254.669 94.0511 250.854 110.882 243.452 126.279C239.714 134.054 235.066 141.455 232.499 149.692C231.44 153.088 230.748 156.73 231.557 160.194C232.366 163.658 234.983 166.887 238.486 167.509C244.702 168.612 251.138 162.073 255.93 158.987C262.083 155.025 268.666 151.663 275.75 149.726C282.62 147.848 289.801 146.499 295.852 142.742C305.227 136.922 310.389 126.294 314.176 115.93C318.806 103.262 322.125 90.1144 324.061 76.7661C335.514 76.7502 343.278 76.9126 353.948 75.9717C339.034 96.5936 328.061 119.49 323.302 144.49C322.381 149.326 321.668 154.333 322.716 159.143C325.82 173.403 350.308 183.125 360.896 191.751C372.746 201.405 383.688 212.394 393.331 224.271V242.02C377.884 225.555 359.863 211.922 339.872 201.448C332.534 197.603 317.808 186.214 309.423 188.076C305.208 189.012 301.114 190.491 297.273 192.463C295.481 193.384 293.707 194.442 292.408 195.982C290.842 197.838 290.095 200.23 289.385 202.551C288.347 205.948 287.301 209.389 287.149 212.937C287.078 214.602 287.205 216.269 287.407 217.923C288.31 225.318 290.727 232.526 294.465 238.971C296.424 242.349 300.504 245.846 303.134 248.878C310.938 257.873 320.126 265.823 326.208 276.06C330.409 283.131 332.964 290.978 336.385 298.422C339.303 304.551 343.962 309.773 347.151 315.791C343.387 316.154 339.624 316.517 335.861 316.88C331.044 307.317 324.883 298.432 317.616 290.568C313.512 286.128 310.043 281.856 305.232 277.971C295.487 270.103 285.362 261.969 273.403 257.755C260.7 253.278 250.464 261.267 239.441 267.18C223.499 275.732 206.228 279.974 188.266 281.195C180.822 281.702 176.707 286.292 169.685 288.385C162.107 290.644 155.007 288.996 148.564 284.534C124.991 268.211 102.502 249.85 83.6124 228.185C73.9066 217.053 55.7211 203.136 56.1628 188.243C56.4984 176.918 55.6813 172.532 56.416 172.034Z" fill="#233E83"/>
<path d="M223.859 354.234H11.0447V373.759H223.859V354.234Z" fill="#1E1E1E" fill-opacity="0.75"/>
<path d="M12.6066 373.759H9.68525C7.84806 373.759 6.35889 372.269 6.35889 370.432V354.234H12.6066V373.759Z" fill="#1E1E1E"/>
<path d="M221.516 242.513C221.516 237.861 216.6 233.965 211.269 233.965H10.4478C5.11634 233.965 0.89209 237.861 0.89209 242.513V348.349C0.89209 353.001 5.11634 356.968 10.4478 356.968H211.269C216.601 356.968 221.516 353.001 221.516 348.349L221.516 242.513Z" fill="#F79D1D"/>
<path d="M214.487 246.778C214.487 242.522 210.819 239.041 205.791 239.041H16.3423C11.3145 239.041 6.35889 242.522 6.35889 246.778V343.522C6.35889 347.778 11.3145 351.891 16.3423 351.891H205.791C210.819 351.891 214.487 347.778 214.487 343.522L214.487 246.778Z" fill="#CC841D"/>
<path d="M291.268 319.628L278.076 278.938C277.746 277.916 276.792 277.309 275.718 277.309C266.511 277.309 224.64 277.309 222.688 277.309V373.759H294.392L291.268 319.628Z" fill="#F79D1D"/>
<path d="M294.789 358.979C294.079 358.512 293.216 358.259 292.226 358.278L236.964 359.343L236.719 375.045L291.933 376.402C293.957 376.402 295.708 375.425 295.708 374.057V360.755C295.708 360.086 295.499 359.445 294.789 358.979Z" fill="#1E1E1E"/>
<path d="M280.97 316.8L272.996 285.17C272.718 284.07 271.728 283.166 270.594 283.166H239.408C238.738 283.166 238.097 283.571 237.63 284.052C237.164 284.532 236.912 285.248 236.932 285.918L237.679 311.242C237.714 312.43 238.588 313.442 239.761 313.632L278.172 319.846C278.996 319.979 279.831 319.693 280.395 319.077C280.958 318.462 281.174 317.609 280.97 316.8Z" fill="#1E1E1E"/>
<path d="M279.377 282.92L278.97 282.987C278.28 283.101 277.67 283.502 277.291 284.09C276.913 284.679 276.8 285.4 276.982 286.075L285.674 318.397C286.01 319.647 287.251 320.428 288.523 320.189L291.268 319.675L279.377 282.92Z" fill="#1E1E1E"/>
<path d="M251.974 325.338C251.974 326.632 250.925 327.681 249.631 327.681H239.869C238.575 327.681 237.526 326.632 237.526 325.338V324.167C237.526 322.873 238.575 321.824 239.869 321.824H249.631C250.925 321.824 251.974 322.873 251.974 324.167V325.338Z" fill="#1E1E1E"/>
<path d="M226.384 248.828C225.552 248.767 224.496 249.025 223.885 249.592C223.274 250.16 222.688 250.926 222.688 251.76V277.309H255.028C255.028 277.309 253.289 250.791 226.384 248.828Z" fill="#F79D1D"/>
<path d="M255.843 400.619C269.722 400.619 280.972 389.368 280.972 375.49C280.972 361.611 269.722 350.36 255.843 350.36C241.965 350.36 230.714 361.611 230.714 375.49C230.714 389.368 241.965 400.619 255.843 400.619Z" fill="#1E1E1E"/>
<path d="M255.843 395.897C267.114 395.897 276.251 386.76 276.251 375.49C276.251 364.219 267.114 355.082 255.843 355.082C244.572 355.082 235.435 364.219 235.435 375.49C235.435 386.76 244.572 395.897 255.843 395.897Z" fill="#1E1E1E"/>
<path opacity="0.7" d="M272.985 383.007C272.921 383.007 272.857 382.995 272.796 382.969C272.549 382.865 272.434 382.581 272.538 382.334C273.455 380.167 273.92 377.864 273.92 375.49C273.92 365.794 266.032 357.906 256.336 357.906C253.328 357.906 250.36 358.678 247.753 360.139C247.518 360.27 247.223 360.186 247.093 359.953C246.962 359.72 247.046 359.425 247.279 359.294C250.03 357.752 253.162 356.937 256.336 356.937C266.566 356.937 274.889 365.259 274.889 375.489C274.889 377.995 274.398 380.424 273.431 382.711C273.353 382.896 273.173 383.007 272.985 383.007Z" fill="#1E1E1E"/>
<path d="M255.843 384.849C261.012 384.849 265.202 380.658 265.202 375.49C265.202 370.321 261.012 366.13 255.843 366.13C250.674 366.13 246.484 370.321 246.484 375.49C246.484 380.658 250.674 384.849 255.843 384.849Z" fill="#CC841D"/>
<path d="M100.912 400.619C114.79 400.619 126.041 389.368 126.041 375.49C126.041 361.611 114.79 350.36 100.912 350.36C87.0335 350.36 75.7827 361.611 75.7827 375.49C75.7827 389.368 87.0335 400.619 100.912 400.619Z" fill="#1E1E1E"/>
<path d="M100.912 395.897C112.183 395.897 121.32 386.76 121.32 375.49C121.32 364.219 112.183 355.082 100.912 355.082C89.6412 355.082 80.5044 364.219 80.5044 375.49C80.5044 386.76 89.6412 395.897 100.912 395.897Z" fill="#1E1E1E"/>
<path opacity="0.7" d="M118.054 383.007C117.991 383.007 117.927 382.995 117.865 382.969C117.619 382.865 117.504 382.581 117.608 382.334C118.525 380.166 118.989 377.863 118.989 375.49C118.989 365.794 111.101 357.906 101.405 357.906C98.397 357.906 95.4291 358.678 92.8217 360.139C92.5865 360.27 92.2923 360.186 92.1622 359.953C92.0311 359.72 92.1144 359.425 92.3476 359.294C95.0997 357.752 98.2314 356.937 101.405 356.937C111.635 356.937 119.958 365.259 119.958 375.489C119.958 377.993 119.468 380.423 118.5 382.711C118.422 382.896 118.243 383.007 118.054 383.007Z" fill="#1E1E1E"/>
<path d="M100.912 384.849C106.081 384.849 110.271 380.658 110.271 375.49C110.271 370.321 106.081 366.13 100.912 366.13C95.7432 366.13 91.553 370.321 91.553 375.49C91.553 380.658 95.7432 384.849 100.912 384.849Z" fill="#CC841D"/>
<path d="M43.4261 400.619C57.3046 400.619 68.5553 389.368 68.5553 375.49C68.5553 361.611 57.3046 350.36 43.4261 350.36C29.5476 350.36 18.2969 361.611 18.2969 375.49C18.2969 389.368 29.5476 400.619 43.4261 400.619Z" fill="#1E1E1E"/>
<path d="M43.4259 395.897C54.6968 395.897 63.8336 386.76 63.8336 375.49C63.8336 364.219 54.6968 355.082 43.4259 355.082C32.1551 355.082 23.0183 364.219 23.0183 375.49C23.0183 386.76 32.1551 395.897 43.4259 395.897Z" fill="#1E1E1E"/>
<path opacity="0.7" d="M60.5678 383.007C60.5044 383.007 60.4405 382.995 60.379 382.969C60.1326 382.865 60.0176 382.581 60.1216 382.334C61.0386 380.167 61.5032 377.864 61.5032 375.49C61.5032 365.794 53.6148 357.906 43.9191 357.906C40.9114 357.906 37.9435 358.678 35.3361 360.139C35.1015 360.27 34.8067 360.186 34.6766 359.953C34.5455 359.72 34.6288 359.425 34.862 359.294C37.6141 357.752 40.7458 356.937 43.9189 356.937C54.1494 356.937 62.472 365.259 62.472 375.489C62.472 377.995 61.9815 380.424 61.0139 382.711C60.9358 382.896 60.7565 383.007 60.5678 383.007Z" fill="#1E1E1E"/>
<path d="M43.426 384.849C48.5949 384.849 52.7851 380.658 52.7851 375.49C52.7851 370.321 48.5949 366.13 43.426 366.13C38.2571 366.13 34.0669 370.321 34.0669 375.49C34.0669 380.658 38.2571 384.849 43.426 384.849Z" fill="#CC841D"/>
<path d="M294.537 355.268C294.537 356.638 293.427 357.749 292.057 357.749H285.694C284.324 357.749 283.213 356.638 283.213 355.268V346.562C283.213 345.192 284.324 344.082 285.694 344.082H292.057C293.427 344.082 294.537 345.192 294.537 346.562V355.268Z" fill="white"/>
<path opacity="0.8" d="M288.289 344.082V356.968H286.251C284.882 356.968 283.213 355.428 283.213 354.06V345.899C283.213 344.531 284.882 344.082 286.251 344.082H288.289Z" fill="white"/>
<path opacity="0.7" d="M226.983 341.052C226.715 341.052 226.499 340.835 226.499 340.567V283.166C226.499 282.898 226.715 282.681 226.983 282.681C227.251 282.681 227.468 282.898 227.468 283.166V340.567C227.467 340.835 227.251 341.052 226.983 341.052Z" fill="white"/>
<path opacity="0.7" d="M249.092 274.703C248.89 274.703 248.703 274.576 248.634 274.376C241.205 252.85 225.87 254.373 225.716 254.392C225.451 254.42 225.211 254.233 225.179 253.967C225.148 253.702 225.337 253.461 225.603 253.429C225.766 253.412 241.857 251.767 249.55 274.06C249.637 274.313 249.503 274.588 249.25 274.676C249.197 274.694 249.144 274.703 249.092 274.703Z" fill="white"/>
<path d="M101.282 348.076C106.746 348.18 111.231 343.779 111.231 338.314V294.871C111.231 289.163 106.644 284.519 100.937 284.457C83.8071 284.27 48.4784 284.261 19.5717 286.697C15.6271 287.029 12.5589 290.262 12.4159 294.218L9.71413 336.219C9.51343 341.774 13.9056 346.416 19.4638 346.521L101.282 348.076Z" fill="#F79D1D"/>
<path d="M101.31 299.571C101.382 303.268 101.273 309.133 101.183 312.922C101.136 314.894 99.4051 316.396 97.4466 316.166L83.3496 314.514C81.4716 314.294 80.1486 312.563 80.4288 310.693L82.1591 299.15C82.4048 297.511 83.8125 296.299 85.4696 296.299H97.9627C99.7832 296.299 101.274 297.751 101.31 299.571Z" fill="white"/>
<path opacity="0.37" d="M64.4697 321.447L52.7103 322.716C51.0648 322.893 49.6606 321.536 49.782 319.886L52.3527 284.905C57.2822 284.748 62.1447 284.634 66.8364 284.554V318.811C66.8364 320.165 65.816 321.302 64.4697 321.447Z" fill="white"/>
<path d="M59.6499 315.384C59.6137 316.013 59.0924 316.499 58.4701 316.499C58.4469 316.499 58.4238 316.498 58.4007 316.496C57.7484 316.459 57.2502 315.899 57.2887 315.247L59.0618 284.717C59.857 284.697 60.6457 284.68 61.4342 284.662L59.6499 315.384Z" fill="white"/>
<path d="M94.7903 310.59C94.9968 310.59 95.1706 310.43 95.1839 310.221L95.7938 300.605C95.8076 300.388 95.6429 300.2 95.4248 300.187C95.1962 300.169 95.0206 300.338 95.0067 300.556L94.3968 310.172C94.383 310.389 94.5477 310.576 94.7657 310.59C94.7741 310.591 94.7826 310.59 94.7903 310.59Z" fill="url(#paint1_linear_52_5710)"/>
<path d="M93.5349 310.59C93.7467 310.59 93.9223 310.423 93.9292 310.209L94.2488 300.409C94.2558 300.191 94.0848 300.009 93.8676 300.002C93.6164 299.989 93.468 300.166 93.4602 300.383L93.1406 310.183C93.1337 310.401 93.3046 310.583 93.5218 310.59C93.5218 310.59 93.5309 310.59 93.5349 310.59Z" fill="url(#paint2_linear_52_5710)"/>
<path d="M91.8333 310.59C91.6154 310.58 91.4474 310.395 91.4583 310.178C91.6145 306.886 91.9126 300.606 91.9172 300.392C91.9188 300.176 92.0951 300.002 92.3116 300.002C92.5294 300.002 92.7059 300.178 92.7059 300.396C92.7059 300.558 92.3224 308.604 92.2453 310.214C92.2354 310.426 92.0612 310.59 91.8517 310.59C91.8457 310.59 91.8395 310.591 91.8333 310.59Z" fill="url(#paint3_linear_52_5710)"/>
<path d="M89.2232 310.985C89.6461 310.985 89.9957 310.65 90.0103 310.224C90.3437 300.728 90.2851 300.515 90.2468 300.373C90.1328 299.952 89.6953 299.704 89.2788 299.819C88.8929 299.925 88.652 300.299 88.7043 300.685C88.7297 301.255 88.5534 306.78 88.4348 310.168C88.4194 310.603 88.7598 310.969 89.1949 310.984C89.204 310.985 89.214 310.985 89.2232 310.985Z" fill="url(#paint4_linear_52_5710)"/>
<path d="M87.5143 310.59C87.7323 310.59 87.9087 310.414 87.9087 310.196V300.58C87.9087 300.362 87.7323 300.186 87.5143 300.186C87.2964 300.186 87.1201 300.362 87.1201 300.58V310.196C87.1201 310.414 87.2964 310.59 87.5143 310.59Z" fill="url(#paint5_linear_52_5710)"/>
<path d="M86.1345 310.59C86.3486 310.59 86.5242 310.419 86.5287 310.205C86.6042 306.864 86.7805 301.406 86.9385 300.75C87.0077 300.626 87.007 300.469 86.9239 300.341C86.8044 300.158 86.5603 300.109 86.3779 300.228C86.1631 300.369 85.9589 300.502 85.7403 310.187C85.7357 310.405 85.9081 310.585 86.1254 310.59L86.1345 310.59Z" fill="#1E1E1E"/>
<path d="M96.9119 311.466C97.3286 311.466 97.6766 311.14 97.699 310.718L98.2249 300.621C98.2473 300.186 97.9129 299.815 97.4779 299.792C97.0651 299.763 96.6724 300.104 96.6493 300.539L96.1234 310.637C96.101 311.072 96.4352 311.442 96.8703 311.465C96.8842 311.466 96.898 311.466 96.9119 311.466Z" fill="url(#paint6_linear_52_5710)"/>
<path d="M201.446 351.721C206.91 351.825 211.395 347.424 211.395 341.959V298.515C211.395 292.808 206.808 288.163 201.101 288.101C183.971 287.915 148.642 287.905 119.736 290.341C115.791 290.674 112.723 293.907 112.58 297.863L109.878 339.864C109.677 345.419 114.07 350.06 119.628 350.166L201.446 351.721Z" fill="#F79D1D"/>
<path d="M201.474 303.216C201.546 306.912 201.437 312.777 201.347 316.567C201.3 318.538 199.569 320.041 197.611 319.811L183.514 318.159C181.636 317.939 180.313 316.208 180.593 314.338L182.323 302.795C182.569 301.156 183.977 299.944 185.634 299.944H198.127C199.947 299.944 201.438 301.396 201.474 303.216Z" fill="white"/>
<path opacity="0.37" d="M164.633 325.092L152.874 326.36C151.229 326.538 149.825 325.181 149.946 323.53L152.517 288.55C157.446 288.393 162.308 288.279 167 288.199V322.456C167 323.81 165.98 324.947 164.633 325.092Z" fill="white"/>
<path d="M159.814 319.029C159.777 319.658 159.256 320.143 158.634 320.143C158.611 320.143 158.588 320.143 158.565 320.141C157.912 320.103 157.414 319.544 157.453 318.892L159.226 288.362C160.021 288.342 160.809 288.324 161.598 288.307L159.814 319.029Z" fill="white"/>
<path d="M194.954 314.235C195.161 314.235 195.335 314.075 195.348 313.866L195.958 304.249C195.972 304.032 195.807 303.845 195.589 303.831C195.36 303.814 195.185 303.983 195.171 304.2L194.561 313.817C194.547 314.034 194.712 314.221 194.93 314.235C194.938 314.235 194.947 314.235 194.954 314.235Z" fill="url(#paint7_linear_52_5710)"/>
<path d="M193.699 314.235C193.911 314.235 194.086 314.067 194.093 313.854L194.413 304.054C194.42 303.836 194.249 303.653 194.032 303.646C193.781 303.634 193.632 303.81 193.624 304.028L193.305 313.828C193.298 314.046 193.469 314.228 193.686 314.235C193.686 314.235 193.695 314.235 193.699 314.235Z" fill="url(#paint8_linear_52_5710)"/>
<path d="M191.997 314.234C191.779 314.225 191.611 314.04 191.622 313.823C191.778 310.53 192.076 304.251 192.081 304.037C192.083 303.821 192.259 303.646 192.475 303.646C192.693 303.646 192.87 303.823 192.87 304.041C192.87 304.203 192.486 312.249 192.409 313.859C192.399 314.071 192.225 314.235 192.016 314.235C192.009 314.235 192.003 314.235 191.997 314.234Z" fill="url(#paint9_linear_52_5710)"/>
<path d="M189.387 314.63C189.81 314.63 190.16 314.294 190.174 313.869C190.508 304.373 190.449 304.159 190.411 304.018C190.297 303.596 189.859 303.349 189.443 303.464C189.057 303.569 188.816 303.944 188.868 304.33C188.894 304.9 188.717 310.425 188.599 313.813C188.583 314.248 188.924 314.614 189.359 314.629C189.368 314.63 189.378 314.63 189.387 314.63Z" fill="url(#paint10_linear_52_5710)"/>
<path d="M187.678 314.235C187.896 314.235 188.073 314.059 188.073 313.841V304.225C188.073 304.007 187.896 303.83 187.678 303.83C187.46 303.83 187.284 304.007 187.284 304.225V313.841C187.284 314.059 187.46 314.235 187.678 314.235Z" fill="url(#paint11_linear_52_5710)"/>
<path d="M186.299 314.235C186.513 314.235 186.688 314.064 186.693 313.85C186.768 310.509 186.945 305.051 187.103 304.395C187.172 304.271 187.171 304.114 187.088 303.986C186.968 303.803 186.724 303.753 186.542 303.873C186.327 304.014 186.123 304.147 185.904 313.832C185.9 314.05 186.072 314.23 186.289 314.235H186.299Z" fill="url(#paint12_linear_52_5710)"/>
<path d="M197.076 315.111C197.493 315.111 197.841 314.784 197.863 314.363L198.389 304.266C198.411 303.831 198.077 303.46 197.642 303.437C197.229 303.408 196.836 303.749 196.813 304.184L196.287 314.281C196.265 314.717 196.599 315.087 197.034 315.11C197.048 315.111 197.062 315.111 197.076 315.111Z" fill="url(#paint13_linear_52_5710)"/>
<path d="M85.4232 278.644V248.134C85.4232 244.126 82.2019 240.864 78.1937 240.821C66.164 240.69 41.3535 240.683 21.0531 242.394C18.2829 242.627 16.1282 244.898 16.0277 247.676L14.1304 277.172C13.9894 281.074 17.0739 284.333 20.9773 284.407L78.4361 285.499C82.2735 285.572 85.4232 282.481 85.4232 278.644Z" fill="#F79D1D"/>
<path d="M78.4557 251.435C78.507 254.031 78.4298 258.15 78.3667 260.811C78.3338 262.196 77.1184 263.251 75.7429 263.09L65.8429 261.929C64.5241 261.775 63.5949 260.559 63.7917 259.246L65.0069 251.139C65.1794 249.989 66.1681 249.137 67.3317 249.137H76.1055C77.3838 249.137 78.4305 250.157 78.4557 251.435Z" fill="white"/>
<path opacity="0.37" d="M52.5838 266.798L44.3253 267.689C43.1697 267.814 42.1837 266.861 42.2688 265.702L44.0743 241.135C47.5361 241.026 50.9509 240.945 54.2458 240.889V264.947C54.246 265.898 53.5293 266.696 52.5838 266.798Z" fill="white"/>
<path d="M49.1989 262.54C49.1735 262.982 48.8073 263.323 48.3704 263.323C48.3541 263.323 48.338 263.323 48.3216 263.321C47.8635 263.295 47.5138 262.902 47.5408 262.444L48.786 241.004C49.3443 240.99 49.8981 240.977 50.4519 240.965L49.1989 262.54Z" fill="white"/>
<path d="M73.8771 259.174C74.0221 259.174 74.1443 259.061 74.1536 258.914L74.5818 252.161C74.5916 252.009 74.4758 251.877 74.3228 251.868C74.1621 251.855 74.0389 251.974 74.029 252.127L73.6007 258.88C73.591 259.032 73.7067 259.164 73.8598 259.173C73.8659 259.174 73.8718 259.174 73.8771 259.174Z" fill="url(#paint14_linear_52_5710)"/>
<path d="M72.9957 259.174C73.1443 259.174 73.2677 259.056 73.2726 258.906L73.4969 252.024C73.5018 251.87 73.3818 251.743 73.2293 251.738C73.0528 251.729 72.9485 251.853 72.9432 252.005L72.7187 258.888C72.7137 259.041 72.8339 259.169 72.9863 259.174C72.9863 259.174 72.9929 259.174 72.9957 259.174Z" fill="url(#paint15_linear_52_5710)"/>
<path d="M71.8005 259.173C71.6476 259.166 71.5296 259.037 71.5372 258.884C71.647 256.572 71.8562 252.162 71.8596 252.012C71.8607 251.86 71.9846 251.738 72.1364 251.738C72.2895 251.738 72.4133 251.861 72.4133 252.015C72.4133 252.129 72.1439 257.779 72.0898 258.91C72.0828 259.059 71.9606 259.174 71.8135 259.174C71.8093 259.174 71.8049 259.174 71.8005 259.173Z" fill="url(#paint16_linear_52_5710)"/>
<path d="M69.9677 259.451C70.2646 259.451 70.5102 259.215 70.5205 258.916C70.7546 252.248 70.7135 252.098 70.6864 251.998C70.6063 251.702 70.2993 251.529 70.0066 251.609C69.7357 251.683 69.5664 251.946 69.6032 252.217C69.621 252.618 69.4972 256.498 69.4139 258.878C69.4031 259.183 69.6422 259.44 69.9476 259.45C69.9541 259.451 69.9612 259.451 69.9677 259.451Z" fill="url(#paint17_linear_52_5710)"/>
<path d="M68.7676 259.174C68.9207 259.174 69.0445 259.05 69.0445 258.897V252.144C69.0445 251.991 68.9207 251.867 68.7676 251.867C68.6145 251.867 68.4907 251.991 68.4907 252.144V258.897C68.4907 259.05 68.6145 259.174 68.7676 259.174Z" fill="url(#paint18_linear_52_5710)"/>
<path d="M67.7984 259.174C67.9488 259.174 68.0721 259.054 68.0753 258.903C68.1284 256.557 68.2522 252.724 68.363 252.263C68.4116 252.176 68.4112 252.066 68.3528 251.976C68.2689 251.847 68.0975 251.813 67.9694 251.897C67.8185 251.995 67.6752 252.089 67.5215 258.89C67.5184 259.044 67.6394 259.17 67.7919 259.174H67.7984Z" fill="url(#paint19_linear_52_5710)"/>
<path d="M75.3673 259.789C75.6599 259.789 75.9043 259.559 75.92 259.264L76.2894 252.172C76.3051 251.867 76.0704 251.607 75.7648 251.59C75.4749 251.57 75.199 251.81 75.1829 252.115L74.8135 259.206C74.7978 259.512 75.0325 259.772 75.3381 259.788C75.3478 259.789 75.3576 259.789 75.3673 259.789Z" fill="url(#paint20_linear_52_5710)"/>
<path d="M147.445 279.553V249.044C147.445 245.036 144.661 241.774 141.197 241.73C130.801 241.599 109.359 241.593 91.8146 243.304C89.4206 243.537 87.5583 245.807 87.4716 248.586L85.8319 278.082C85.71 281.983 88.3758 285.243 91.7492 285.317L141.407 286.409C144.723 286.482 147.445 283.391 147.445 279.553Z" fill="#F79D1D"/>
<path d="M141.423 252.345C141.468 254.941 141.401 259.06 141.346 261.721C141.318 263.106 140.268 264.161 139.079 264L130.523 262.839C129.383 262.685 128.58 261.469 128.75 260.156L129.8 252.05C129.95 250.899 130.804 250.047 131.81 250.047H139.392C140.497 250.047 141.402 251.067 141.423 252.345Z" fill="white"/>
<path opacity="0.37" d="M119.064 267.708L111.927 268.599C110.928 268.724 110.076 267.771 110.15 266.612L111.71 242.045C114.702 241.936 117.653 241.855 120.5 241.799V265.857C120.5 266.808 119.881 267.606 119.064 267.708Z" fill="white"/>
<path d="M116.139 263.45C116.117 263.892 115.8 264.233 115.423 264.233C115.409 264.233 115.395 264.232 115.381 264.231C114.985 264.205 114.682 263.812 114.706 263.354L115.782 241.914C116.265 241.9 116.743 241.887 117.222 241.875L116.139 263.45Z" fill="white"/>
<path d="M137.467 260.084C137.592 260.084 137.698 259.971 137.706 259.824L138.076 253.071C138.084 252.919 137.984 252.787 137.852 252.777C137.713 252.765 137.607 252.884 137.598 253.036L137.228 259.79C137.219 259.942 137.319 260.074 137.452 260.083C137.457 260.084 137.462 260.084 137.467 260.084Z" fill="url(#paint21_linear_52_5710)"/>
<path d="M136.705 260.084C136.834 260.084 136.94 259.966 136.944 259.816L137.138 252.934C137.142 252.781 137.039 252.653 136.907 252.648C136.754 252.639 136.664 252.763 136.66 252.915L136.465 259.798C136.461 259.951 136.565 260.079 136.697 260.084C136.697 260.084 136.703 260.084 136.705 260.084Z" fill="url(#paint22_linear_52_5710)"/>
<path d="M135.672 260.083C135.54 260.076 135.438 259.946 135.444 259.794C135.539 257.482 135.72 253.072 135.723 252.922C135.724 252.77 135.831 252.648 135.962 252.648C136.094 252.648 136.201 252.771 136.201 252.925C136.201 253.039 135.969 258.689 135.922 259.82C135.916 259.969 135.81 260.084 135.683 260.084C135.679 260.084 135.675 260.084 135.672 260.083Z" fill="url(#paint23_linear_52_5710)"/>
<path d="M134.088 260.361C134.344 260.361 134.557 260.125 134.566 259.826C134.768 253.158 134.732 253.008 134.709 252.908C134.64 252.612 134.374 252.439 134.121 252.52C133.887 252.594 133.741 252.856 133.773 253.127C133.788 253.528 133.681 257.408 133.609 259.788C133.6 260.093 133.806 260.35 134.07 260.36C134.076 260.361 134.082 260.361 134.088 260.361Z" fill="url(#paint24_linear_52_5710)"/>
<path d="M133.051 260.084C133.183 260.084 133.29 259.96 133.29 259.807V253.054C133.29 252.901 133.183 252.777 133.051 252.777C132.918 252.777 132.811 252.901 132.811 253.054V259.807C132.811 259.96 132.918 260.084 133.051 260.084Z" fill="url(#paint25_linear_52_5710)"/>
<path d="M132.213 260.084C132.343 260.084 132.45 259.964 132.452 259.813C132.498 257.467 132.605 253.634 132.701 253.173C132.743 253.086 132.743 252.976 132.692 252.886C132.62 252.757 132.471 252.723 132.361 252.807C132.23 252.905 132.106 252.999 131.974 259.8C131.971 259.954 132.076 260.08 132.207 260.084H132.213Z" fill="url(#paint26_linear_52_5710)"/>
<path d="M138.754 260.699C139.007 260.699 139.219 260.469 139.232 260.174L139.551 253.082C139.565 252.777 139.362 252.517 139.098 252.501C138.847 252.48 138.609 252.72 138.595 253.025L138.276 260.116C138.262 260.422 138.465 260.682 138.729 260.698C138.737 260.699 138.746 260.699 138.754 260.699Z" fill="url(#paint27_linear_52_5710)"/>
<path d="M209.348 281.436V250.927C209.348 246.918 206.564 243.657 203.1 243.613C192.704 243.482 171.262 243.475 153.718 245.186C151.324 245.419 149.462 247.69 149.375 250.468L147.735 279.964C147.614 283.866 150.279 287.125 153.653 287.199L203.31 288.291C206.626 288.364 209.348 285.274 209.348 281.436Z" fill="#F79D1D"/>
<path d="M203.327 254.227C203.371 256.823 203.305 260.942 203.25 263.604C203.222 264.988 202.171 266.043 200.982 265.882L192.427 264.722C191.287 264.567 190.484 263.352 190.654 262.038L191.704 253.932C191.853 252.781 192.707 251.93 193.713 251.93H201.296C202.401 251.93 203.305 252.949 203.327 254.227Z" fill="white"/>
<path opacity="0.37" d="M180.968 269.591L173.831 270.481C172.832 270.606 171.98 269.653 172.053 268.494L173.614 243.928C176.605 243.818 179.557 243.738 182.404 243.682V267.739C182.404 268.69 181.785 269.489 180.968 269.591Z" fill="white"/>
<path d="M178.042 265.333C178.021 265.775 177.704 266.115 177.326 266.115C177.312 266.115 177.298 266.115 177.284 266.114C176.888 266.087 176.586 265.694 176.609 265.237L177.686 243.796C178.168 243.782 178.647 243.77 179.125 243.757L178.042 265.333Z" fill="white"/>
<path d="M199.355 261.966C199.36 261.966 199.365 261.966 199.37 261.966C199.495 261.966 199.601 261.854 199.609 261.707L199.979 254.953C199.987 254.801 199.887 254.669 199.755 254.66C199.616 254.647 199.51 254.766 199.501 254.919L199.131 261.672C199.123 261.825 199.223 261.956 199.355 261.966Z" fill="url(#paint28_linear_52_5710)"/>
<path d="M198.608 261.966C198.737 261.966 198.843 261.848 198.848 261.698L199.041 254.816C199.046 254.663 198.942 254.535 198.81 254.53C198.658 254.521 198.568 254.645 198.563 254.798L198.369 261.68C198.365 261.833 198.468 261.961 198.6 261.966L198.608 261.966Z" fill="url(#paint29_linear_52_5710)"/>
<path d="M197.575 261.966C197.443 261.959 197.341 261.829 197.348 261.676C197.443 259.364 197.623 254.954 197.626 254.804C197.627 254.653 197.734 254.53 197.866 254.53C197.998 254.53 198.105 254.654 198.105 254.807C198.105 254.921 197.872 260.571 197.825 261.702C197.819 261.851 197.714 261.966 197.587 261.966C197.583 261.966 197.579 261.966 197.575 261.966Z" fill="url(#paint30_linear_52_5710)"/>
<path d="M195.974 262.243C195.98 262.243 195.986 262.243 195.991 262.243C196.248 262.243 196.46 262.008 196.469 261.709C196.671 255.041 196.636 254.89 196.612 254.791C196.543 254.495 196.278 254.321 196.025 254.402C195.791 254.476 195.644 254.739 195.676 255.01C195.692 255.411 195.585 259.29 195.513 261.67C195.503 261.975 195.71 262.232 195.974 262.243Z" fill="url(#paint31_linear_52_5710)"/>
<path d="M194.954 261.966C195.087 261.966 195.194 261.842 195.194 261.689V254.936C195.194 254.783 195.087 254.659 194.954 254.659C194.822 254.659 194.715 254.783 194.715 254.936V261.689C194.715 261.843 194.822 261.966 194.954 261.966Z" fill="#1E1E1E"/>
<path d="M194.116 261.966C194.246 261.966 194.353 261.846 194.356 261.696C194.402 259.349 194.509 255.516 194.604 255.056C194.647 254.969 194.646 254.858 194.596 254.768C194.523 254.64 194.375 254.605 194.264 254.689C194.134 254.788 194.01 254.882 193.877 261.683C193.875 261.836 193.979 261.962 194.111 261.966H194.116Z" fill="#1E1E1E"/>
<path d="M200.632 262.58C200.641 262.581 200.649 262.581 200.658 262.581C200.911 262.581 201.122 262.352 201.135 262.056L201.455 254.965C201.468 254.659 201.265 254.399 201.001 254.383C200.751 254.362 200.512 254.602 200.498 254.907L200.179 261.999C200.166 262.304 200.368 262.564 200.632 262.58Z" fill="url(#paint32_linear_52_5710)"/>
<path d="M107.832 221.036C107.444 221.036 107.053 220.904 106.735 220.633C106.021 220.027 105.934 218.956 106.541 218.243C107.594 217.003 108.65 215.772 109.71 214.552C110.324 213.844 111.395 213.769 112.103 214.384C112.81 214.998 112.885 216.069 112.27 216.776C111.219 217.987 110.171 219.209 109.125 220.439C108.789 220.833 108.312 221.036 107.832 221.036ZM115.82 211.922C115.413 211.922 115.004 211.776 114.679 211.48C113.986 210.85 113.936 209.777 114.567 209.085C115.699 207.842 116.816 206.639 117.888 205.509C118.532 204.831 119.606 204.802 120.285 205.446C120.964 206.091 120.992 207.164 120.348 207.844C119.292 208.956 118.191 210.142 117.074 211.368C116.74 211.736 116.281 211.922 115.82 211.922ZM282.51 204.481C281.585 204.481 280.829 203.738 280.815 202.809C280.802 201.873 281.551 201.103 282.487 201.09C283.463 201.076 284.448 201.047 285.416 201.004C285.904 200.883 286.387 200.758 286.866 200.631C287.774 200.391 288.7 200.931 288.94 201.836C289.179 202.742 288.64 203.67 287.735 203.91C287.185 204.055 286.63 204.197 286.071 204.336L285.908 204.377L285.74 204.385C284.682 204.433 283.604 204.466 282.535 204.481C282.527 204.481 282.519 204.481 282.51 204.481ZM275.25 204.331C275.219 204.331 275.187 204.33 275.156 204.329C273.545 204.241 271.898 204.116 270.262 203.957C269.329 203.867 268.647 203.038 268.737 202.106C268.827 201.174 269.656 200.495 270.588 200.582C272.177 200.736 273.777 200.857 275.341 200.942C276.276 200.994 276.993 201.793 276.942 202.728C276.892 203.631 276.144 204.331 275.25 204.331ZM124.216 203.194C123.775 203.194 123.334 203.023 123.002 202.682C122.348 202.011 122.362 200.938 123.032 200.284C124.225 199.122 125.423 197.99 126.594 196.92C127.286 196.287 128.359 196.336 128.99 197.028C129.622 197.719 129.573 198.791 128.882 199.423C127.737 200.469 126.566 201.576 125.4 202.712C125.07 203.034 124.643 203.194 124.216 203.194ZM263.219 203.055C263.133 203.055 263.046 203.049 262.958 203.035C261.375 202.791 259.751 202.511 258.132 202.203C257.212 202.028 256.607 201.141 256.782 200.221C256.957 199.301 257.851 198.696 258.764 198.871C260.346 199.171 261.932 199.445 263.477 199.684C264.402 199.827 265.036 200.693 264.893 201.619C264.764 202.457 264.042 203.055 263.219 203.055ZM294.244 201.859C293.541 201.859 292.883 201.418 292.641 200.715C292.336 199.83 292.807 198.865 293.692 198.56C295.204 198.039 296.7 197.479 298.138 196.895C299.008 196.543 299.995 196.961 300.347 197.829C300.699 198.696 300.281 199.686 299.414 200.038C297.919 200.644 296.365 201.226 294.797 201.766C294.614 201.83 294.428 201.859 294.244 201.859ZM251.344 200.714C251.215 200.714 251.084 200.699 250.952 200.668C249.406 200.301 247.812 199.901 246.215 199.479C245.31 199.239 244.771 198.311 245.01 197.406C245.25 196.501 246.174 195.961 247.083 196.2C248.651 196.615 250.216 197.008 251.734 197.368C252.645 197.584 253.209 198.497 252.993 199.409C252.808 200.189 252.112 200.714 251.344 200.714ZM239.658 197.557C239.497 197.557 239.333 197.533 239.17 197.484C237.668 197.033 236.101 196.546 234.512 196.037C233.62 195.751 233.129 194.797 233.414 193.905C233.7 193.013 234.655 192.522 235.547 192.808C237.117 193.311 238.664 193.791 240.146 194.236C241.043 194.506 241.551 195.451 241.282 196.348C241.061 197.083 240.387 197.557 239.658 197.557ZM305.375 197.142C304.76 197.142 304.166 196.806 303.865 196.221C303.437 195.388 303.765 194.366 304.598 193.938C306.012 193.211 307.402 192.438 308.729 191.642C309.531 191.16 310.573 191.42 311.056 192.223C311.538 193.026 311.277 194.068 310.474 194.549C309.084 195.384 307.628 196.193 306.149 196.954C305.901 197.081 305.636 197.142 305.375 197.142ZM133.244 195.123C132.75 195.123 132.26 194.908 131.925 194.494C131.336 193.766 131.448 192.698 132.176 192.109C133.477 191.056 134.79 190.044 136.078 189.102C136.834 188.549 137.895 188.713 138.448 189.469C139.001 190.224 138.837 191.285 138.081 191.838C136.838 192.748 135.569 193.727 134.31 194.746C133.995 194.999 133.618 195.123 133.244 195.123ZM228.131 193.822C227.948 193.822 227.762 193.792 227.58 193.729C226.036 193.198 224.506 192.661 222.989 192.121C222.106 191.807 221.646 190.838 221.959 189.955C222.273 189.072 223.244 188.611 224.125 188.926C225.632 189.462 227.151 189.995 228.683 190.522C229.569 190.827 230.04 191.792 229.735 192.677C229.493 193.38 228.835 193.822 228.131 193.822ZM315.623 190.742C315.108 190.742 314.6 190.509 314.267 190.066C313.703 189.318 313.852 188.255 314.601 187.692C315.857 186.745 317.087 185.745 318.256 184.719C318.959 184.101 320.031 184.17 320.649 184.875C321.266 185.579 321.197 186.65 320.493 187.268C319.26 188.349 317.965 189.403 316.642 190.4C316.336 190.63 315.978 190.742 315.623 190.742ZM216.718 189.75C216.525 189.75 216.328 189.716 216.136 189.646L211.584 187.979C210.705 187.657 210.253 186.684 210.574 185.804C210.897 184.924 211.872 184.473 212.75 184.795L217.3 186.461C218.18 186.782 218.633 187.756 218.311 188.635C218.06 189.323 217.41 189.75 216.718 189.75ZM143.117 188.125C142.543 188.125 141.984 187.835 141.665 187.308C141.18 186.508 141.436 185.465 142.236 184.979C143.673 184.109 145.129 183.292 146.563 182.551C147.393 182.121 148.418 182.447 148.848 183.279C149.278 184.111 148.951 185.134 148.119 185.564C146.753 186.27 145.365 187.049 143.994 187.88C143.72 188.046 143.416 188.125 143.117 188.125ZM205.332 185.604C205.142 185.604 204.95 185.572 204.762 185.505C203.223 184.955 201.704 184.42 200.207 183.906C199.322 183.601 198.851 182.636 199.155 181.751C199.459 180.865 200.422 180.394 201.31 180.698C202.82 181.218 204.351 181.756 205.903 182.311C206.785 182.627 207.244 183.597 206.929 184.479C206.681 185.172 206.028 185.604 205.332 185.604ZM153.975 182.798C153.288 182.798 152.642 182.378 152.387 181.697C152.058 180.82 152.502 179.843 153.379 179.514C154.947 178.925 156.543 178.404 158.121 177.964C159.026 177.713 159.958 178.24 160.209 179.142C160.461 180.044 159.933 180.979 159.031 181.231C157.548 181.644 156.047 182.135 154.57 182.689C154.374 182.763 154.173 182.798 153.975 182.798ZM324.543 182.597C324.138 182.597 323.731 182.453 323.407 182.159C322.712 181.532 322.658 180.459 323.286 179.764C324.333 178.606 325.349 177.391 326.305 176.152C326.876 175.411 327.941 175.273 328.683 175.846C329.425 176.418 329.562 177.483 328.989 178.225C327.98 179.532 326.908 180.815 325.802 182.039C325.467 182.409 325.006 182.597 324.543 182.597ZM193.849 181.736C193.684 181.736 193.516 181.712 193.35 181.66C191.744 181.166 190.197 180.716 188.751 180.324C187.848 180.08 187.314 179.148 187.559 178.244C187.803 177.34 188.733 176.805 189.639 177.051C191.121 177.453 192.706 177.913 194.348 178.419C195.243 178.695 195.745 179.644 195.469 180.539C195.245 181.268 194.574 181.736 193.849 181.736ZM182.12 178.737C182.016 178.737 181.911 178.728 181.805 178.708C180.179 178.403 178.613 178.168 177.149 178.012C176.217 177.912 175.543 177.076 175.643 176.145C175.742 175.214 176.576 174.538 177.509 174.64C179.062 174.806 180.718 175.053 182.431 175.375C183.352 175.548 183.958 176.434 183.785 177.355C183.632 178.169 182.92 178.737 182.12 178.737ZM165.299 178.62C164.543 178.62 163.854 178.11 163.658 177.344C163.425 176.437 163.972 175.513 164.88 175.281C166.467 174.874 168.173 174.6 169.95 174.467C170.888 174.393 171.698 175.097 171.768 176.03C171.838 176.964 171.138 177.778 170.205 177.849C168.625 177.967 167.117 178.208 165.721 178.566C165.58 178.602 165.438 178.62 165.299 178.62ZM331.746 172.895C331.447 172.895 331.144 172.816 330.869 172.65C330.068 172.165 329.811 171.123 330.296 170.321C331.099 168.993 331.87 167.606 332.588 166.197C333.014 165.363 334.035 165.031 334.869 165.456C335.703 165.881 336.035 166.902 335.61 167.737C334.855 169.218 334.044 170.678 333.198 172.076C332.879 172.603 332.32 172.895 331.746 172.895ZM337.058 162.031C336.854 162.031 336.647 161.994 336.446 161.916C335.573 161.577 335.14 160.595 335.478 159.722C336.038 158.276 336.568 156.772 337.052 155.252C337.336 154.359 338.289 153.866 339.182 154.15C340.074 154.434 340.567 155.388 340.283 156.28C339.778 157.867 339.226 159.437 338.64 160.948C338.379 161.62 337.738 162.031 337.058 162.031ZM340.572 150.45C340.448 150.45 340.321 150.436 340.194 150.407C339.281 150.199 338.709 149.29 338.918 148.377C339.263 146.858 339.579 145.288 339.856 143.709C340.018 142.788 340.893 142.168 341.819 142.332C342.741 142.494 343.358 143.373 343.196 144.295C342.91 145.929 342.583 147.556 342.224 149.13C342.045 149.916 341.346 150.45 340.572 150.45ZM342.538 138.5C342.478 138.5 342.417 138.497 342.356 138.49C341.425 138.39 340.75 137.554 340.85 136.623C341.016 135.077 341.157 133.474 341.266 131.86C341.33 130.925 342.147 130.218 343.073 130.283C344.007 130.347 344.713 131.156 344.65 132.09C344.537 133.748 344.393 135.395 344.223 136.985C344.129 137.855 343.394 138.5 342.538 138.5ZM343.262 126.406C343.252 126.406 343.242 126.406 343.232 126.406C342.296 126.39 341.55 125.617 341.566 124.681C341.582 123.728 341.59 122.787 341.59 121.86C341.59 121.194 341.586 120.535 341.579 119.883C341.569 118.947 342.32 118.179 343.256 118.169C343.262 118.169 343.269 118.169 343.275 118.169C344.203 118.169 344.96 118.916 344.97 119.847C344.977 120.51 344.981 121.182 344.981 121.86C344.981 122.806 344.974 123.767 344.956 124.739C344.941 125.666 344.185 126.406 343.262 126.406Z" fill="white"/>
<path d="M104.363 233.914C109.192 233.914 113.107 229.999 113.107 225.17C113.107 220.34 109.192 216.426 104.363 216.426C99.5338 216.426 95.6189 220.34 95.6189 225.17C95.6189 229.999 99.5338 233.914 104.363 233.914Z" fill="white"/>
<path d="M103.234 169.729C121.479 169.729 136.27 154.938 136.27 136.692C136.27 118.447 121.479 103.656 103.234 103.656C84.9882 103.656 70.1973 118.447 70.1973 136.692C70.1973 154.938 84.9882 169.729 103.234 169.729Z" fill="#F79D1D"/>
<path d="M136.21 134.006H103.234H70.1972C70.1972 134.006 67.5672 152.8 97.0517 203.025C98.3381 205.216 100.689 206.755 103.23 206.756C105.771 206.757 108.125 205.126 109.412 202.935C138.893 152.706 136.21 134.006 136.21 134.006Z" fill="#F79D1D"/>
<path d="M103.83 208.057V208.198H103.229C100.353 208.198 97.6694 206.638 96.2244 204.177C78.9898 174.819 72.6745 156.267 70.4123 145.88C69.7672 143.491 69.3966 141.154 69.2796 138.752C69.0801 136.296 69.2327 135.263 69.2508 135.154L69.3376 134.627C70.6687 116.881 85.4382 103.071 103.234 103.071C121.263 103.071 136.166 117.078 137.173 134.965C137.198 135.199 137.247 135.793 137.228 136.786L137.229 136.908C137.229 140.153 136.771 143.367 135.867 146.461C133.526 156.839 127.478 175.219 110.537 204.082C109.083 206.559 106.538 208.057 103.83 208.057ZM71.0988 136.172C71.0908 136.172 71.106 137.493 71.1928 138.558L71.1949 138.613C71.3047 140.888 71.6563 143.108 72.2702 145.376L72.2815 145.429C74.51 155.675 80.7596 174.013 97.8788 203.174C98.9808 205.051 101.33 206.22 103.528 206.221L103.83 207.181V206.222C104.913 206.222 108.104 205.046 109.215 203.153C126.047 174.475 132.532 156.249 134.698 146.01V145.951C135.781 143.023 135.887 139.981 135.887 136.908L135.781 136.773V136.763C135.781 135.806 135.515 135.289 135.499 135.153L135.377 135.098C134.439 118.214 120.313 104.988 103.292 104.988C86.3045 104.988 72.2092 118.283 71.2409 135.315L71.16 136.172L71.0988 136.172Z" fill="#CC841D"/>
<path d="M85.2449 116.725C85.155 116.725 85.0654 116.687 85.0022 116.613C84.8872 116.48 84.9025 116.278 85.0365 116.163C90.3955 111.56 97.2421 109.026 104.315 109.026C104.492 109.026 104.635 109.169 104.635 109.345C104.635 109.522 104.492 109.665 104.315 109.665C97.3946 109.665 90.696 112.145 85.4529 116.648C85.3928 116.699 85.3186 116.725 85.2449 116.725Z" fill="white"/>
<path d="M75.0302 138.95C74.8536 138.95 74.7104 138.807 74.7104 138.631C74.7104 133.107 76.2419 127.718 79.1392 123.047C79.2324 122.897 79.4295 122.851 79.5794 122.944C79.7294 123.037 79.7758 123.234 79.6827 123.384C76.8481 127.954 75.3498 133.226 75.3498 138.631C75.3498 138.807 75.2066 138.95 75.0302 138.95Z" fill="white"/>
<path d="M84.8086 123.37L82.5597 115.08L76.0015 111.524L75.1274 113.122L80.9973 116.287L87.9925 141.915L88.2087 142.649H116.749C119.529 142.649 122.111 141.313 123.62 138.977L124.923 137.31C126.3 135.177 127.255 132.73 127.255 130.19V123.369H84.8086V123.37ZM125.219 130.191C125.219 132.376 124.467 134.494 123.28 136.33L122.094 138.221C120.926 140.03 118.904 141.291 116.749 141.291H89.6093L88.1241 135.791L85.3091 125.406H125.219V130.191Z" fill="white"/>
<path d="M123.314 151.95C123.314 152.455 122.903 152.967 122.395 152.967H88.9088C88.4012 152.967 88.0178 152.25 88.0178 151.745V135.955C88.0178 135.781 88.0522 135.798 88.1367 135.66L89.609 141.291H90.0543V150.931H122.395C122.903 150.931 123.314 151.442 123.314 151.95Z" fill="white"/>
<path d="M105.946 124.328H104.723V141.517H105.946V124.328Z" fill="white"/>
<path d="M95.1483 124.328H93.926V141.517H95.1483V124.328Z" fill="white"/>
<path d="M116.489 124.328H115.266V141.517H116.489V124.328Z" fill="white"/>
<path d="M125.531 129.385H85.7734V130.478H125.531V129.385Z" fill="white"/>
<path d="M124.535 135.368H87.509V136.461H124.535V135.368Z" fill="white"/>
<path d="M93.1979 154.222C91.0173 154.222 89.2495 155.99 89.2495 158.17C89.2495 160.351 91.0172 162.119 93.1979 162.119C95.3785 162.119 97.1461 160.351 97.1461 158.17C97.1461 155.99 95.3783 154.222 93.1979 154.222ZM93.1979 160.554C91.8819 160.554 90.8147 159.487 90.8147 158.17C90.8147 156.854 91.8817 155.787 93.1979 155.787C94.5141 155.787 95.5809 156.854 95.5809 158.17C95.5809 159.487 94.5141 160.554 93.1979 160.554Z" fill="white"/>
<path d="M117.734 154.222C115.553 154.222 113.786 155.99 113.786 158.17C113.786 160.351 115.553 162.119 117.734 162.119C119.915 162.119 121.682 160.351 121.682 158.17C121.682 155.99 119.914 154.222 117.734 154.222ZM117.734 160.554C116.418 160.554 115.351 159.487 115.351 158.17C115.351 156.854 116.418 155.787 117.734 155.787C119.05 155.787 120.117 156.854 120.117 158.17C120.117 159.487 119.05 160.554 117.734 160.554Z" fill="white"/>
<path d="M80.0695 113.121C80.0695 114.145 79.239 114.976 78.2146 114.976H72.0422C71.0178 114.976 70.1873 114.146 70.1873 113.121C70.1873 112.096 71.0178 111.266 72.0422 111.266H78.2146C79.239 111.266 80.0695 112.096 80.0695 113.121Z" fill="white"/>
<path d="M346.259 134.074C351.088 134.074 355.003 130.159 355.003 125.33C355.003 120.5 351.088 116.586 346.259 116.586C341.43 116.586 337.515 120.5 337.515 125.33C337.515 130.159 341.43 134.074 346.259 134.074Z" fill="white"/>
<path d="M346.65 71.4029C365.561 71.4029 380.892 56.0721 380.892 37.1607C380.892 18.2493 365.561 2.91852 346.65 2.91852C327.738 2.91852 312.408 18.2493 312.408 37.1607C312.408 56.0721 327.738 71.4029 346.65 71.4029Z" fill="#F79D1D"/>
<path d="M380.829 34.3761H346.65H312.408C312.408 34.3761 309.682 53.8565 340.242 105.914C341.576 108.185 344.012 109.78 346.646 109.781C349.279 109.782 351.72 108.092 353.053 105.821C383.611 53.7584 380.829 34.3761 380.829 34.3761Z" fill="#F79D1D"/>
<path d="M347.268 111.129V111.276H346.645C343.665 111.276 340.883 109.659 339.385 107.108C321.521 76.6785 314.976 57.4497 312.631 46.6836C311.962 44.207 311.578 41.7848 311.457 39.2957C311.25 36.7493 311.408 35.6796 311.427 35.5662L311.517 35.0198C312.897 16.6261 328.205 2.31195 346.65 2.31195C365.337 2.31195 380.784 16.8301 381.828 35.3701C381.854 35.6127 381.904 36.2283 381.885 37.2578L381.886 37.3842C381.886 40.7474 381.411 44.0788 380.474 47.2858C378.048 58.0426 371.779 77.0931 354.22 107.009C352.713 109.577 350.074 111.129 347.268 111.129ZM313.342 36.6214C313.334 36.6214 313.35 37.99 313.44 39.0941L313.442 39.1515C313.556 41.5096 313.92 43.8107 314.557 46.1611L314.568 46.2158C316.878 56.8358 323.356 75.843 341.1 106.068C342.242 108.014 344.677 109.225 346.955 109.226L347.268 110.222V109.228C348.39 109.228 351.698 108.009 352.85 106.046C370.297 76.3219 377.018 57.4314 379.263 46.8185V46.757C380.385 43.7224 380.495 40.5689 380.495 37.3843L380.385 37.2444V37.2331C380.385 36.2419 380.11 35.7059 380.094 35.5652L379.967 35.5076C378.994 18.0076 364.353 4.29919 346.711 4.29919C329.103 4.29919 314.494 18.0789 313.49 35.7323L313.406 36.6212L313.342 36.6214Z" fill="#CC841D"/>
<path d="M358.496 73.605H335.669C331.442 73.605 328.003 70.1661 328.003 65.9392V37.8878H366.088V66.0134C366.088 70.1992 362.683 73.605 358.496 73.605ZM329.811 39.6955V65.9392C329.811 69.1695 332.439 71.7972 335.669 71.7972H358.496C361.686 71.7972 364.281 69.2027 364.281 66.0132V39.6955H329.811Z" fill="white"/>
<path d="M369.379 38.7884H324.72C323.893 38.7884 323.137 38.3766 322.699 37.6868C322.295 37.0502 322.225 36.2689 322.517 35.6479L322.588 35.4977L346.379 12.5264C347.832 11.652 349.486 11.751 350.402 12.7662L371.011 35.6121C371.509 36.1636 371.635 36.9182 371.341 37.5813C371.015 38.3144 370.245 38.7884 369.379 38.7884ZM324.147 36.5051C324.153 36.5624 324.175 36.6383 324.225 36.7178C324.301 36.8377 324.449 36.9806 324.72 36.9806H369.379C369.595 36.9806 369.684 36.8716 369.691 36.8408L349.061 13.977C348.754 13.6388 348.05 13.6634 347.394 14.0274L324.147 36.5051Z" fill="white"/>
<path d="M357.079 72.7565H347.192V49.3948H357.079V72.7565ZM348.548 71.4005H355.723V50.7508H348.548V71.4005Z" fill="white"/>
<path d="M343.268 54.8744H333.991V45.5975H343.268V54.8744ZM335.347 53.5184H341.912V46.9535H335.347V53.5184Z" fill="white"/>
<path d="M291.638 207.991C295.937 207.991 299.423 204.506 299.423 200.206C299.423 195.906 295.937 192.421 291.638 192.421C287.338 192.421 283.852 195.906 283.852 200.206C283.852 204.506 287.338 207.991 291.638 207.991Z" fill="#F79D1D"/>
<path d="M299.206 216.924C299.041 217.448 300.948 218.245 302.071 216.104C302.11 215.078 302.734 210.681 302.121 209.845C298.855 205.392 292.523 199.811 292.523 199.811C291.453 200.867 292.335 201.904 292.335 201.904L295.406 205.104C294.764 206.265 293.98 207.245 293.613 208.65C293.335 209.713 293.505 210.85 294.042 211.818C294.581 212.789 295.317 214.052 296.012 215.04C297.329 216.91 299.206 216.924 299.206 216.924Z" fill="#C0423C"/>
<path d="M296.75 207.18L299.549 209.553L300.428 211.916L297.932 214.685C297.932 214.685 297.093 209.997 296.469 208.982C295.846 207.968 296.169 207.477 296.75 207.18Z" fill="#A22B25"/>
<path d="M354.19 391.68C354.19 391.68 354.897 395.683 355.244 399.646C355.379 401.195 354.186 402.539 352.632 402.604C347.354 402.824 336.066 403.251 332.015 403.071C331.406 403.044 331.008 402.42 331.233 401.854C331.422 401.379 331.786 400.995 332.25 400.782L350.897 392.212L354.19 391.68Z" fill="url(#paint33_linear_52_5710)"/>
<path d="M354.769 389.327L354.201 394.116C354.201 394.116 350.935 395.636 348.704 393.924L350.057 388.588L354.769 389.327Z" fill="url(#paint34_linear_52_5710)"/>
<path d="M354.342 299.3C354.588 300.55 355.66 361.704 349.123 389.109C349.016 389.556 349.243 390.017 349.668 390.191C350.671 390.6 352.636 391.193 354.992 391.273C355.722 391.297 356.376 390.823 356.581 390.123C358.45 383.764 367.404 351.907 368.572 321.475C369.877 287.47 368.572 320.317 368.572 320.317L367.806 299.297L354.342 299.3Z" fill="#233E83"/>
<path d="M375.64 393.768C375.64 393.768 376.766 395.789 377.856 401.16C378.052 402.13 377.375 403.058 376.39 403.155C374.647 403.326 371.965 403.546 369.816 403.531C368.825 403.525 368.052 402.662 368.171 401.679C368.409 399.718 369.151 396.502 371.442 393.995L375.64 393.768Z" fill="url(#paint35_linear_52_5710)"/>
<path d="M376.629 387.609L375.302 394.85C375.302 394.85 373.989 395.827 371.392 395.119L372.026 387.328L376.629 387.609Z" fill="url(#paint36_linear_52_5710)"/>
<path d="M380.215 301.176C385.562 333.441 379.056 380.922 376.862 390.215C376.727 390.784 376.268 391.22 375.691 391.316C374.712 391.478 373.1 391.61 371.51 391.149C370.962 390.99 370.577 390.496 370.555 389.926C370.261 382.413 370.79 336.289 365.809 318.06C365.556 317.137 364.992 316.331 364.212 315.776L354.543 308.902L353.802 297.792L380.215 301.176Z" fill="#233E83"/>
<path d="M346.149 240.04C362.171 239.775 379.849 244.247 379.849 244.247C384.625 272.113 380.684 304.255 380.684 304.255C368.28 307.508 354.288 302.266 354.288 302.266C352.227 290.619 342.608 257.839 342.608 257.839C334.78 256.868 328.331 254.609 323.021 251.623C327.071 246.927 328.981 240.953 329.81 237.421C335.475 239.181 341.207 240.122 346.149 240.04Z" fill="#CC841D"/>
<path d="M298.823 216.441C300.397 214.54 302.389 215.439 302.389 215.439C304.747 225.399 317.11 233.474 329.81 237.421C328.981 240.953 327.071 246.928 323.021 251.623C301.942 239.772 298.823 216.441 298.823 216.441Z" fill="#A22B25"/>
<path d="M373.703 259.761L379.849 244.247C379.849 244.247 394.814 254.415 397.275 267.307C394.447 267.515 389.302 268.251 384.265 270.794C383.159 264.707 373.703 259.761 373.703 259.761Z" fill="#CC841D"/>
<path d="M362.378 227.033L367.475 241.776C367.56 242.02 367.459 242.29 367.233 242.415C365.844 243.184 360.837 245.405 354.804 241.579C354.175 241.181 353.747 240.531 353.652 239.793L352.001 227.033L362.378 227.033Z" fill="#A22B25"/>
<path d="M384.266 270.794C384.266 270.794 389.496 294.391 384.758 307.658C390.567 310.351 389.494 309.843 389.494 309.843C389.494 309.843 400.985 276.268 397.275 267.307C389.961 266.531 386.333 268.497 384.266 270.794Z" fill="#A22B25"/>
<path d="M384.758 307.658C384.758 307.658 381.765 311.532 382.004 313.075C382.243 314.618 382.301 315.247 382.301 315.247C382.301 315.247 383.805 314.218 383.71 312.903C383.501 317.075 382.104 321.819 383.374 321.59C384.644 321.362 391.216 315.304 389.73 308.846C386.358 306.503 385.413 306.757 384.758 307.658Z" fill="#A22B25"/>
<path d="M350.326 211.433C350.159 211.665 344.948 229.828 344.948 229.828L355.382 232.583L362.878 216.102C362.878 216.102 353.121 207.551 350.326 211.433Z" fill="#A22B25"/>
<path d="M358.735 217.322C358.991 217.729 359.044 218.229 358.88 218.681L355.66 227.536C355.611 227.67 355.546 227.796 355.462 227.911C354.998 228.548 353.357 230.458 351.454 228.66C349.832 227.129 348.32 225.743 346.907 225.325C346.081 225.081 345.219 225.571 344.985 226.399C344.502 228.105 343.598 231.567 343.227 234.756C343.134 235.555 343.679 236.288 344.469 236.442C346.552 236.85 350.645 237.525 354.124 237.335C354.695 237.304 355.201 236.962 355.444 236.444C356.514 234.165 359.54 227.787 360.671 226.118C361.722 224.568 364.221 224.591 365.365 224.692C365.799 224.73 366.226 224.588 366.55 224.297C367.521 223.421 369.119 221.401 366.823 218.95C366.252 218.34 366.295 217.373 366.892 216.789C367.963 215.744 369.001 213.97 367.256 211.763C365.49 209.528 363.153 209.75 361.628 210.244C360.953 210.462 360.181 210.236 359.791 209.643C359.618 209.38 359.337 209.181 358.886 209.177C358.035 209.17 357.352 208.525 357.354 207.674C357.357 206.215 356.795 204.429 354.312 203.631C349.756 202.166 346.866 206.553 346.553 209.844C346.24 213.135 351.269 214.442 354.235 214.248C356.414 214.105 358.03 216.2 358.735 217.322Z" fill="#1E1E1E"/>
<path d="M359.449 229.378C359.449 229.378 360.241 223.667 362.622 223.409C365.003 223.151 367.3 225.128 364.905 228.315C361.926 232.279 359.449 229.378 359.449 229.378Z" fill="#A22B25"/>
<defs>
<linearGradient id="paint0_linear_52_5710" x1="455.408" y1="522.313" x2="98.3048" y2="78.8126" gradientUnits="userSpaceOnUse">
<stop stop-color="#DAE3FE"/>
<stop offset="1" stop-color="#E9EFFD"/>
</linearGradient>
<linearGradient id="paint1_linear_52_5710" x1="90.3282" y1="298.461" x2="115.563" y2="335.13" gradientUnits="userSpaceOnUse">
<stop stop-color="#09005D"/>
<stop offset="1" stop-color="#1A0F91"/>
</linearGradient>
<linearGradient id="paint2_linear_52_5710" x1="89.4206" y1="299.085" x2="114.655" y2="335.754" gradientUnits="userSpaceOnUse">
<stop stop-color="#09005D"/>
<stop offset="1" stop-color="#1A0F91"/>
</linearGradient>
<linearGradient id="paint3_linear_52_5710" x1="88.3262" y1="299.839" x2="113.561" y2="336.508" gradientUnits="userSpaceOnUse">
<stop stop-color="#09005D"/>
<stop offset="1" stop-color="#1A0F91"/>
</linearGradient>
<linearGradient id="paint4_linear_52_5710" x1="86.4323" y1="301.142" x2="111.667" y2="337.811" gradientUnits="userSpaceOnUse">
<stop stop-color="#09005D"/>
<stop offset="1" stop-color="#1A0F91"/>
</linearGradient>
<linearGradient id="paint5_linear_52_5710" x1="85.1837" y1="302.001" x2="110.418" y2="338.67" gradientUnits="userSpaceOnUse">
<stop stop-color="#09005D"/>
<stop offset="1" stop-color="#1A0F91"/>
</linearGradient>
<linearGradient id="paint6_linear_52_5710" x1="91.6267" y1="297.568" x2="116.861" y2="334.236" gradientUnits="userSpaceOnUse">
<stop stop-color="#09005D"/>
<stop offset="1" stop-color="#1A0F91"/>
</linearGradient>
<linearGradient id="paint7_linear_52_5710" x1="190.492" y1="302.106" x2="215.727" y2="338.775" gradientUnits="userSpaceOnUse">
<stop stop-color="#09005D"/>
<stop offset="1" stop-color="#1A0F91"/>
</linearGradient>
<linearGradient id="paint8_linear_52_5710" x1="189.585" y1="302.73" x2="214.819" y2="339.399" gradientUnits="userSpaceOnUse">
<stop stop-color="#09005D"/>
<stop offset="1" stop-color="#1A0F91"/>
</linearGradient>
<linearGradient id="paint9_linear_52_5710" x1="188.49" y1="303.484" x2="213.724" y2="340.153" gradientUnits="userSpaceOnUse">
<stop stop-color="#09005D"/>
<stop offset="1" stop-color="#1A0F91"/>
</linearGradient>
<linearGradient id="paint10_linear_52_5710" x1="186.596" y1="304.787" x2="211.831" y2="341.456" gradientUnits="userSpaceOnUse">
<stop stop-color="#09005D"/>
<stop offset="1" stop-color="#1A0F91"/>
</linearGradient>
<linearGradient id="paint11_linear_52_5710" x1="185.348" y1="305.646" x2="210.582" y2="342.315" gradientUnits="userSpaceOnUse">
<stop stop-color="#09005D"/>
<stop offset="1" stop-color="#1A0F91"/>
</linearGradient>
<linearGradient id="paint12_linear_52_5710" x1="184.573" y1="306.18" x2="209.807" y2="342.848" gradientUnits="userSpaceOnUse">
<stop stop-color="#09005D"/>
<stop offset="1" stop-color="#1A0F91"/>
</linearGradient>
<linearGradient id="paint13_linear_52_5710" x1="191.791" y1="301.212" x2="217.025" y2="337.881" gradientUnits="userSpaceOnUse">
<stop stop-color="#09005D"/>
<stop offset="1" stop-color="#1A0F91"/>
</linearGradient>
<linearGradient id="paint14_linear_52_5710" x1="70.7436" y1="250.656" x2="88.4651" y2="276.407" gradientUnits="userSpaceOnUse">
<stop stop-color="#09005D"/>
<stop offset="1" stop-color="#1A0F91"/>
</linearGradient>
<linearGradient id="paint15_linear_52_5710" x1="70.1064" y1="251.094" x2="87.8279" y2="276.846" gradientUnits="userSpaceOnUse">
<stop stop-color="#09005D"/>
<stop offset="1" stop-color="#1A0F91"/>
</linearGradient>
<linearGradient id="paint16_linear_52_5710" x1="69.3376" y1="251.623" x2="87.0591" y2="277.375" gradientUnits="userSpaceOnUse">
<stop stop-color="#09005D"/>
<stop offset="1" stop-color="#1A0F91"/>
</linearGradient>
<linearGradient id="paint17_linear_52_5710" x1="68.0077" y1="252.538" x2="85.7293" y2="278.29" gradientUnits="userSpaceOnUse">
<stop stop-color="#09005D"/>
<stop offset="1" stop-color="#1A0F91"/>
</linearGradient>
<linearGradient id="paint18_linear_52_5710" x1="67.1308" y1="253.142" x2="84.8523" y2="278.894" gradientUnits="userSpaceOnUse">
<stop stop-color="#09005D"/>
<stop offset="1" stop-color="#1A0F91"/>
</linearGradient>
<linearGradient id="paint19_linear_52_5710" x1="66.5864" y1="253.517" x2="84.3078" y2="279.268" gradientUnits="userSpaceOnUse">
<stop stop-color="#09005D"/>
<stop offset="1" stop-color="#1A0F91"/>
</linearGradient>
<linearGradient id="paint20_linear_52_5710" x1="71.6555" y1="250.028" x2="89.3771" y2="275.78" gradientUnits="userSpaceOnUse">
<stop stop-color="#09005D"/>
<stop offset="1" stop-color="#1A0F91"/>
</linearGradient>
<linearGradient id="paint21_linear_52_5710" x1="134.298" y1="251.558" x2="152.05" y2="277.352" gradientUnits="userSpaceOnUse">
<stop stop-color="#09005D"/>
<stop offset="1" stop-color="#1A0F91"/>
</linearGradient>
<linearGradient id="paint22_linear_52_5710" x1="133.804" y1="252.009" x2="151.507" y2="277.734" gradientUnits="userSpaceOnUse">
<stop stop-color="#09005D"/>
<stop offset="1" stop-color="#1A0F91"/>
</linearGradient>
<linearGradient id="paint23_linear_52_5710" x1="133.184" y1="252.532" x2="150.912" y2="278.291" gradientUnits="userSpaceOnUse">
<stop stop-color="#09005D"/>
<stop offset="1" stop-color="#1A0F91"/>
</linearGradient>
<linearGradient id="paint24_linear_52_5710" x1="132.125" y1="253.463" x2="149.761" y2="279.09" gradientUnits="userSpaceOnUse">
<stop stop-color="#09005D"/>
<stop offset="1" stop-color="#1A0F91"/>
</linearGradient>
<linearGradient id="paint25_linear_52_5710" x1="131.42" y1="254.061" x2="149.075" y2="279.716" gradientUnits="userSpaceOnUse">
<stop stop-color="#09005D"/>
<stop offset="1" stop-color="#1A0F91"/>
</linearGradient>
<linearGradient id="paint26_linear_52_5710" x1="130.979" y1="254.426" x2="148.705" y2="280.185" gradientUnits="userSpaceOnUse">
<stop stop-color="#09005D"/>
<stop offset="1" stop-color="#1A0F91"/>
</linearGradient>
<linearGradient id="paint27_linear_52_5710" x1="135.027" y1="250.952" x2="152.704" y2="276.639" gradientUnits="userSpaceOnUse">
<stop stop-color="#09005D"/>
<stop offset="1" stop-color="#1A0F91"/>
</linearGradient>
<linearGradient id="paint28_linear_52_5710" x1="196.202" y1="253.44" x2="213.953" y2="279.234" gradientUnits="userSpaceOnUse">
<stop stop-color="#09005D"/>
<stop offset="1" stop-color="#1A0F91"/>
</linearGradient>
<linearGradient id="paint29_linear_52_5710" x1="195.707" y1="253.891" x2="213.41" y2="279.616" gradientUnits="userSpaceOnUse">
<stop stop-color="#09005D"/>
<stop offset="1" stop-color="#1A0F91"/>
</linearGradient>
<linearGradient id="paint30_linear_52_5710" x1="195.088" y1="254.414" x2="212.815" y2="280.174" gradientUnits="userSpaceOnUse">
<stop stop-color="#09005D"/>
<stop offset="1" stop-color="#1A0F91"/>
</linearGradient>
<linearGradient id="paint31_linear_52_5710" x1="194.029" y1="255.345" x2="211.665" y2="280.972" gradientUnits="userSpaceOnUse">
<stop stop-color="#09005D"/>
<stop offset="1" stop-color="#1A0F91"/>
</linearGradient>
<linearGradient id="paint32_linear_52_5710" x1="196.931" y1="252.835" x2="214.607" y2="278.521" gradientUnits="userSpaceOnUse">
<stop stop-color="#09005D"/>
<stop offset="1" stop-color="#1A0F91"/>
</linearGradient>
<linearGradient id="paint33_linear_52_5710" x1="332.605" y1="386.146" x2="400.89" y2="460.421" gradientUnits="userSpaceOnUse">
<stop stop-color="#09005D"/>
<stop offset="1" stop-color="#1A0F91"/>
</linearGradient>
<linearGradient id="paint34_linear_52_5710" x1="354.769" y1="391.663" x2="348.704" y2="391.663" gradientUnits="userSpaceOnUse">
<stop stop-color="#FEBBBA"/>
<stop offset="1" stop-color="#FF928E"/>
</linearGradient>
<linearGradient id="paint35_linear_52_5710" x1="347.924" y1="372.063" x2="416.208" y2="446.338" gradientUnits="userSpaceOnUse">
<stop stop-color="#09005D"/>
<stop offset="1" stop-color="#1A0F91"/>
</linearGradient>
<linearGradient id="paint36_linear_52_5710" x1="376.629" y1="391.352" x2="371.392" y2="391.352" gradientUnits="userSpaceOnUse">
<stop stop-color="#FEBBBA"/>
<stop offset="1" stop-color="#FF928E"/>
</linearGradient>
</defs>
</svg>
