<svg width="43" height="43" viewBox="0 0 43 43" fill="none" xmlns="http://www.w3.org/2000/svg">
<path d="M21.5 26.875C24.4685 26.875 26.875 24.4685 26.875 21.5C26.875 18.5315 24.4685 16.125 21.5 16.125C18.5315 16.125 16.125 18.5315 16.125 21.5C16.125 24.4685 18.5315 26.875 21.5 26.875Z" fill="#1E1E1E" fill-opacity="0.6"/>
<path d="M41.2229 20.0387C39.0006 16.602 36.1174 13.6827 32.8857 11.5957C29.3105 9.28447 25.3632 8.0625 21.4714 8.0625C17.9004 8.0625 14.389 9.08291 11.0347 11.0952C7.61399 13.1469 4.51497 16.1443 1.82327 20.0034C1.5194 20.4395 1.35205 20.9562 1.34248 21.4876C1.33291 22.0191 1.48155 22.5414 1.76952 22.9882C3.98754 26.4593 6.84217 29.3828 10.0235 31.4412C13.6054 33.7617 17.4603 34.9375 21.4714 34.9375C25.3943 34.9375 29.35 33.7256 32.9101 31.4337C36.1401 29.3534 39.0174 26.4232 41.2313 22.958C41.5093 22.5216 41.6563 22.0145 41.6548 21.4971C41.6533 20.9796 41.5034 20.4735 41.2229 20.0387ZM21.5 29.5625C19.9054 29.5625 18.3465 29.0896 17.0207 28.2037C15.6948 27.3178 14.6614 26.0586 14.0512 24.5854C13.441 23.1122 13.2813 21.4911 13.5924 19.9271C13.9035 18.3631 14.6714 16.9265 15.7989 15.799C16.9265 14.6714 18.3631 13.9035 19.927 13.5924C21.491 13.2813 23.1121 13.441 24.5854 14.0512C26.0586 14.6615 27.3178 15.6948 28.2037 17.0207C29.0896 18.3466 29.5625 19.9054 29.5625 21.5C29.56 23.6376 28.7098 25.6869 27.1983 27.1983C25.6868 28.7098 23.6375 29.5601 21.5 29.5625Z" fill="#1E1E1E" fill-opacity="0.6"/>
</svg>
