<svg width="161" height="161" viewBox="0 0 161 161" fill="none" xmlns="http://www.w3.org/2000/svg">
<circle cx="80.5" cy="80.5" r="80.5" fill="#F79D1D" fill-opacity="0.4"/>
<circle cx="81.1238" cy="81.124" r="62.4031" fill="#F79D1D" fill-opacity="0.8"/>
<g clip-path="url(#clip0_40_3927)">
<path fill-rule="evenodd" clip-rule="evenodd" d="M117.731 54.8796C118.828 55.9767 119.444 57.4645 119.444 59.0158C119.444 60.5671 118.828 62.0548 117.731 63.1519L73.8811 107.002C73.3016 107.581 72.6136 108.041 71.8564 108.355C71.0992 108.669 70.2876 108.83 69.468 108.83C68.6484 108.83 67.8368 108.669 67.0796 108.355C66.3224 108.041 65.6344 107.581 65.0549 107.002L43.2684 85.2192C42.7097 84.6796 42.264 84.034 41.9574 83.3203C41.6508 82.6065 41.4894 81.8388 41.4826 81.062C41.4759 80.2852 41.6239 79.5149 41.9181 78.7959C42.2122 78.0769 42.6466 77.4237 43.1959 76.8744C43.7452 76.3251 44.3984 75.8907 45.1174 75.5966C45.8364 75.3024 46.6068 75.1544 47.3835 75.1611C48.1603 75.1679 48.928 75.3293 49.6418 75.6359C50.3555 75.9425 51.0011 76.3882 51.5408 76.9469L69.466 94.8722L109.455 54.8796C109.998 54.336 110.643 53.9047 111.353 53.6105C112.063 53.3162 112.824 53.1648 113.593 53.1648C114.361 53.1648 115.122 53.3162 115.833 53.6105C116.543 53.9047 117.188 54.336 117.731 54.8796Z" fill="white"/>
</g>
<defs>
<clipPath id="clip0_40_3927">
<rect width="93.6047" height="93.6047" fill="white" transform="translate(33.6973 34.9457)"/>
</clipPath>
</defs>
</svg>
