<svg width="35" height="35" viewBox="0 0 35 35" fill="none" xmlns="http://www.w3.org/2000/svg">
<path d="M17.5 0C22.1413 0 26.5925 1.84374 29.8744 5.12563C33.1563 8.40752 35 12.8587 35 17.5C35 22.1413 33.1563 26.5925 29.8744 29.8744C26.5925 33.1563 22.1413 35 17.5 35C12.8587 35 8.40752 33.1563 5.12563 29.8744C1.84374 26.5925 0 22.1413 0 17.5C0 12.8587 1.84374 8.40752 5.12563 5.12563C8.40752 1.84374 12.8587 0 17.5 0ZM17.5 7.5C17.1826 7.49972 16.8686 7.56564 16.5781 7.69355C16.2876 7.82147 16.027 8.00856 15.8129 8.24289C15.5988 8.47722 15.436 8.75362 15.3347 9.05445C15.2335 9.35528 15.1961 9.67391 15.225 9.99L16.1375 20.005C16.1729 20.3417 16.3317 20.6534 16.5833 20.8799C16.8349 21.1065 17.1614 21.2318 17.5 21.2318C17.8386 21.2318 18.1651 21.1065 18.4167 20.8799C18.6683 20.6534 18.8271 20.3417 18.8625 20.005L19.7725 9.99C19.8013 9.67412 19.764 9.3557 19.663 9.05504C19.5619 8.75439 19.3992 8.4781 19.1854 8.24382C18.9716 8.00953 18.7113 7.82238 18.4211 7.69431C18.1309 7.56624 17.8172 7.50006 17.5 7.5ZM17.5 27.5C18.0304 27.5 18.5391 27.2893 18.9142 26.9142C19.2893 26.5391 19.5 26.0304 19.5 25.5C19.5 24.9696 19.2893 24.4609 18.9142 24.0858C18.5391 23.7107 18.0304 23.5 17.5 23.5C16.9696 23.5 16.4609 23.7107 16.0858 24.0858C15.7107 24.4609 15.5 24.9696 15.5 25.5C15.5 26.0304 15.7107 26.5391 16.0858 26.9142C16.4609 27.2893 16.9696 27.5 17.5 27.5Z" fill="#FB0404"/>
</svg>
