<svg width="20" height="20" viewBox="0 0 20 20" fill="none" xmlns="http://www.w3.org/2000/svg">
<path fill-rule="evenodd" clip-rule="evenodd" d="M4.99984 2.08333C4.30948 2.08333 3.74984 2.64297 3.74984 3.33333V16.6667C3.74984 17.357 4.30948 17.9167 4.99984 17.9167H14.9998C15.6902 17.9167 16.2498 17.357 16.2498 16.6667V7.43323C16.2498 7.06832 16.0904 6.72163 15.8133 6.48415L11.0301 2.38427C10.8036 2.19007 10.515 2.08333 10.2167 2.08333H4.99984ZM2.9165 3.33333C2.9165 2.18274 3.84925 1.25 4.99984 1.25H10.2167C10.7139 1.25 11.1948 1.4279 11.5724 1.75155L16.3557 5.85144C16.8174 6.24723 17.0832 6.82505 17.0832 7.43323V16.6667C17.0832 17.8172 16.1504 18.75 14.9998 18.75H4.99984C3.84925 18.75 2.9165 17.8172 2.9165 16.6667V3.33333Z" fill="white"/>
<path fill-rule="evenodd" clip-rule="evenodd" d="M10.4165 4.58366V1.66699H11.2498V4.58366C11.2498 5.27402 11.8095 5.83366 12.4998 5.83366H16.2498V6.66699H12.4998C11.3493 6.66699 10.4165 5.73425 10.4165 4.58366Z" fill="white"/>
<path fill-rule="evenodd" clip-rule="evenodd" d="M5.47663 12.083C5.67685 12.4219 6.15288 13.1433 6.89911 13.7842C7.66466 14.4416 8.69609 14.9997 9.99984 14.9997C11.3036 14.9997 12.335 14.4416 13.1005 13.7842C13.8468 13.1433 14.3228 12.4219 14.523 12.083C14.3228 11.7441 13.8468 11.0228 13.1005 10.3818C12.335 9.72442 11.3036 9.16634 9.99984 9.16634C8.69609 9.16634 7.66466 9.72442 6.89911 10.3818C6.15288 11.0228 5.67685 11.7441 5.47663 12.083ZM6.35616 9.74967C7.22406 9.00434 8.44084 8.33301 9.99984 8.33301C11.5588 8.33301 12.7756 9.00434 13.6435 9.74967C14.5086 10.4927 15.0455 11.3239 15.2603 11.6928C15.4017 11.9358 15.4017 12.2303 15.2603 12.4732C15.0455 12.8421 14.5086 13.6733 13.6435 14.4163C12.7756 15.1617 11.5588 15.833 9.99984 15.833C8.44084 15.833 7.22406 15.1617 6.35616 14.4163C5.49106 13.6733 4.95417 12.8421 4.73937 12.4732C4.59794 12.2303 4.59794 11.9358 4.73937 11.6928C4.95417 11.3239 5.49106 10.4927 6.35616 9.74967Z" fill="white"/>
<path fill-rule="evenodd" clip-rule="evenodd" d="M10.0002 11.2503C9.53991 11.2503 9.16683 11.6234 9.16683 12.0837C9.16683 12.5439 9.53991 12.917 10.0002 12.917C10.4604 12.917 10.8335 12.5439 10.8335 12.0837C10.8335 11.6234 10.4604 11.2503 10.0002 11.2503ZM8.3335 12.0837C8.3335 11.1632 9.07966 10.417 10.0002 10.417C10.9207 10.417 11.6668 11.1632 11.6668 12.0837C11.6668 13.0042 10.9207 13.7503 10.0002 13.7503C9.07966 13.7503 8.3335 13.0042 8.3335 12.0837Z" fill="white"/>
</svg>
