<svg width="17" height="17" viewBox="0 0 17 17" fill="none" xmlns="http://www.w3.org/2000/svg">
<g clip-path="url(#clip0_418_453)">
<path d="M10.5245 0.0940069C10.4496 0.0151266 10.3469 -0.0322266 10.2405 -0.0322266H3.86888C2.69315 -0.0322266 1.72266 0.9344 1.72266 2.11V14.1588C1.72266 15.3345 2.69315 16.3011 3.86888 16.3011H12.5168C13.6925 16.3011 14.663 15.3345 14.663 14.1588V4.59156C14.663 4.489 14.6157 4.39043 14.5486 4.31541L10.5245 0.0940069ZM10.6389 1.36045L13.3335 4.18918H11.5818C11.0611 4.18918 10.6389 3.77098 10.6389 3.25022V1.36045ZM12.5168 15.5121H3.86888C3.13116 15.5121 2.51171 14.9006 2.51171 14.1588V2.11C2.51171 1.37229 3.12718 0.756826 3.86888 0.756826H9.84983V3.25022C9.84983 4.20887 10.6232 4.97823 11.5818 4.97823H13.874V14.1588C13.874 14.9006 13.2585 15.5121 12.5168 15.5121Z" fill="#233E83"/>
<path d="M11.4397 12.791H4.9458C4.72884 12.791 4.55127 12.9685 4.55127 13.1855C4.55127 13.4025 4.72884 13.5801 4.9458 13.5801H11.4436C11.6606 13.5801 11.8382 13.4025 11.8382 13.1855C11.8382 12.9685 11.6606 12.791 11.4397 12.791Z" fill="#233E83"/>
<path d="M6.17256 8.54574L7.79802 6.79791V11.1062C7.79802 11.3231 7.97559 11.5007 8.19254 11.5007C8.40962 11.5007 8.58707 11.3231 8.58707 11.1062V6.79791L10.2125 8.54574C10.2914 8.62848 10.3941 8.67197 10.5005 8.67197C10.5952 8.67197 10.6939 8.63646 10.7688 8.56543C10.9267 8.41552 10.9385 8.16691 10.7886 8.00915L8.47666 5.5276C8.40165 5.44872 8.29909 5.40137 8.18868 5.40137C8.07815 5.40137 7.97559 5.44872 7.9007 5.5276L5.58874 8.00915C5.43883 8.16691 5.45067 8.41938 5.60843 8.56543C5.77417 8.71534 6.02265 8.7035 6.17256 8.54574Z" fill="#233E83"/>
</g>
<defs>
<clipPath id="clip0_418_453">
<rect width="16.3333" height="16.3333" fill="white"/>
</clipPath>
</defs>
</svg>
