<svg width="100" height="109" viewBox="0 0 100 109" fill="none" xmlns="http://www.w3.org/2000/svg">
<path fill-rule="evenodd" clip-rule="evenodd" d="M22.4198 27.2241C22.4198 23.649 23.124 20.1089 24.4922 16.8059C25.8603 13.5029 27.8656 10.5017 30.3936 7.97375C32.9216 5.44576 35.9228 3.44045 39.2257 2.07231C42.5287 0.704171 46.0688 0 49.6439 0C53.2191 0 56.7592 0.704171 60.0622 2.07231C63.3651 3.44045 66.3663 5.44576 68.8943 7.97375C71.4223 10.5017 73.4276 13.5029 74.7957 16.8059C76.1639 20.1089 76.868 23.649 76.868 27.2241C76.868 34.4444 73.9998 41.3689 68.8943 46.4744C63.7888 51.58 56.8642 54.4482 49.6439 54.4482C42.4237 54.4482 35.4991 51.58 30.3936 46.4744C25.2881 41.3689 22.4198 34.4444 22.4198 27.2241ZM49.6439 9.60851C44.972 9.60851 40.4914 11.4644 37.1878 14.768C33.8843 18.0716 32.0284 22.5522 32.0284 27.2241C32.0284 31.896 33.8843 36.3766 37.1878 39.6802C40.4914 42.9838 44.972 44.8397 49.6439 44.8397C54.3159 44.8397 58.7965 42.9838 62.1001 39.6802C65.4036 36.3766 67.2595 31.896 67.2595 27.2241C67.2595 22.5522 65.4036 18.0716 62.1001 14.768C58.7965 11.4644 54.3159 9.60851 49.6439 9.60851ZM24.0213 73.6652C20.1988 73.6652 16.5328 75.1837 13.8299 77.8866C11.127 80.5895 9.60851 84.2555 9.60851 88.078V95.6879C9.60851 95.8032 9.69178 95.9057 9.80708 95.9249C36.192 100.23 63.1023 100.23 89.4808 95.9249C89.5368 95.9157 89.5876 95.8867 89.6241 95.8433C89.6605 95.7998 89.6801 95.7446 89.6794 95.6879V88.078C89.6794 84.2555 88.1609 80.5895 85.458 77.8866C82.7551 75.1837 79.0891 73.6652 75.2666 73.6652H73.0887C72.917 73.6639 72.7462 73.6898 72.5827 73.7421L67.0417 75.5549C55.7368 79.2458 43.5511 79.2458 32.2461 75.5549L26.6988 73.7421C26.5394 73.691 26.373 73.6651 26.2056 73.6652H24.0213ZM0 88.078C0 81.7071 2.5308 75.5972 7.03567 71.0924C11.5405 66.5875 17.6504 64.0567 24.0213 64.0567H26.1992C27.3842 64.0567 28.5629 64.2489 29.6839 64.6076L35.2312 66.4204C44.5965 69.4774 54.6913 69.4774 64.0567 66.4204L69.604 64.6076C70.725 64.2425 71.9037 64.0567 73.0823 64.0567H75.2666C81.6375 64.0567 87.7474 66.5875 92.2522 71.0924C96.7571 75.5972 99.2879 81.7071 99.2879 88.078V95.6879C99.2879 100.518 95.7904 104.63 91.0246 105.405C63.6189 109.879 35.669 109.879 8.26332 105.405C5.95678 105.03 3.85904 103.846 2.34517 102.066C0.831307 100.286 3.55801e-05 98.0248 0 95.6879V88.078Z" fill="#233E83" fill-opacity="0.85"/>
</svg>
